%TF.GenerationSoftware,KiCad,Pcbnew,8.0.8*%
%TF.CreationDate,2025-02-04T21:02:44+01:00*%
%TF.ProjectId,makeraxe-lite,6d616b65-7261-4786-952d-6c6974652e6b,rev?*%
%TF.SameCoordinates,Original*%
%TF.FileFunction,Legend,Bot*%
%TF.FilePolarity,Positive*%
%FSLAX46Y46*%
G04 Gerber Fmt 4.6, Leading zero omitted, Abs format (unit mm)*
G04 Created by KiCad (PCBNEW 8.0.8) date 2025-02-04 21:02:44*
%MOMM*%
%LPD*%
G01*
G04 APERTURE LIST*
G04 Aperture macros list*
%AMRoundRect*
0 Rectangle with rounded corners*
0 $1 Rounding radius*
0 $2 $3 $4 $5 $6 $7 $8 $9 X,Y pos of 4 corners*
0 Add a 4 corners polygon primitive as box body*
4,1,4,$2,$3,$4,$5,$6,$7,$8,$9,$2,$3,0*
0 Add four circle primitives for the rounded corners*
1,1,$1+$1,$2,$3*
1,1,$1+$1,$4,$5*
1,1,$1+$1,$6,$7*
1,1,$1+$1,$8,$9*
0 Add four rect primitives between the rounded corners*
20,1,$1+$1,$2,$3,$4,$5,0*
20,1,$1+$1,$4,$5,$6,$7,0*
20,1,$1+$1,$6,$7,$8,$9,0*
20,1,$1+$1,$8,$9,$2,$3,0*%
G04 Aperture macros list end*
%ADD10C,0.250000*%
%ADD11C,0.150000*%
%ADD12C,0.800000*%
%ADD13C,0.254000*%
%ADD14C,0.010000*%
%ADD15C,0.120000*%
%ADD16C,0.200000*%
%ADD17C,0.100000*%
%ADD18C,0.050000*%
%ADD19C,0.227485*%
%ADD20C,0.152400*%
%ADD21C,3.000000*%
%ADD22C,0.800000*%
%ADD23C,6.000000*%
%ADD24C,0.400000*%
%ADD25C,1.295400*%
%ADD26C,1.574800*%
%ADD27R,1.900000X1.000000*%
%ADD28RoundRect,0.135000X-0.185000X0.135000X-0.185000X-0.135000X0.185000X-0.135000X0.185000X0.135000X0*%
%ADD29C,0.650000*%
%ADD30RoundRect,0.150000X0.425000X-0.150000X0.425000X0.150000X-0.425000X0.150000X-0.425000X-0.150000X0*%
%ADD31RoundRect,0.075000X0.500000X-0.075000X0.500000X0.075000X-0.500000X0.075000X-0.500000X-0.075000X0*%
%ADD32O,1.800000X1.000000*%
%ADD33O,2.100000X1.000000*%
%ADD34R,1.230000X1.800000*%
%ADD35C,2.000000*%
%ADD36R,1.700000X1.700000*%
%ADD37O,1.700000X1.700000*%
%ADD38R,2.230000X2.370000*%
%ADD39R,1.150000X0.600000*%
%ADD40R,1.150000X0.300000*%
%ADD41R,0.900000X1.500000*%
%ADD42R,1.500000X0.900000*%
%ADD43R,0.900000X0.900000*%
%ADD44C,0.990600*%
%ADD45C,0.787400*%
%ADD46RoundRect,0.250000X-0.450000X0.325000X-0.450000X-0.325000X0.450000X-0.325000X0.450000X0.325000X0*%
%ADD47R,0.792000X0.221000*%
%ADD48R,4.277000X1.810000*%
%ADD49R,4.277000X4.530000*%
%ADD50RoundRect,0.250000X-0.550000X1.500000X-0.550000X-1.500000X0.550000X-1.500000X0.550000X1.500000X0*%
%ADD51R,0.900000X1.800000*%
G04 APERTURE END LIST*
D10*
G36*
X79392435Y-57946279D02*
G01*
X79423270Y-57977115D01*
X79467585Y-58065747D01*
X79520050Y-58275603D01*
X79520050Y-58542443D01*
X79467585Y-58752299D01*
X79423270Y-58840931D01*
X79392435Y-58871766D01*
X79317922Y-58909023D01*
X79257893Y-58909023D01*
X79183380Y-58871767D01*
X79152544Y-58840932D01*
X79108228Y-58752300D01*
X79055765Y-58542444D01*
X79055765Y-58275602D01*
X79108228Y-58065746D01*
X79152544Y-57977114D01*
X79183381Y-57946278D01*
X79257892Y-57909023D01*
X79317923Y-57909023D01*
X79392435Y-57946279D01*
G37*
G36*
X85860339Y-59595531D02*
G01*
X77178869Y-59595531D01*
X77178869Y-57788696D01*
X77317758Y-57788696D01*
X77321069Y-57812976D01*
X77618688Y-59062975D01*
X77621572Y-59071343D01*
X77621971Y-59074344D01*
X77623541Y-59077057D01*
X77626673Y-59086142D01*
X77637314Y-59100847D01*
X77646408Y-59116554D01*
X77651504Y-59120454D01*
X77655266Y-59125653D01*
X77670720Y-59135163D01*
X77685137Y-59146198D01*
X77691340Y-59147852D01*
X77696805Y-59151215D01*
X77714720Y-59154087D01*
X77732263Y-59158765D01*
X77738626Y-59157919D01*
X77744962Y-59158935D01*
X77762612Y-59154732D01*
X77780610Y-59152341D01*
X77786166Y-59149124D01*
X77792408Y-59147638D01*
X77807108Y-59137000D01*
X77822820Y-59127904D01*
X77826721Y-59122807D01*
X77831920Y-59119045D01*
X77841432Y-59103587D01*
X77852464Y-59089175D01*
X77855837Y-59080179D01*
X77857482Y-59077507D01*
X77857961Y-59074514D01*
X77861068Y-59066231D01*
X77978384Y-58626295D01*
X78095700Y-59066231D01*
X78098806Y-59074514D01*
X78099286Y-59077507D01*
X78100930Y-59080179D01*
X78104304Y-59089175D01*
X78115333Y-59103584D01*
X78124848Y-59119046D01*
X78130048Y-59122809D01*
X78133948Y-59127904D01*
X78149653Y-59136996D01*
X78164360Y-59147639D01*
X78170604Y-59149125D01*
X78176158Y-59152341D01*
X78194151Y-59154731D01*
X78211806Y-59158935D01*
X78218141Y-59157919D01*
X78224505Y-59158765D01*
X78242041Y-59154088D01*
X78259963Y-59151216D01*
X78265430Y-59147851D01*
X78271631Y-59146198D01*
X78286040Y-59135168D01*
X78301502Y-59125654D01*
X78305265Y-59120453D01*
X78310360Y-59116554D01*
X78319452Y-59100848D01*
X78330095Y-59086142D01*
X78333226Y-59077056D01*
X78334797Y-59074344D01*
X78335195Y-59071344D01*
X78338080Y-59062976D01*
X78529214Y-58260214D01*
X78805765Y-58260214D01*
X78805765Y-58557833D01*
X78806184Y-58562087D01*
X78805913Y-58563909D01*
X78807262Y-58573037D01*
X78808167Y-58582219D01*
X78808871Y-58583920D01*
X78809497Y-58588150D01*
X78869020Y-58826245D01*
X78869663Y-58828044D01*
X78869727Y-58828944D01*
X78873609Y-58839090D01*
X78877265Y-58849320D01*
X78877801Y-58850044D01*
X78878485Y-58851830D01*
X78938009Y-58970878D01*
X78944616Y-58981374D01*
X78945879Y-58984422D01*
X78948695Y-58987853D01*
X78951063Y-58991615D01*
X78953557Y-58993778D01*
X78961424Y-59003364D01*
X79020948Y-59062889D01*
X79030536Y-59070758D01*
X79032698Y-59073250D01*
X79036455Y-59075615D01*
X79039890Y-59078434D01*
X79042939Y-59079697D01*
X79053435Y-59086304D01*
X79172483Y-59145827D01*
X79195369Y-59154584D01*
X79199848Y-59154902D01*
X79203998Y-59156621D01*
X79228384Y-59159023D01*
X79347431Y-59159023D01*
X79371817Y-59156621D01*
X79375966Y-59154902D01*
X79380446Y-59154584D01*
X79403332Y-59145827D01*
X79522380Y-59086304D01*
X79532879Y-59079694D01*
X79535925Y-59078433D01*
X79539354Y-59075618D01*
X79543117Y-59073250D01*
X79545281Y-59070754D01*
X79554867Y-59062888D01*
X79614392Y-59003364D01*
X79622261Y-58993775D01*
X79624753Y-58991614D01*
X79627118Y-58987856D01*
X79629937Y-58984422D01*
X79631200Y-58981372D01*
X79637807Y-58970877D01*
X79697330Y-58851829D01*
X79698013Y-58850042D01*
X79698549Y-58849320D01*
X79702203Y-58839093D01*
X79706087Y-58828943D01*
X79706150Y-58828045D01*
X79706794Y-58826245D01*
X79766318Y-58588150D01*
X79766943Y-58583920D01*
X79767648Y-58582219D01*
X79768552Y-58573037D01*
X79769902Y-58563909D01*
X79769630Y-58562087D01*
X79770050Y-58557833D01*
X79770050Y-58260214D01*
X79769630Y-58255959D01*
X79769902Y-58254138D01*
X79768552Y-58245009D01*
X79767648Y-58235828D01*
X79766943Y-58234126D01*
X79766318Y-58229897D01*
X79714373Y-58022119D01*
X79996241Y-58022119D01*
X79996241Y-58141166D01*
X79997456Y-58153509D01*
X79997223Y-58156800D01*
X79998207Y-58161130D01*
X79998643Y-58165552D01*
X79999905Y-58168600D01*
X80002655Y-58180694D01*
X80062178Y-58359266D01*
X80072169Y-58381641D01*
X80075112Y-58385034D01*
X80076831Y-58389184D01*
X80092376Y-58408126D01*
X80593274Y-58909023D01*
X80121241Y-58909023D01*
X80096855Y-58911425D01*
X80051795Y-58930089D01*
X80017307Y-58964577D01*
X79998643Y-59009637D01*
X79998643Y-59058409D01*
X80017307Y-59103469D01*
X80051795Y-59137957D01*
X80096855Y-59156621D01*
X80121241Y-59159023D01*
X80895050Y-59159023D01*
X80919436Y-59156621D01*
X80919437Y-59156621D01*
X80932634Y-59151154D01*
X80964496Y-59137957D01*
X80998984Y-59103469D01*
X81017648Y-59058409D01*
X81017648Y-59009637D01*
X81015756Y-59005070D01*
X81004080Y-58976880D01*
X80998984Y-58964577D01*
X80998983Y-58964576D01*
X80983438Y-58945634D01*
X80290019Y-58252217D01*
X80246241Y-58120880D01*
X80246241Y-58051627D01*
X80283497Y-57977114D01*
X80314333Y-57946278D01*
X80388844Y-57909023D01*
X80627447Y-57909023D01*
X80701957Y-57946278D01*
X80747138Y-57991460D01*
X80766080Y-58007005D01*
X80811140Y-58025669D01*
X80859913Y-58025669D01*
X80904973Y-58007005D01*
X80939460Y-57972518D01*
X80958124Y-57927458D01*
X80958124Y-57878685D01*
X80939460Y-57833625D01*
X80923915Y-57814683D01*
X80864390Y-57755159D01*
X80854804Y-57747292D01*
X80852641Y-57744798D01*
X80848879Y-57742430D01*
X80845448Y-57739614D01*
X80842400Y-57738351D01*
X80831904Y-57731744D01*
X80817156Y-57724370D01*
X81067669Y-57724370D01*
X81077134Y-57772215D01*
X81088663Y-57793838D01*
X82160092Y-59400980D01*
X82175617Y-59419938D01*
X82216142Y-59447077D01*
X82263968Y-59456642D01*
X82311813Y-59447177D01*
X82352394Y-59420123D01*
X82379533Y-59379599D01*
X82389098Y-59331772D01*
X82379633Y-59283927D01*
X82368104Y-59262305D01*
X81393005Y-57799657D01*
X82378176Y-57799657D01*
X82383609Y-57823551D01*
X82800274Y-59073551D01*
X82810265Y-59095926D01*
X82816115Y-59102672D01*
X82820111Y-59110663D01*
X82831952Y-59120932D01*
X82842220Y-59132772D01*
X82850209Y-59136766D01*
X82856956Y-59142618D01*
X82871823Y-59147573D01*
X82885844Y-59154584D01*
X82894754Y-59155217D01*
X82903226Y-59158041D01*
X82918859Y-59156930D01*
X82934494Y-59158041D01*
X82942965Y-59155217D01*
X82951875Y-59154584D01*
X82965895Y-59147573D01*
X82980763Y-59142618D01*
X82987508Y-59136767D01*
X82995500Y-59132772D01*
X83005772Y-59120927D01*
X83017609Y-59110662D01*
X83021602Y-59102675D01*
X83027455Y-59095927D01*
X83037445Y-59073551D01*
X83387923Y-58022119D01*
X83567670Y-58022119D01*
X83567670Y-58141166D01*
X83568885Y-58153509D01*
X83568652Y-58156800D01*
X83569636Y-58161130D01*
X83570072Y-58165552D01*
X83571334Y-58168600D01*
X83574084Y-58180694D01*
X83633607Y-58359266D01*
X83643598Y-58381641D01*
X83646541Y-58385034D01*
X83648260Y-58389184D01*
X83663805Y-58408126D01*
X84164703Y-58909023D01*
X83692670Y-58909023D01*
X83668284Y-58911425D01*
X83623224Y-58930089D01*
X83588736Y-58964577D01*
X83570072Y-59009637D01*
X83570072Y-59058409D01*
X83588736Y-59103469D01*
X83623224Y-59137957D01*
X83668284Y-59156621D01*
X83692670Y-59159023D01*
X84466479Y-59159023D01*
X84490865Y-59156621D01*
X84490866Y-59156621D01*
X84504063Y-59151154D01*
X84535925Y-59137957D01*
X84570413Y-59103469D01*
X84589077Y-59058409D01*
X84589077Y-59009637D01*
X84760548Y-59009637D01*
X84760548Y-59058409D01*
X84779212Y-59103469D01*
X84813700Y-59137957D01*
X84858760Y-59156621D01*
X84883146Y-59159023D01*
X85597431Y-59159023D01*
X85621817Y-59156621D01*
X85666877Y-59137957D01*
X85701365Y-59103469D01*
X85720029Y-59058409D01*
X85720029Y-59009637D01*
X85701365Y-58964577D01*
X85666877Y-58930089D01*
X85621817Y-58911425D01*
X85597431Y-58909023D01*
X85365288Y-58909023D01*
X85365288Y-58145323D01*
X85389996Y-58170031D01*
X85399584Y-58177899D01*
X85401745Y-58180391D01*
X85405501Y-58182755D01*
X85408938Y-58185576D01*
X85411989Y-58186840D01*
X85422482Y-58193445D01*
X85541529Y-58252969D01*
X85564415Y-58261727D01*
X85613064Y-58265185D01*
X85659335Y-58249761D01*
X85696180Y-58217805D01*
X85717992Y-58174182D01*
X85721450Y-58125533D01*
X85706026Y-58079262D01*
X85674070Y-58042417D01*
X85653333Y-58029363D01*
X85552428Y-57978910D01*
X85456474Y-57882956D01*
X85344294Y-57714685D01*
X85344238Y-57714617D01*
X85344222Y-57714577D01*
X85344131Y-57714486D01*
X85328769Y-57695727D01*
X85318484Y-57688839D01*
X85309734Y-57680089D01*
X85298421Y-57675403D01*
X85288245Y-57668588D01*
X85276106Y-57666160D01*
X85264674Y-57661425D01*
X85252429Y-57661425D01*
X85240418Y-57659023D01*
X85228276Y-57661425D01*
X85215902Y-57661425D01*
X85204588Y-57666110D01*
X85192573Y-57668488D01*
X85182274Y-57675353D01*
X85170842Y-57680089D01*
X85162183Y-57688748D01*
X85151992Y-57695542D01*
X85145104Y-57705826D01*
X85136354Y-57714577D01*
X85131668Y-57725889D01*
X85124853Y-57736066D01*
X85122425Y-57748204D01*
X85117690Y-57759637D01*
X85115313Y-57783766D01*
X85115288Y-57783893D01*
X85115296Y-57783936D01*
X85115288Y-57784023D01*
X85115288Y-58909023D01*
X84883146Y-58909023D01*
X84858760Y-58911425D01*
X84813700Y-58930089D01*
X84779212Y-58964577D01*
X84760548Y-59009637D01*
X84589077Y-59009637D01*
X84587185Y-59005070D01*
X84575509Y-58976880D01*
X84570413Y-58964577D01*
X84570412Y-58964576D01*
X84554867Y-58945634D01*
X83861448Y-58252217D01*
X83817670Y-58120880D01*
X83817670Y-58051627D01*
X83854926Y-57977114D01*
X83885762Y-57946278D01*
X83960273Y-57909023D01*
X84198876Y-57909023D01*
X84273386Y-57946278D01*
X84318567Y-57991460D01*
X84337509Y-58007005D01*
X84382569Y-58025669D01*
X84431342Y-58025669D01*
X84476402Y-58007005D01*
X84510889Y-57972518D01*
X84529553Y-57927458D01*
X84529553Y-57878685D01*
X84510889Y-57833625D01*
X84495344Y-57814683D01*
X84435819Y-57755159D01*
X84426233Y-57747292D01*
X84424070Y-57744798D01*
X84420308Y-57742430D01*
X84416877Y-57739614D01*
X84413829Y-57738351D01*
X84403333Y-57731744D01*
X84284286Y-57672220D01*
X84261400Y-57663462D01*
X84256918Y-57663143D01*
X84252770Y-57661425D01*
X84228384Y-57659023D01*
X83930765Y-57659023D01*
X83906379Y-57661425D01*
X83902230Y-57663143D01*
X83897749Y-57663462D01*
X83874864Y-57672219D01*
X83755815Y-57731744D01*
X83745322Y-57738349D01*
X83742271Y-57739613D01*
X83738834Y-57742433D01*
X83735078Y-57744798D01*
X83732917Y-57747289D01*
X83723329Y-57755158D01*
X83663805Y-57814683D01*
X83655938Y-57824268D01*
X83653443Y-57826433D01*
X83651074Y-57830195D01*
X83648260Y-57833625D01*
X83646998Y-57836670D01*
X83640389Y-57847170D01*
X83580866Y-57966218D01*
X83572109Y-57989104D01*
X83571790Y-57993583D01*
X83570072Y-57997733D01*
X83567670Y-58022119D01*
X83387923Y-58022119D01*
X83454112Y-57823551D01*
X83459545Y-57799657D01*
X83456088Y-57751007D01*
X83434276Y-57707383D01*
X83397431Y-57675428D01*
X83351161Y-57660005D01*
X83302512Y-57663462D01*
X83258887Y-57685274D01*
X83226932Y-57722119D01*
X83216942Y-57744494D01*
X82918860Y-58638739D01*
X82620779Y-57744495D01*
X82610789Y-57722120D01*
X82578834Y-57685274D01*
X82535210Y-57663462D01*
X82486560Y-57660005D01*
X82440291Y-57675428D01*
X82403445Y-57707383D01*
X82381633Y-57751007D01*
X82378176Y-57799657D01*
X81393005Y-57799657D01*
X81296675Y-57655162D01*
X81281150Y-57636204D01*
X81240626Y-57609065D01*
X81192799Y-57599500D01*
X81144954Y-57608965D01*
X81104373Y-57636019D01*
X81077234Y-57676543D01*
X81067669Y-57724370D01*
X80817156Y-57724370D01*
X80712857Y-57672220D01*
X80689971Y-57663462D01*
X80685489Y-57663143D01*
X80681341Y-57661425D01*
X80656955Y-57659023D01*
X80359336Y-57659023D01*
X80334950Y-57661425D01*
X80330801Y-57663143D01*
X80326320Y-57663462D01*
X80303435Y-57672219D01*
X80184386Y-57731744D01*
X80173893Y-57738349D01*
X80170842Y-57739613D01*
X80167405Y-57742433D01*
X80163649Y-57744798D01*
X80161488Y-57747289D01*
X80151900Y-57755158D01*
X80092376Y-57814683D01*
X80084509Y-57824268D01*
X80082014Y-57826433D01*
X80079645Y-57830195D01*
X80076831Y-57833625D01*
X80075569Y-57836670D01*
X80068960Y-57847170D01*
X80009437Y-57966218D01*
X80000680Y-57989104D01*
X80000361Y-57993583D01*
X79998643Y-57997733D01*
X79996241Y-58022119D01*
X79714373Y-58022119D01*
X79706794Y-57991802D01*
X79706150Y-57990001D01*
X79706087Y-57989104D01*
X79702203Y-57978953D01*
X79698549Y-57968727D01*
X79698013Y-57968004D01*
X79697330Y-57966218D01*
X79637807Y-57847170D01*
X79631200Y-57836674D01*
X79629937Y-57833625D01*
X79627118Y-57830190D01*
X79624753Y-57826433D01*
X79622261Y-57824271D01*
X79614392Y-57814683D01*
X79554867Y-57755159D01*
X79545281Y-57747292D01*
X79543118Y-57744798D01*
X79539356Y-57742430D01*
X79535925Y-57739614D01*
X79532877Y-57738351D01*
X79522381Y-57731744D01*
X79403333Y-57672220D01*
X79380447Y-57663462D01*
X79375965Y-57663143D01*
X79371817Y-57661425D01*
X79347431Y-57659023D01*
X79228384Y-57659023D01*
X79203998Y-57661425D01*
X79199849Y-57663143D01*
X79195368Y-57663462D01*
X79172483Y-57672219D01*
X79053434Y-57731744D01*
X79042941Y-57738349D01*
X79039890Y-57739613D01*
X79036453Y-57742433D01*
X79032697Y-57744798D01*
X79030536Y-57747289D01*
X79020948Y-57755158D01*
X78961424Y-57814683D01*
X78953557Y-57824268D01*
X78951063Y-57826432D01*
X78948695Y-57830193D01*
X78945879Y-57833625D01*
X78944616Y-57836672D01*
X78938009Y-57847169D01*
X78878485Y-57966217D01*
X78877801Y-57968002D01*
X78877265Y-57968727D01*
X78873609Y-57978956D01*
X78869727Y-57989103D01*
X78869663Y-57990002D01*
X78869020Y-57991802D01*
X78809497Y-58229897D01*
X78808871Y-58234126D01*
X78808167Y-58235828D01*
X78807262Y-58245009D01*
X78805913Y-58254138D01*
X78806184Y-58255959D01*
X78805765Y-58260214D01*
X78529214Y-58260214D01*
X78635699Y-57812976D01*
X78639010Y-57788697D01*
X78631291Y-57740539D01*
X78605729Y-57699001D01*
X78566217Y-57670408D01*
X78518771Y-57659111D01*
X78470614Y-57666831D01*
X78429075Y-57692393D01*
X78400482Y-57731904D01*
X78392497Y-57755071D01*
X78209617Y-58523163D01*
X78099163Y-58108958D01*
X78097021Y-58103246D01*
X78096702Y-58100845D01*
X78095051Y-58097994D01*
X78090559Y-58086014D01*
X78080530Y-58072912D01*
X78072265Y-58058635D01*
X78065835Y-58053714D01*
X78060915Y-58047285D01*
X78046637Y-58039019D01*
X78033536Y-58028991D01*
X78025711Y-58026904D01*
X78018705Y-58022848D01*
X78002351Y-58020675D01*
X77986410Y-58016424D01*
X77978384Y-58017490D01*
X77970358Y-58016424D01*
X77954416Y-58020675D01*
X77938063Y-58022848D01*
X77931056Y-58026904D01*
X77923232Y-58028991D01*
X77910130Y-58039019D01*
X77895853Y-58047285D01*
X77890932Y-58053714D01*
X77884503Y-58058635D01*
X77876237Y-58072912D01*
X77866209Y-58086014D01*
X77861716Y-58097994D01*
X77860066Y-58100845D01*
X77859746Y-58103246D01*
X77857605Y-58108958D01*
X77747150Y-58523163D01*
X77564271Y-57755070D01*
X77556286Y-57731904D01*
X77527693Y-57692392D01*
X77486154Y-57666830D01*
X77437997Y-57659111D01*
X77390551Y-57670407D01*
X77351039Y-57699000D01*
X77325477Y-57740539D01*
X77317758Y-57788696D01*
X77178869Y-57788696D01*
X77178869Y-57460611D01*
X85860339Y-57460611D01*
X85860339Y-59595531D01*
G37*
D11*
X85450000Y-95700000D02*
X125430000Y-95700000D01*
X125430000Y-135690000D01*
X85450000Y-135690000D01*
X85450000Y-95700000D01*
D12*
G36*
X97944870Y-93996127D02*
G01*
X98032798Y-94108478D01*
X98228192Y-94150000D01*
X98382065Y-93950942D01*
X98435188Y-93699066D01*
X98451789Y-93442439D01*
X98452896Y-93343998D01*
X98452896Y-93088300D01*
X98452896Y-92816562D01*
X98452896Y-92528784D01*
X98452896Y-92224965D01*
X98452896Y-91970361D01*
X98452896Y-91705491D01*
X98452896Y-91430355D01*
X98452896Y-91158731D01*
X98452896Y-90904394D01*
X98452896Y-90610783D01*
X98452896Y-90344186D01*
X98452896Y-90059924D01*
X98452896Y-89814560D01*
X98452896Y-89741416D01*
X98423796Y-89497937D01*
X98378401Y-89362840D01*
X98191522Y-89195400D01*
X98114619Y-89186985D01*
X98041346Y-89246824D01*
X98023028Y-89473970D01*
X98026692Y-89520376D01*
X98030355Y-89657152D01*
X98052835Y-90001885D01*
X98073103Y-90345030D01*
X98091160Y-90686586D01*
X98107006Y-91026553D01*
X98120641Y-91364932D01*
X98132064Y-91701723D01*
X98141277Y-92036924D01*
X98148279Y-92370538D01*
X98153070Y-92702562D01*
X98155649Y-93032999D01*
X98156140Y-93252407D01*
X98126500Y-93499082D01*
X98051116Y-93729902D01*
X97957425Y-93958057D01*
X97944870Y-93996127D01*
G37*
G36*
X96782274Y-89747522D02*
G01*
X97010642Y-89851325D01*
X97240006Y-89760785D01*
X97247557Y-89754849D01*
X97368457Y-89594870D01*
X97296406Y-89451988D01*
X97147418Y-89382379D01*
X97096127Y-89399476D01*
X96975226Y-89492288D01*
X96851884Y-89637613D01*
X96782274Y-89747522D01*
G37*
G36*
X96586880Y-94170760D02*
G01*
X96651605Y-94279448D01*
X96793265Y-94311200D01*
X96920745Y-94085285D01*
X96936147Y-93996127D01*
X96964746Y-93748115D01*
X96988140Y-93471739D01*
X97005986Y-93218976D01*
X97024089Y-92927230D01*
X97030181Y-92821318D01*
X97042177Y-92573036D01*
X97053589Y-92327208D01*
X97065916Y-92049268D01*
X97077479Y-91774533D01*
X97080251Y-91706350D01*
X97089715Y-91449590D01*
X97098173Y-91197957D01*
X97105362Y-90943931D01*
X97107117Y-90866154D01*
X97082693Y-90750139D01*
X96988660Y-90711060D01*
X96785938Y-90845394D01*
X96750250Y-91090431D01*
X96743237Y-91334807D01*
X96743196Y-91358304D01*
X96743196Y-92187508D01*
X96741693Y-92444121D01*
X96736141Y-92718432D01*
X96726499Y-92965746D01*
X96710471Y-93215332D01*
X96700453Y-93326901D01*
X96664733Y-93588623D01*
X96636950Y-93777529D01*
X96599398Y-94023604D01*
X96586880Y-94170760D01*
G37*
G36*
X92600837Y-91211758D02*
G01*
X92700976Y-91393719D01*
X92938655Y-91472029D01*
X93057571Y-91491416D01*
X93305778Y-91535419D01*
X93547278Y-91578428D01*
X93760990Y-91617201D01*
X94203070Y-91694138D01*
X94203070Y-91950198D01*
X94203070Y-92214628D01*
X94203070Y-92462281D01*
X94203070Y-92726121D01*
X94203070Y-92987613D01*
X94203070Y-93165701D01*
X94194845Y-93423755D01*
X94163915Y-93671055D01*
X94133461Y-93792184D01*
X94060013Y-94025440D01*
X94056524Y-94038869D01*
X94137124Y-94168318D01*
X94258025Y-94228157D01*
X94330076Y-94203733D01*
X94381367Y-94124354D01*
X94444107Y-93882554D01*
X94464410Y-93760432D01*
X94492460Y-93499648D01*
X94502878Y-93253666D01*
X94503489Y-93174249D01*
X94531163Y-92923369D01*
X94544186Y-92663880D01*
X94546231Y-92500139D01*
X94546231Y-92237861D01*
X94546231Y-91981643D01*
X94546231Y-91753977D01*
X94796318Y-91798938D01*
X95050459Y-91849862D01*
X95308655Y-91906748D01*
X95360781Y-91918841D01*
X95615212Y-91971817D01*
X95806524Y-92000662D01*
X95966503Y-91949371D01*
X96039776Y-91806489D01*
X95978715Y-91679483D01*
X95772330Y-91648953D01*
X95518680Y-91619968D01*
X95470690Y-91611095D01*
X95228248Y-91561327D01*
X95216678Y-91558583D01*
X94958553Y-91508184D01*
X94709285Y-91460851D01*
X94593859Y-91440125D01*
X94593859Y-91195334D01*
X94593859Y-91055443D01*
X94593859Y-90803028D01*
X94593859Y-90565736D01*
X94589378Y-90310850D01*
X94577983Y-90143196D01*
X94523753Y-89903704D01*
X94512037Y-89873307D01*
X94305652Y-89734089D01*
X94223831Y-89754849D01*
X94203070Y-89833007D01*
X94227494Y-90076029D01*
X94245599Y-90328988D01*
X94250675Y-90593725D01*
X94250697Y-90614584D01*
X94250697Y-90870986D01*
X94250697Y-91115339D01*
X94250697Y-91194661D01*
X94250697Y-91383949D01*
X93995435Y-91337796D01*
X93745508Y-91286897D01*
X93484588Y-91231084D01*
X93234227Y-91175980D01*
X93012386Y-91126273D01*
X92918353Y-91028576D01*
X92837752Y-90945533D01*
X92681437Y-91033461D01*
X92600837Y-91211758D01*
G37*
G36*
X90713727Y-90723124D02*
G01*
X90953316Y-90786462D01*
X91188655Y-90904088D01*
X91394277Y-91054221D01*
X91444657Y-91097894D01*
X91634060Y-91288136D01*
X91804076Y-91503261D01*
X91936936Y-91711906D01*
X92054954Y-91939602D01*
X92085566Y-92007417D01*
X92177153Y-92245373D01*
X92244548Y-92484263D01*
X92291946Y-92758426D01*
X92307745Y-93033810D01*
X92300351Y-93210301D01*
X92257762Y-93461681D01*
X92164596Y-93698866D01*
X92004884Y-93905757D01*
X91966302Y-93940065D01*
X91756215Y-94078406D01*
X91517505Y-94161410D01*
X91250174Y-94189078D01*
X90986163Y-94166333D01*
X90743675Y-94098098D01*
X90522712Y-93984372D01*
X90323272Y-93825157D01*
X90188462Y-93686496D01*
X90029551Y-93494804D01*
X89879242Y-93269844D01*
X89759071Y-93035031D01*
X89736446Y-92982929D01*
X89638096Y-92738321D01*
X89572226Y-92483042D01*
X89622295Y-92378018D01*
X89687020Y-92459839D01*
X89737090Y-92568527D01*
X89858524Y-92806664D01*
X89994460Y-93032588D01*
X90144899Y-93246301D01*
X90309839Y-93447801D01*
X90470023Y-93599596D01*
X90705512Y-93739977D01*
X90942733Y-93813021D01*
X91206210Y-93837369D01*
X91316203Y-93831793D01*
X91563673Y-93765112D01*
X91767969Y-93609002D01*
X91863012Y-93465272D01*
X91941351Y-93228251D01*
X91964584Y-92965422D01*
X91960494Y-92827886D01*
X91931192Y-92568432D01*
X91879099Y-92324284D01*
X91730186Y-92297415D01*
X91465599Y-92236729D01*
X91205455Y-92160200D01*
X90949755Y-92067829D01*
X90893937Y-92045175D01*
X90659167Y-91937917D01*
X90429808Y-91808544D01*
X90215806Y-91653838D01*
X90165173Y-91609516D01*
X90003314Y-91414480D01*
X89960185Y-91264270D01*
X90275645Y-91264270D01*
X90329312Y-91385575D01*
X90519888Y-91556140D01*
X90666451Y-91653524D01*
X90890420Y-91776456D01*
X91124389Y-91882205D01*
X91324233Y-91957027D01*
X91560878Y-92024075D01*
X91809490Y-92066608D01*
X91724501Y-91847993D01*
X91594556Y-91628192D01*
X91551757Y-91567036D01*
X91381822Y-91370721D01*
X91180565Y-91201988D01*
X91133911Y-91170125D01*
X90911650Y-91062868D01*
X90665212Y-91023691D01*
X90636465Y-91024249D01*
X90392882Y-91087194D01*
X90275645Y-91264270D01*
X89960185Y-91264270D01*
X89932484Y-91167794D01*
X89953696Y-91028095D01*
X90112002Y-90829518D01*
X90298011Y-90744492D01*
X90551639Y-90711060D01*
X90713727Y-90723124D01*
G37*
D10*
X124803428Y-90521615D02*
X123303428Y-90521615D01*
X123303428Y-90521615D02*
X123303428Y-90878758D01*
X123303428Y-90878758D02*
X123374857Y-91093044D01*
X123374857Y-91093044D02*
X123517714Y-91235901D01*
X123517714Y-91235901D02*
X123660571Y-91307330D01*
X123660571Y-91307330D02*
X123946285Y-91378758D01*
X123946285Y-91378758D02*
X124160571Y-91378758D01*
X124160571Y-91378758D02*
X124446285Y-91307330D01*
X124446285Y-91307330D02*
X124589142Y-91235901D01*
X124589142Y-91235901D02*
X124732000Y-91093044D01*
X124732000Y-91093044D02*
X124803428Y-90878758D01*
X124803428Y-90878758D02*
X124803428Y-90521615D01*
X124803428Y-92664473D02*
X124017714Y-92664473D01*
X124017714Y-92664473D02*
X123874857Y-92593044D01*
X123874857Y-92593044D02*
X123803428Y-92450187D01*
X123803428Y-92450187D02*
X123803428Y-92164473D01*
X123803428Y-92164473D02*
X123874857Y-92021615D01*
X124732000Y-92664473D02*
X124803428Y-92521615D01*
X124803428Y-92521615D02*
X124803428Y-92164473D01*
X124803428Y-92164473D02*
X124732000Y-92021615D01*
X124732000Y-92021615D02*
X124589142Y-91950187D01*
X124589142Y-91950187D02*
X124446285Y-91950187D01*
X124446285Y-91950187D02*
X124303428Y-92021615D01*
X124303428Y-92021615D02*
X124232000Y-92164473D01*
X124232000Y-92164473D02*
X124232000Y-92521615D01*
X124232000Y-92521615D02*
X124160571Y-92664473D01*
X123803428Y-93164473D02*
X123803428Y-93735901D01*
X123303428Y-93378758D02*
X124589142Y-93378758D01*
X124589142Y-93378758D02*
X124732000Y-93450187D01*
X124732000Y-93450187D02*
X124803428Y-93593044D01*
X124803428Y-93593044D02*
X124803428Y-93735901D01*
X124803428Y-94878759D02*
X124017714Y-94878759D01*
X124017714Y-94878759D02*
X123874857Y-94807330D01*
X123874857Y-94807330D02*
X123803428Y-94664473D01*
X123803428Y-94664473D02*
X123803428Y-94378759D01*
X123803428Y-94378759D02*
X123874857Y-94235901D01*
X124732000Y-94878759D02*
X124803428Y-94735901D01*
X124803428Y-94735901D02*
X124803428Y-94378759D01*
X124803428Y-94378759D02*
X124732000Y-94235901D01*
X124732000Y-94235901D02*
X124589142Y-94164473D01*
X124589142Y-94164473D02*
X124446285Y-94164473D01*
X124446285Y-94164473D02*
X124303428Y-94235901D01*
X124303428Y-94235901D02*
X124232000Y-94378759D01*
X124232000Y-94378759D02*
X124232000Y-94735901D01*
X124232000Y-94735901D02*
X124160571Y-94878759D01*
G36*
X86427645Y-65185878D02*
G01*
X86451960Y-65210193D01*
X86495738Y-65341526D01*
X86495738Y-65612907D01*
X86090976Y-65612907D01*
X86090976Y-65291225D01*
X86128232Y-65216712D01*
X86159068Y-65185877D01*
X86233579Y-65148622D01*
X86353134Y-65148622D01*
X86427645Y-65185878D01*
G37*
G36*
X87022884Y-65245402D02*
G01*
X87053720Y-65276238D01*
X87090976Y-65350749D01*
X87090976Y-65612907D01*
X86745738Y-65612907D01*
X86745738Y-65350749D01*
X86782994Y-65276236D01*
X86813829Y-65245401D01*
X86888342Y-65208146D01*
X86948371Y-65208146D01*
X87022884Y-65245402D01*
G37*
G36*
X87022883Y-62983497D02*
G01*
X87053721Y-63014334D01*
X87090976Y-63088844D01*
X87090976Y-63410526D01*
X86686214Y-63410526D01*
X86686214Y-63088844D01*
X86723470Y-63014331D01*
X86754306Y-62983496D01*
X86828817Y-62946241D01*
X86948372Y-62946241D01*
X87022883Y-62983497D01*
G37*
G36*
X86874728Y-61748705D02*
G01*
X86963360Y-61793020D01*
X87047198Y-61876859D01*
X87090976Y-62008190D01*
X87090976Y-62160526D01*
X86090976Y-62160526D01*
X86090976Y-62008191D01*
X86134753Y-61876859D01*
X86218591Y-61793020D01*
X86307223Y-61748705D01*
X86517079Y-61696241D01*
X86664872Y-61696241D01*
X86874728Y-61748705D01*
G37*
G36*
X87479865Y-68501796D02*
G01*
X85702087Y-68501796D01*
X85702087Y-67761717D01*
X85840976Y-67761717D01*
X85840976Y-67999812D01*
X85843378Y-68024198D01*
X85845096Y-68028346D01*
X85845415Y-68032828D01*
X85854173Y-68055714D01*
X85913697Y-68174762D01*
X85920303Y-68185256D01*
X85921566Y-68188305D01*
X85924384Y-68191739D01*
X85926751Y-68195499D01*
X85929243Y-68197660D01*
X85937111Y-68207248D01*
X85996634Y-68266772D01*
X86006223Y-68274641D01*
X86008385Y-68277134D01*
X86012143Y-68279499D01*
X86015576Y-68282317D01*
X86018624Y-68283579D01*
X86029122Y-68290188D01*
X86148170Y-68349711D01*
X86171056Y-68358468D01*
X86175535Y-68358786D01*
X86179685Y-68360505D01*
X86204071Y-68362907D01*
X87215976Y-68362907D01*
X87240362Y-68360505D01*
X87285422Y-68341841D01*
X87319910Y-68307353D01*
X87338574Y-68262293D01*
X87338574Y-68213521D01*
X87319910Y-68168461D01*
X87285422Y-68133973D01*
X87240362Y-68115309D01*
X87215976Y-68112907D01*
X86233580Y-68112907D01*
X86159068Y-68075651D01*
X86128232Y-68044815D01*
X86090976Y-67970303D01*
X86090976Y-67791225D01*
X86128232Y-67716712D01*
X86159068Y-67685877D01*
X86233579Y-67648622D01*
X87215976Y-67648622D01*
X87240362Y-67646220D01*
X87285422Y-67627556D01*
X87319910Y-67593068D01*
X87338574Y-67548008D01*
X87338574Y-67499236D01*
X87319910Y-67454176D01*
X87285422Y-67419688D01*
X87240362Y-67401024D01*
X87215976Y-67398622D01*
X86204071Y-67398622D01*
X86179685Y-67401024D01*
X86175536Y-67402742D01*
X86171055Y-67403061D01*
X86148170Y-67411818D01*
X86029121Y-67471343D01*
X86018626Y-67477949D01*
X86015576Y-67479213D01*
X86012141Y-67482031D01*
X86008384Y-67484397D01*
X86006222Y-67486888D01*
X85996634Y-67494758D01*
X85937112Y-67554281D01*
X85929245Y-67563866D01*
X85926751Y-67566030D01*
X85924383Y-67569791D01*
X85921567Y-67573223D01*
X85920304Y-67576270D01*
X85913697Y-67586767D01*
X85854173Y-67705815D01*
X85845415Y-67728701D01*
X85845096Y-67733182D01*
X85843378Y-67737331D01*
X85840976Y-67761717D01*
X85702087Y-67761717D01*
X85702087Y-66511717D01*
X85840976Y-66511717D01*
X85840976Y-66809336D01*
X85842191Y-66821679D01*
X85841958Y-66824971D01*
X85842942Y-66829300D01*
X85843378Y-66833722D01*
X85844641Y-66836771D01*
X85847391Y-66848865D01*
X85906915Y-67027435D01*
X85916905Y-67049810D01*
X85948860Y-67086656D01*
X85992485Y-67108468D01*
X86041134Y-67111925D01*
X86087404Y-67096502D01*
X86124249Y-67064546D01*
X86146061Y-67020922D01*
X86149518Y-66972272D01*
X86144085Y-66948378D01*
X86090976Y-66789051D01*
X86090976Y-66541225D01*
X86128232Y-66466713D01*
X86159068Y-66435877D01*
X86233580Y-66398622D01*
X86293610Y-66398622D01*
X86368121Y-66435877D01*
X86398958Y-66466714D01*
X86443273Y-66555344D01*
X86499470Y-66780129D01*
X86500113Y-66781929D01*
X86500177Y-66782827D01*
X86504057Y-66792969D01*
X86507715Y-66803205D01*
X86508251Y-66803928D01*
X86508934Y-66805713D01*
X86568457Y-66924761D01*
X86575065Y-66935258D01*
X86576328Y-66938307D01*
X86579145Y-66941739D01*
X86581511Y-66945498D01*
X86584003Y-66947659D01*
X86591873Y-66957249D01*
X86651397Y-67016772D01*
X86660984Y-67024639D01*
X86663146Y-67027132D01*
X86666905Y-67029498D01*
X86670340Y-67032317D01*
X86673388Y-67033579D01*
X86683883Y-67040186D01*
X86802932Y-67099711D01*
X86825817Y-67108468D01*
X86830298Y-67108786D01*
X86834447Y-67110505D01*
X86858833Y-67112907D01*
X86977880Y-67112907D01*
X87002266Y-67110505D01*
X87006414Y-67108786D01*
X87010896Y-67108468D01*
X87033782Y-67099710D01*
X87152830Y-67040186D01*
X87163324Y-67033579D01*
X87166373Y-67032317D01*
X87169807Y-67029498D01*
X87173567Y-67027132D01*
X87175728Y-67024639D01*
X87185316Y-67016772D01*
X87244840Y-66957249D01*
X87252709Y-66947660D01*
X87255201Y-66945499D01*
X87257566Y-66941741D01*
X87260385Y-66938307D01*
X87261648Y-66935256D01*
X87268255Y-66924762D01*
X87327780Y-66805713D01*
X87336537Y-66782828D01*
X87336855Y-66778346D01*
X87338574Y-66774198D01*
X87340976Y-66749812D01*
X87340976Y-66452193D01*
X87339760Y-66439849D01*
X87339994Y-66436558D01*
X87339009Y-66432228D01*
X87338574Y-66427807D01*
X87337310Y-66424757D01*
X87334561Y-66412664D01*
X87275037Y-66234093D01*
X87265047Y-66211718D01*
X87233092Y-66174873D01*
X87189467Y-66153061D01*
X87140817Y-66149604D01*
X87094548Y-66165027D01*
X87057703Y-66196982D01*
X87035891Y-66240607D01*
X87032434Y-66289257D01*
X87037867Y-66313151D01*
X87090976Y-66472476D01*
X87090976Y-66720304D01*
X87053721Y-66794813D01*
X87022883Y-66825650D01*
X86948372Y-66862907D01*
X86888341Y-66862907D01*
X86813830Y-66825651D01*
X86782993Y-66794814D01*
X86738678Y-66706183D01*
X86682482Y-66481400D01*
X86681838Y-66479600D01*
X86681775Y-66478701D01*
X86677888Y-66468543D01*
X86674237Y-66458325D01*
X86673701Y-66457602D01*
X86673018Y-66455816D01*
X86613493Y-66336767D01*
X86606887Y-66326274D01*
X86605624Y-66323223D01*
X86602803Y-66319786D01*
X86600439Y-66316030D01*
X86597947Y-66313869D01*
X86590079Y-66304281D01*
X86530554Y-66244757D01*
X86520968Y-66236890D01*
X86518804Y-66234395D01*
X86515041Y-66232026D01*
X86511612Y-66229212D01*
X86508566Y-66227950D01*
X86498067Y-66221341D01*
X86379020Y-66161818D01*
X86356135Y-66153061D01*
X86351653Y-66152742D01*
X86347505Y-66151024D01*
X86323119Y-66148622D01*
X86204071Y-66148622D01*
X86179685Y-66151024D01*
X86175535Y-66152742D01*
X86171056Y-66153061D01*
X86148170Y-66161818D01*
X86029122Y-66221341D01*
X86018624Y-66227949D01*
X86015576Y-66229212D01*
X86012143Y-66232029D01*
X86008385Y-66234395D01*
X86006223Y-66236887D01*
X85996634Y-66244757D01*
X85937111Y-66304281D01*
X85929243Y-66313868D01*
X85926751Y-66316030D01*
X85924384Y-66319789D01*
X85921566Y-66323224D01*
X85920303Y-66326272D01*
X85913697Y-66336767D01*
X85854173Y-66455815D01*
X85845415Y-66478701D01*
X85845096Y-66483182D01*
X85843378Y-66487331D01*
X85840976Y-66511717D01*
X85702087Y-66511717D01*
X85702087Y-65261717D01*
X85840976Y-65261717D01*
X85840976Y-65737907D01*
X85843378Y-65762293D01*
X85862042Y-65807353D01*
X85896530Y-65841841D01*
X85941590Y-65860505D01*
X85965976Y-65862907D01*
X87215976Y-65862907D01*
X87240362Y-65860505D01*
X87285422Y-65841841D01*
X87319910Y-65807353D01*
X87338574Y-65762293D01*
X87340976Y-65737907D01*
X87340976Y-65321241D01*
X87338574Y-65296855D01*
X87336855Y-65292706D01*
X87336537Y-65288225D01*
X87327780Y-65265340D01*
X87268255Y-65146291D01*
X87261649Y-65135798D01*
X87260386Y-65132747D01*
X87257565Y-65129310D01*
X87255201Y-65125554D01*
X87252709Y-65123393D01*
X87244841Y-65113805D01*
X87185316Y-65054281D01*
X87175730Y-65046414D01*
X87173566Y-65043919D01*
X87169803Y-65041550D01*
X87166374Y-65038736D01*
X87163328Y-65037474D01*
X87152829Y-65030865D01*
X87033781Y-64971342D01*
X87010895Y-64962585D01*
X87006415Y-64962266D01*
X87002266Y-64960548D01*
X86977880Y-64958146D01*
X86858833Y-64958146D01*
X86834447Y-64960548D01*
X86830297Y-64962266D01*
X86825818Y-64962585D01*
X86802932Y-64971342D01*
X86683884Y-65030865D01*
X86673388Y-65037471D01*
X86670339Y-65038735D01*
X86666904Y-65041553D01*
X86663147Y-65043919D01*
X86660985Y-65046410D01*
X86651397Y-65054280D01*
X86650411Y-65055265D01*
X86649602Y-65054280D01*
X86590078Y-64994757D01*
X86580490Y-64986889D01*
X86578329Y-64984397D01*
X86574569Y-64982030D01*
X86571135Y-64979212D01*
X86568086Y-64977949D01*
X86557592Y-64971343D01*
X86438544Y-64911819D01*
X86415658Y-64903061D01*
X86411176Y-64902742D01*
X86407028Y-64901024D01*
X86382642Y-64898622D01*
X86204071Y-64898622D01*
X86179685Y-64901024D01*
X86175536Y-64902742D01*
X86171055Y-64903061D01*
X86148170Y-64911818D01*
X86029121Y-64971343D01*
X86018626Y-64977949D01*
X86015576Y-64979213D01*
X86012141Y-64982031D01*
X86008384Y-64984397D01*
X86006222Y-64986888D01*
X85996634Y-64994758D01*
X85937112Y-65054281D01*
X85929245Y-65063866D01*
X85926751Y-65066030D01*
X85924383Y-65069791D01*
X85921567Y-65073223D01*
X85920304Y-65076270D01*
X85913697Y-65086767D01*
X85854173Y-65205815D01*
X85845415Y-65228701D01*
X85845096Y-65233182D01*
X85843378Y-65237331D01*
X85840976Y-65261717D01*
X85702087Y-65261717D01*
X85702087Y-63511140D01*
X85843378Y-63511140D01*
X85843378Y-63559912D01*
X85862042Y-63604972D01*
X85896530Y-63639460D01*
X85941590Y-63658124D01*
X85965976Y-63660526D01*
X87215976Y-63660526D01*
X87240362Y-63658124D01*
X87285422Y-63639460D01*
X87319910Y-63604972D01*
X87338574Y-63559912D01*
X87340976Y-63535526D01*
X87340976Y-63059336D01*
X87338574Y-63034950D01*
X87336855Y-63030801D01*
X87336537Y-63026320D01*
X87327780Y-63003435D01*
X87268255Y-62884386D01*
X87261648Y-62873891D01*
X87260385Y-62870841D01*
X87257566Y-62867406D01*
X87255201Y-62863649D01*
X87252709Y-62861487D01*
X87244840Y-62851899D01*
X87185316Y-62792376D01*
X87175728Y-62784508D01*
X87173567Y-62782016D01*
X87169807Y-62779649D01*
X87166373Y-62776831D01*
X87163324Y-62775568D01*
X87152830Y-62768962D01*
X87033782Y-62709438D01*
X87010896Y-62700680D01*
X87006414Y-62700361D01*
X87002266Y-62698643D01*
X86977880Y-62696241D01*
X86799309Y-62696241D01*
X86774923Y-62698643D01*
X86770774Y-62700361D01*
X86766293Y-62700680D01*
X86743408Y-62709437D01*
X86624359Y-62768962D01*
X86613864Y-62775568D01*
X86610814Y-62776832D01*
X86607379Y-62779650D01*
X86603622Y-62782016D01*
X86601460Y-62784507D01*
X86591872Y-62792377D01*
X86532350Y-62851900D01*
X86524483Y-62861485D01*
X86521989Y-62863649D01*
X86519621Y-62867410D01*
X86516805Y-62870842D01*
X86515542Y-62873889D01*
X86508935Y-62884386D01*
X86449411Y-63003434D01*
X86440653Y-63026320D01*
X86440334Y-63030801D01*
X86438616Y-63034950D01*
X86436214Y-63059336D01*
X86436214Y-63410526D01*
X85965976Y-63410526D01*
X85941590Y-63412928D01*
X85896530Y-63431592D01*
X85862042Y-63466080D01*
X85843378Y-63511140D01*
X85702087Y-63511140D01*
X85702087Y-61987907D01*
X85840976Y-61987907D01*
X85840976Y-62285526D01*
X85843378Y-62309912D01*
X85862042Y-62354972D01*
X85896530Y-62389460D01*
X85941590Y-62408124D01*
X85965976Y-62410526D01*
X87215976Y-62410526D01*
X87240362Y-62408124D01*
X87285422Y-62389460D01*
X87319910Y-62354972D01*
X87338574Y-62309912D01*
X87340976Y-62285526D01*
X87340976Y-61987907D01*
X87339760Y-61975563D01*
X87339994Y-61972272D01*
X87339009Y-61967942D01*
X87338574Y-61963521D01*
X87337310Y-61960471D01*
X87334561Y-61948378D01*
X87275037Y-61769807D01*
X87265047Y-61747432D01*
X87262103Y-61744038D01*
X87260385Y-61739889D01*
X87244840Y-61720947D01*
X87125792Y-61601900D01*
X87116206Y-61594033D01*
X87114042Y-61591538D01*
X87110279Y-61589169D01*
X87106850Y-61586355D01*
X87103804Y-61585093D01*
X87093305Y-61578484D01*
X86974258Y-61518961D01*
X86972473Y-61518278D01*
X86971750Y-61517742D01*
X86961522Y-61514087D01*
X86951373Y-61510204D01*
X86950473Y-61510140D01*
X86948674Y-61509497D01*
X86710578Y-61449973D01*
X86706348Y-61449347D01*
X86704647Y-61448643D01*
X86695465Y-61447738D01*
X86686337Y-61446389D01*
X86684515Y-61446660D01*
X86680261Y-61446241D01*
X86501690Y-61446241D01*
X86497435Y-61446660D01*
X86495614Y-61446389D01*
X86486485Y-61447738D01*
X86477304Y-61448643D01*
X86475602Y-61449347D01*
X86471373Y-61449973D01*
X86233278Y-61509497D01*
X86231477Y-61510140D01*
X86230580Y-61510204D01*
X86220429Y-61514087D01*
X86210203Y-61517742D01*
X86209480Y-61518277D01*
X86207694Y-61518961D01*
X86088646Y-61578484D01*
X86078148Y-61585092D01*
X86075100Y-61586355D01*
X86071667Y-61589171D01*
X86067909Y-61591538D01*
X86065745Y-61594031D01*
X86056159Y-61601900D01*
X85937111Y-61720948D01*
X85921566Y-61739890D01*
X85919846Y-61744041D01*
X85916905Y-61747433D01*
X85906915Y-61769808D01*
X85847391Y-61948378D01*
X85844641Y-61960471D01*
X85843378Y-61963521D01*
X85842942Y-61967942D01*
X85841958Y-61972272D01*
X85842191Y-61975563D01*
X85840976Y-61987907D01*
X85702087Y-61987907D01*
X85702087Y-61307352D01*
X87479865Y-61307352D01*
X87479865Y-68501796D01*
G37*
D12*
X121283208Y-88346495D02*
X121283208Y-83346495D01*
X121283208Y-83346495D02*
X119616542Y-86917923D01*
X119616542Y-86917923D02*
X117949875Y-83346495D01*
X117949875Y-83346495D02*
X117949875Y-88346495D01*
X113426065Y-88346495D02*
X113426065Y-85727447D01*
X113426065Y-85727447D02*
X113664160Y-85251257D01*
X113664160Y-85251257D02*
X114140351Y-85013161D01*
X114140351Y-85013161D02*
X115092732Y-85013161D01*
X115092732Y-85013161D02*
X115568922Y-85251257D01*
X113426065Y-88108400D02*
X113902256Y-88346495D01*
X113902256Y-88346495D02*
X115092732Y-88346495D01*
X115092732Y-88346495D02*
X115568922Y-88108400D01*
X115568922Y-88108400D02*
X115807018Y-87632209D01*
X115807018Y-87632209D02*
X115807018Y-87156019D01*
X115807018Y-87156019D02*
X115568922Y-86679828D01*
X115568922Y-86679828D02*
X115092732Y-86441733D01*
X115092732Y-86441733D02*
X113902256Y-86441733D01*
X113902256Y-86441733D02*
X113426065Y-86203638D01*
X111045112Y-88346495D02*
X111045112Y-83346495D01*
X110568922Y-86441733D02*
X109140350Y-88346495D01*
X109140350Y-85013161D02*
X111045112Y-86917923D01*
X105092731Y-88108400D02*
X105568922Y-88346495D01*
X105568922Y-88346495D02*
X106521303Y-88346495D01*
X106521303Y-88346495D02*
X106997493Y-88108400D01*
X106997493Y-88108400D02*
X107235589Y-87632209D01*
X107235589Y-87632209D02*
X107235589Y-85727447D01*
X107235589Y-85727447D02*
X106997493Y-85251257D01*
X106997493Y-85251257D02*
X106521303Y-85013161D01*
X106521303Y-85013161D02*
X105568922Y-85013161D01*
X105568922Y-85013161D02*
X105092731Y-85251257D01*
X105092731Y-85251257D02*
X104854636Y-85727447D01*
X104854636Y-85727447D02*
X104854636Y-86203638D01*
X104854636Y-86203638D02*
X107235589Y-86679828D01*
X102711779Y-88346495D02*
X102711779Y-85013161D01*
X102711779Y-85965542D02*
X102473684Y-85489352D01*
X102473684Y-85489352D02*
X102235589Y-85251257D01*
X102235589Y-85251257D02*
X101759398Y-85013161D01*
X101759398Y-85013161D02*
X101283208Y-85013161D01*
X99854637Y-86917923D02*
X97473684Y-86917923D01*
X100330827Y-88346495D02*
X98664160Y-83346495D01*
X98664160Y-83346495D02*
X96997494Y-88346495D01*
X95807018Y-88346495D02*
X93187970Y-85013161D01*
X95807018Y-85013161D02*
X93187970Y-88346495D01*
X89378446Y-88108400D02*
X89854637Y-88346495D01*
X89854637Y-88346495D02*
X90807018Y-88346495D01*
X90807018Y-88346495D02*
X91283208Y-88108400D01*
X91283208Y-88108400D02*
X91521304Y-87632209D01*
X91521304Y-87632209D02*
X91521304Y-85727447D01*
X91521304Y-85727447D02*
X91283208Y-85251257D01*
X91283208Y-85251257D02*
X90807018Y-85013161D01*
X90807018Y-85013161D02*
X89854637Y-85013161D01*
X89854637Y-85013161D02*
X89378446Y-85251257D01*
X89378446Y-85251257D02*
X89140351Y-85727447D01*
X89140351Y-85727447D02*
X89140351Y-86203638D01*
X89140351Y-86203638D02*
X91521304Y-86679828D01*
D11*
X91663819Y-138827523D02*
X91663819Y-138351333D01*
X91663819Y-138351333D02*
X92140009Y-138303714D01*
X92140009Y-138303714D02*
X92092390Y-138351333D01*
X92092390Y-138351333D02*
X92044771Y-138446571D01*
X92044771Y-138446571D02*
X92044771Y-138684666D01*
X92044771Y-138684666D02*
X92092390Y-138779904D01*
X92092390Y-138779904D02*
X92140009Y-138827523D01*
X92140009Y-138827523D02*
X92235247Y-138875142D01*
X92235247Y-138875142D02*
X92473342Y-138875142D01*
X92473342Y-138875142D02*
X92568580Y-138827523D01*
X92568580Y-138827523D02*
X92616200Y-138779904D01*
X92616200Y-138779904D02*
X92663819Y-138684666D01*
X92663819Y-138684666D02*
X92663819Y-138446571D01*
X92663819Y-138446571D02*
X92616200Y-138351333D01*
X92616200Y-138351333D02*
X92568580Y-138303714D01*
X91663819Y-139160857D02*
X92663819Y-139494190D01*
X92663819Y-139494190D02*
X91663819Y-139827523D01*
X106026190Y-110517200D02*
X106883332Y-111802914D01*
X104978570Y-110660057D02*
X104930951Y-110612438D01*
X104930951Y-110612438D02*
X104835713Y-110564819D01*
X104835713Y-110564819D02*
X104597618Y-110564819D01*
X104597618Y-110564819D02*
X104502380Y-110612438D01*
X104502380Y-110612438D02*
X104454761Y-110660057D01*
X104454761Y-110660057D02*
X104407142Y-110755295D01*
X104407142Y-110755295D02*
X104407142Y-110850533D01*
X104407142Y-110850533D02*
X104454761Y-110993390D01*
X104454761Y-110993390D02*
X105026189Y-111564819D01*
X105026189Y-111564819D02*
X104407142Y-111564819D01*
X103454761Y-111564819D02*
X104026189Y-111564819D01*
X103740475Y-111564819D02*
X103740475Y-110564819D01*
X103740475Y-110564819D02*
X103835713Y-110707676D01*
X103835713Y-110707676D02*
X103930951Y-110802914D01*
X103930951Y-110802914D02*
X104026189Y-110850533D01*
X103026189Y-111564819D02*
X103026189Y-110564819D01*
X103026189Y-110564819D02*
X102692856Y-111279104D01*
X102692856Y-111279104D02*
X102359523Y-110564819D01*
X102359523Y-110564819D02*
X102359523Y-111564819D01*
D10*
X78196571Y-125478384D02*
X79696571Y-125478384D01*
X78196571Y-124835527D02*
X78982285Y-124835527D01*
X78982285Y-124835527D02*
X79125142Y-124906955D01*
X79125142Y-124906955D02*
X79196571Y-125049812D01*
X79196571Y-125049812D02*
X79196571Y-125264098D01*
X79196571Y-125264098D02*
X79125142Y-125406955D01*
X79125142Y-125406955D02*
X79053714Y-125478384D01*
X79196571Y-124335526D02*
X79196571Y-123764098D01*
X79696571Y-124121241D02*
X78410857Y-124121241D01*
X78410857Y-124121241D02*
X78268000Y-124049812D01*
X78268000Y-124049812D02*
X78196571Y-123906955D01*
X78196571Y-123906955D02*
X78196571Y-123764098D01*
X79196571Y-123478383D02*
X79196571Y-122906955D01*
X79696571Y-123264098D02*
X78410857Y-123264098D01*
X78410857Y-123264098D02*
X78268000Y-123192669D01*
X78268000Y-123192669D02*
X78196571Y-123049812D01*
X78196571Y-123049812D02*
X78196571Y-122906955D01*
X79196571Y-122406955D02*
X77696571Y-122406955D01*
X79125142Y-122406955D02*
X79196571Y-122264098D01*
X79196571Y-122264098D02*
X79196571Y-121978383D01*
X79196571Y-121978383D02*
X79125142Y-121835526D01*
X79125142Y-121835526D02*
X79053714Y-121764098D01*
X79053714Y-121764098D02*
X78910857Y-121692669D01*
X78910857Y-121692669D02*
X78482285Y-121692669D01*
X78482285Y-121692669D02*
X78339428Y-121764098D01*
X78339428Y-121764098D02*
X78268000Y-121835526D01*
X78268000Y-121835526D02*
X78196571Y-121978383D01*
X78196571Y-121978383D02*
X78196571Y-122264098D01*
X78196571Y-122264098D02*
X78268000Y-122406955D01*
X78268000Y-121121240D02*
X78196571Y-120978383D01*
X78196571Y-120978383D02*
X78196571Y-120692669D01*
X78196571Y-120692669D02*
X78268000Y-120549812D01*
X78268000Y-120549812D02*
X78410857Y-120478383D01*
X78410857Y-120478383D02*
X78482285Y-120478383D01*
X78482285Y-120478383D02*
X78625142Y-120549812D01*
X78625142Y-120549812D02*
X78696571Y-120692669D01*
X78696571Y-120692669D02*
X78696571Y-120906955D01*
X78696571Y-120906955D02*
X78768000Y-121049812D01*
X78768000Y-121049812D02*
X78910857Y-121121240D01*
X78910857Y-121121240D02*
X78982285Y-121121240D01*
X78982285Y-121121240D02*
X79125142Y-121049812D01*
X79125142Y-121049812D02*
X79196571Y-120906955D01*
X79196571Y-120906955D02*
X79196571Y-120692669D01*
X79196571Y-120692669D02*
X79125142Y-120549812D01*
X78339428Y-119835526D02*
X78268000Y-119764097D01*
X78268000Y-119764097D02*
X78196571Y-119835526D01*
X78196571Y-119835526D02*
X78268000Y-119906954D01*
X78268000Y-119906954D02*
X78339428Y-119835526D01*
X78339428Y-119835526D02*
X78196571Y-119835526D01*
X79125142Y-119835526D02*
X79053714Y-119764097D01*
X79053714Y-119764097D02*
X78982285Y-119835526D01*
X78982285Y-119835526D02*
X79053714Y-119906954D01*
X79053714Y-119906954D02*
X79125142Y-119835526D01*
X79125142Y-119835526D02*
X78982285Y-119835526D01*
X79768000Y-118049811D02*
X77839428Y-119335525D01*
X79768000Y-116478382D02*
X77839428Y-117764096D01*
X78196571Y-115978382D02*
X79196571Y-115978382D01*
X79053714Y-115978382D02*
X79125142Y-115906953D01*
X79125142Y-115906953D02*
X79196571Y-115764096D01*
X79196571Y-115764096D02*
X79196571Y-115549810D01*
X79196571Y-115549810D02*
X79125142Y-115406953D01*
X79125142Y-115406953D02*
X78982285Y-115335525D01*
X78982285Y-115335525D02*
X78196571Y-115335525D01*
X78982285Y-115335525D02*
X79125142Y-115264096D01*
X79125142Y-115264096D02*
X79196571Y-115121239D01*
X79196571Y-115121239D02*
X79196571Y-114906953D01*
X79196571Y-114906953D02*
X79125142Y-114764096D01*
X79125142Y-114764096D02*
X78982285Y-114692667D01*
X78982285Y-114692667D02*
X78196571Y-114692667D01*
X78196571Y-113335525D02*
X78982285Y-113335525D01*
X78982285Y-113335525D02*
X79125142Y-113406953D01*
X79125142Y-113406953D02*
X79196571Y-113549810D01*
X79196571Y-113549810D02*
X79196571Y-113835525D01*
X79196571Y-113835525D02*
X79125142Y-113978382D01*
X78268000Y-113335525D02*
X78196571Y-113478382D01*
X78196571Y-113478382D02*
X78196571Y-113835525D01*
X78196571Y-113835525D02*
X78268000Y-113978382D01*
X78268000Y-113978382D02*
X78410857Y-114049810D01*
X78410857Y-114049810D02*
X78553714Y-114049810D01*
X78553714Y-114049810D02*
X78696571Y-113978382D01*
X78696571Y-113978382D02*
X78768000Y-113835525D01*
X78768000Y-113835525D02*
X78768000Y-113478382D01*
X78768000Y-113478382D02*
X78839428Y-113335525D01*
X78196571Y-112621239D02*
X79696571Y-112621239D01*
X78768000Y-112478382D02*
X78196571Y-112049810D01*
X79196571Y-112049810D02*
X78625142Y-112621239D01*
X78196571Y-111406953D02*
X79196571Y-111406953D01*
X79696571Y-111406953D02*
X79625142Y-111478381D01*
X79625142Y-111478381D02*
X79553714Y-111406953D01*
X79553714Y-111406953D02*
X79625142Y-111335524D01*
X79625142Y-111335524D02*
X79696571Y-111406953D01*
X79696571Y-111406953D02*
X79553714Y-111406953D01*
X79196571Y-110692667D02*
X78196571Y-110692667D01*
X79053714Y-110692667D02*
X79125142Y-110621238D01*
X79125142Y-110621238D02*
X79196571Y-110478381D01*
X79196571Y-110478381D02*
X79196571Y-110264095D01*
X79196571Y-110264095D02*
X79125142Y-110121238D01*
X79125142Y-110121238D02*
X78982285Y-110049810D01*
X78982285Y-110049810D02*
X78196571Y-110049810D01*
X79196571Y-108692667D02*
X77982285Y-108692667D01*
X77982285Y-108692667D02*
X77839428Y-108764095D01*
X77839428Y-108764095D02*
X77768000Y-108835524D01*
X77768000Y-108835524D02*
X77696571Y-108978381D01*
X77696571Y-108978381D02*
X77696571Y-109192667D01*
X77696571Y-109192667D02*
X77768000Y-109335524D01*
X78268000Y-108692667D02*
X78196571Y-108835524D01*
X78196571Y-108835524D02*
X78196571Y-109121238D01*
X78196571Y-109121238D02*
X78268000Y-109264095D01*
X78268000Y-109264095D02*
X78339428Y-109335524D01*
X78339428Y-109335524D02*
X78482285Y-109406952D01*
X78482285Y-109406952D02*
X78910857Y-109406952D01*
X78910857Y-109406952D02*
X79053714Y-109335524D01*
X79053714Y-109335524D02*
X79125142Y-109264095D01*
X79125142Y-109264095D02*
X79196571Y-109121238D01*
X79196571Y-109121238D02*
X79196571Y-108835524D01*
X79196571Y-108835524D02*
X79125142Y-108692667D01*
X78196571Y-107335524D02*
X79696571Y-107335524D01*
X78268000Y-107335524D02*
X78196571Y-107478381D01*
X78196571Y-107478381D02*
X78196571Y-107764095D01*
X78196571Y-107764095D02*
X78268000Y-107906952D01*
X78268000Y-107906952D02*
X78339428Y-107978381D01*
X78339428Y-107978381D02*
X78482285Y-108049809D01*
X78482285Y-108049809D02*
X78910857Y-108049809D01*
X78910857Y-108049809D02*
X79053714Y-107978381D01*
X79053714Y-107978381D02*
X79125142Y-107906952D01*
X79125142Y-107906952D02*
X79196571Y-107764095D01*
X79196571Y-107764095D02*
X79196571Y-107478381D01*
X79196571Y-107478381D02*
X79125142Y-107335524D01*
X78268000Y-106049809D02*
X78196571Y-106192666D01*
X78196571Y-106192666D02*
X78196571Y-106478381D01*
X78196571Y-106478381D02*
X78268000Y-106621238D01*
X78268000Y-106621238D02*
X78410857Y-106692666D01*
X78410857Y-106692666D02*
X78982285Y-106692666D01*
X78982285Y-106692666D02*
X79125142Y-106621238D01*
X79125142Y-106621238D02*
X79196571Y-106478381D01*
X79196571Y-106478381D02*
X79196571Y-106192666D01*
X79196571Y-106192666D02*
X79125142Y-106049809D01*
X79125142Y-106049809D02*
X78982285Y-105978381D01*
X78982285Y-105978381D02*
X78839428Y-105978381D01*
X78839428Y-105978381D02*
X78696571Y-106692666D01*
X79196571Y-105478381D02*
X78196571Y-105121238D01*
X78196571Y-105121238D02*
X79196571Y-104764095D01*
X78196571Y-104192667D02*
X79196571Y-104192667D01*
X79696571Y-104192667D02*
X79625142Y-104264095D01*
X79625142Y-104264095D02*
X79553714Y-104192667D01*
X79553714Y-104192667D02*
X79625142Y-104121238D01*
X79625142Y-104121238D02*
X79696571Y-104192667D01*
X79696571Y-104192667D02*
X79553714Y-104192667D01*
X78268000Y-102835524D02*
X78196571Y-102978381D01*
X78196571Y-102978381D02*
X78196571Y-103264095D01*
X78196571Y-103264095D02*
X78268000Y-103406952D01*
X78268000Y-103406952D02*
X78339428Y-103478381D01*
X78339428Y-103478381D02*
X78482285Y-103549809D01*
X78482285Y-103549809D02*
X78910857Y-103549809D01*
X78910857Y-103549809D02*
X79053714Y-103478381D01*
X79053714Y-103478381D02*
X79125142Y-103406952D01*
X79125142Y-103406952D02*
X79196571Y-103264095D01*
X79196571Y-103264095D02*
X79196571Y-102978381D01*
X79196571Y-102978381D02*
X79125142Y-102835524D01*
X78268000Y-101621238D02*
X78196571Y-101764095D01*
X78196571Y-101764095D02*
X78196571Y-102049810D01*
X78196571Y-102049810D02*
X78268000Y-102192667D01*
X78268000Y-102192667D02*
X78410857Y-102264095D01*
X78410857Y-102264095D02*
X78982285Y-102264095D01*
X78982285Y-102264095D02*
X79125142Y-102192667D01*
X79125142Y-102192667D02*
X79196571Y-102049810D01*
X79196571Y-102049810D02*
X79196571Y-101764095D01*
X79196571Y-101764095D02*
X79125142Y-101621238D01*
X79125142Y-101621238D02*
X78982285Y-101549810D01*
X78982285Y-101549810D02*
X78839428Y-101549810D01*
X78839428Y-101549810D02*
X78696571Y-102264095D01*
X78268000Y-100978381D02*
X78196571Y-100835524D01*
X78196571Y-100835524D02*
X78196571Y-100549810D01*
X78196571Y-100549810D02*
X78268000Y-100406953D01*
X78268000Y-100406953D02*
X78410857Y-100335524D01*
X78410857Y-100335524D02*
X78482285Y-100335524D01*
X78482285Y-100335524D02*
X78625142Y-100406953D01*
X78625142Y-100406953D02*
X78696571Y-100549810D01*
X78696571Y-100549810D02*
X78696571Y-100764096D01*
X78696571Y-100764096D02*
X78768000Y-100906953D01*
X78768000Y-100906953D02*
X78910857Y-100978381D01*
X78910857Y-100978381D02*
X78982285Y-100978381D01*
X78982285Y-100978381D02*
X79125142Y-100906953D01*
X79125142Y-100906953D02*
X79196571Y-100764096D01*
X79196571Y-100764096D02*
X79196571Y-100549810D01*
X79196571Y-100549810D02*
X79125142Y-100406953D01*
X78339428Y-99692667D02*
X78268000Y-99621238D01*
X78268000Y-99621238D02*
X78196571Y-99692667D01*
X78196571Y-99692667D02*
X78268000Y-99764095D01*
X78268000Y-99764095D02*
X78339428Y-99692667D01*
X78339428Y-99692667D02*
X78196571Y-99692667D01*
X78268000Y-98335524D02*
X78196571Y-98478381D01*
X78196571Y-98478381D02*
X78196571Y-98764095D01*
X78196571Y-98764095D02*
X78268000Y-98906952D01*
X78268000Y-98906952D02*
X78339428Y-98978381D01*
X78339428Y-98978381D02*
X78482285Y-99049809D01*
X78482285Y-99049809D02*
X78910857Y-99049809D01*
X78910857Y-99049809D02*
X79053714Y-98978381D01*
X79053714Y-98978381D02*
X79125142Y-98906952D01*
X79125142Y-98906952D02*
X79196571Y-98764095D01*
X79196571Y-98764095D02*
X79196571Y-98478381D01*
X79196571Y-98478381D02*
X79125142Y-98335524D01*
X78196571Y-97478381D02*
X78268000Y-97621238D01*
X78268000Y-97621238D02*
X78339428Y-97692667D01*
X78339428Y-97692667D02*
X78482285Y-97764095D01*
X78482285Y-97764095D02*
X78910857Y-97764095D01*
X78910857Y-97764095D02*
X79053714Y-97692667D01*
X79053714Y-97692667D02*
X79125142Y-97621238D01*
X79125142Y-97621238D02*
X79196571Y-97478381D01*
X79196571Y-97478381D02*
X79196571Y-97264095D01*
X79196571Y-97264095D02*
X79125142Y-97121238D01*
X79125142Y-97121238D02*
X79053714Y-97049810D01*
X79053714Y-97049810D02*
X78910857Y-96978381D01*
X78910857Y-96978381D02*
X78482285Y-96978381D01*
X78482285Y-96978381D02*
X78339428Y-97049810D01*
X78339428Y-97049810D02*
X78268000Y-97121238D01*
X78268000Y-97121238D02*
X78196571Y-97264095D01*
X78196571Y-97264095D02*
X78196571Y-97478381D01*
X78196571Y-96335524D02*
X79196571Y-96335524D01*
X79053714Y-96335524D02*
X79125142Y-96264095D01*
X79125142Y-96264095D02*
X79196571Y-96121238D01*
X79196571Y-96121238D02*
X79196571Y-95906952D01*
X79196571Y-95906952D02*
X79125142Y-95764095D01*
X79125142Y-95764095D02*
X78982285Y-95692667D01*
X78982285Y-95692667D02*
X78196571Y-95692667D01*
X78982285Y-95692667D02*
X79125142Y-95621238D01*
X79125142Y-95621238D02*
X79196571Y-95478381D01*
X79196571Y-95478381D02*
X79196571Y-95264095D01*
X79196571Y-95264095D02*
X79125142Y-95121238D01*
X79125142Y-95121238D02*
X78982285Y-95049809D01*
X78982285Y-95049809D02*
X78196571Y-95049809D01*
X79768000Y-93264095D02*
X77839428Y-94549809D01*
X78196571Y-92764095D02*
X79196571Y-92764095D01*
X79053714Y-92764095D02*
X79125142Y-92692666D01*
X79125142Y-92692666D02*
X79196571Y-92549809D01*
X79196571Y-92549809D02*
X79196571Y-92335523D01*
X79196571Y-92335523D02*
X79125142Y-92192666D01*
X79125142Y-92192666D02*
X78982285Y-92121238D01*
X78982285Y-92121238D02*
X78196571Y-92121238D01*
X78982285Y-92121238D02*
X79125142Y-92049809D01*
X79125142Y-92049809D02*
X79196571Y-91906952D01*
X79196571Y-91906952D02*
X79196571Y-91692666D01*
X79196571Y-91692666D02*
X79125142Y-91549809D01*
X79125142Y-91549809D02*
X78982285Y-91478380D01*
X78982285Y-91478380D02*
X78196571Y-91478380D01*
X78196571Y-90764095D02*
X79196571Y-90764095D01*
X79696571Y-90764095D02*
X79625142Y-90835523D01*
X79625142Y-90835523D02*
X79553714Y-90764095D01*
X79553714Y-90764095D02*
X79625142Y-90692666D01*
X79625142Y-90692666D02*
X79696571Y-90764095D01*
X79696571Y-90764095D02*
X79553714Y-90764095D01*
X79196571Y-90049809D02*
X78196571Y-90049809D01*
X79053714Y-90049809D02*
X79125142Y-89978380D01*
X79125142Y-89978380D02*
X79196571Y-89835523D01*
X79196571Y-89835523D02*
X79196571Y-89621237D01*
X79196571Y-89621237D02*
X79125142Y-89478380D01*
X79125142Y-89478380D02*
X78982285Y-89406952D01*
X78982285Y-89406952D02*
X78196571Y-89406952D01*
X78268000Y-88121237D02*
X78196571Y-88264094D01*
X78196571Y-88264094D02*
X78196571Y-88549809D01*
X78196571Y-88549809D02*
X78268000Y-88692666D01*
X78268000Y-88692666D02*
X78410857Y-88764094D01*
X78410857Y-88764094D02*
X78982285Y-88764094D01*
X78982285Y-88764094D02*
X79125142Y-88692666D01*
X79125142Y-88692666D02*
X79196571Y-88549809D01*
X79196571Y-88549809D02*
X79196571Y-88264094D01*
X79196571Y-88264094D02*
X79125142Y-88121237D01*
X79125142Y-88121237D02*
X78982285Y-88049809D01*
X78982285Y-88049809D02*
X78839428Y-88049809D01*
X78839428Y-88049809D02*
X78696571Y-88764094D01*
X78196571Y-87406952D02*
X79196571Y-87406952D01*
X78910857Y-87406952D02*
X79053714Y-87335523D01*
X79053714Y-87335523D02*
X79125142Y-87264095D01*
X79125142Y-87264095D02*
X79196571Y-87121237D01*
X79196571Y-87121237D02*
X79196571Y-86978380D01*
X78268000Y-86549809D02*
X78196571Y-86406952D01*
X78196571Y-86406952D02*
X78196571Y-86121238D01*
X78196571Y-86121238D02*
X78268000Y-85978381D01*
X78268000Y-85978381D02*
X78410857Y-85906952D01*
X78410857Y-85906952D02*
X78482285Y-85906952D01*
X78482285Y-85906952D02*
X78625142Y-85978381D01*
X78625142Y-85978381D02*
X78696571Y-86121238D01*
X78696571Y-86121238D02*
X78696571Y-86335524D01*
X78696571Y-86335524D02*
X78768000Y-86478381D01*
X78768000Y-86478381D02*
X78910857Y-86549809D01*
X78910857Y-86549809D02*
X78982285Y-86549809D01*
X78982285Y-86549809D02*
X79125142Y-86478381D01*
X79125142Y-86478381D02*
X79196571Y-86335524D01*
X79196571Y-86335524D02*
X79196571Y-86121238D01*
X79196571Y-86121238D02*
X79125142Y-85978381D01*
X108279523Y-110919857D02*
X108089047Y-110824619D01*
X108089047Y-110824619D02*
X107898571Y-110919857D01*
X107898571Y-110919857D02*
X107803333Y-111110333D01*
X107803333Y-111110333D02*
X107898571Y-111300809D01*
X107898571Y-111300809D02*
X108089047Y-111396047D01*
X108089047Y-111396047D02*
X108279523Y-111300809D01*
X108279523Y-111300809D02*
X108660475Y-110919857D01*
X108660475Y-110919857D02*
X108850952Y-110824619D01*
X108850952Y-110824619D02*
X109041428Y-110919857D01*
X109041428Y-110919857D02*
X109136666Y-111110333D01*
X109136666Y-111110333D02*
X109041428Y-111300809D01*
X109041428Y-111300809D02*
X108850952Y-111396047D01*
X108850952Y-111396047D02*
X108660475Y-111300809D01*
X108660475Y-111300809D02*
X108279523Y-110919857D01*
D11*
X97719819Y-136958238D02*
X96719819Y-136958238D01*
X96719819Y-136958238D02*
X96719819Y-137339190D01*
X96719819Y-137339190D02*
X96767438Y-137434428D01*
X96767438Y-137434428D02*
X96815057Y-137482047D01*
X96815057Y-137482047D02*
X96910295Y-137529666D01*
X96910295Y-137529666D02*
X97053152Y-137529666D01*
X97053152Y-137529666D02*
X97148390Y-137482047D01*
X97148390Y-137482047D02*
X97196009Y-137434428D01*
X97196009Y-137434428D02*
X97243628Y-137339190D01*
X97243628Y-137339190D02*
X97243628Y-136958238D01*
X96719819Y-137863000D02*
X97719819Y-138101095D01*
X97719819Y-138101095D02*
X97005533Y-138291571D01*
X97005533Y-138291571D02*
X97719819Y-138482047D01*
X97719819Y-138482047D02*
X96719819Y-138720143D01*
X97719819Y-139101095D02*
X96719819Y-139101095D01*
X96719819Y-139101095D02*
X97434104Y-139434428D01*
X97434104Y-139434428D02*
X96719819Y-139767761D01*
X96719819Y-139767761D02*
X97719819Y-139767761D01*
X90806077Y-82869819D02*
X90472744Y-83869819D01*
X90472744Y-83869819D02*
X90139411Y-82869819D01*
X89615601Y-82869819D02*
X89520363Y-82869819D01*
X89520363Y-82869819D02*
X89425125Y-82917438D01*
X89425125Y-82917438D02*
X89377506Y-82965057D01*
X89377506Y-82965057D02*
X89329887Y-83060295D01*
X89329887Y-83060295D02*
X89282268Y-83250771D01*
X89282268Y-83250771D02*
X89282268Y-83488866D01*
X89282268Y-83488866D02*
X89329887Y-83679342D01*
X89329887Y-83679342D02*
X89377506Y-83774580D01*
X89377506Y-83774580D02*
X89425125Y-83822200D01*
X89425125Y-83822200D02*
X89520363Y-83869819D01*
X89520363Y-83869819D02*
X89615601Y-83869819D01*
X89615601Y-83869819D02*
X89710839Y-83822200D01*
X89710839Y-83822200D02*
X89758458Y-83774580D01*
X89758458Y-83774580D02*
X89806077Y-83679342D01*
X89806077Y-83679342D02*
X89853696Y-83488866D01*
X89853696Y-83488866D02*
X89853696Y-83250771D01*
X89853696Y-83250771D02*
X89806077Y-83060295D01*
X89806077Y-83060295D02*
X89758458Y-82965057D01*
X89758458Y-82965057D02*
X89710839Y-82917438D01*
X89710839Y-82917438D02*
X89615601Y-82869819D01*
X88948934Y-82869819D02*
X88329887Y-82869819D01*
X88329887Y-82869819D02*
X88663220Y-83250771D01*
X88663220Y-83250771D02*
X88520363Y-83250771D01*
X88520363Y-83250771D02*
X88425125Y-83298390D01*
X88425125Y-83298390D02*
X88377506Y-83346009D01*
X88377506Y-83346009D02*
X88329887Y-83441247D01*
X88329887Y-83441247D02*
X88329887Y-83679342D01*
X88329887Y-83679342D02*
X88377506Y-83774580D01*
X88377506Y-83774580D02*
X88425125Y-83822200D01*
X88425125Y-83822200D02*
X88520363Y-83869819D01*
X88520363Y-83869819D02*
X88806077Y-83869819D01*
X88806077Y-83869819D02*
X88901315Y-83822200D01*
X88901315Y-83822200D02*
X88948934Y-83774580D01*
X87425125Y-82869819D02*
X87901315Y-82869819D01*
X87901315Y-82869819D02*
X87948934Y-83346009D01*
X87948934Y-83346009D02*
X87901315Y-83298390D01*
X87901315Y-83298390D02*
X87806077Y-83250771D01*
X87806077Y-83250771D02*
X87567982Y-83250771D01*
X87567982Y-83250771D02*
X87472744Y-83298390D01*
X87472744Y-83298390D02*
X87425125Y-83346009D01*
X87425125Y-83346009D02*
X87377506Y-83441247D01*
X87377506Y-83441247D02*
X87377506Y-83679342D01*
X87377506Y-83679342D02*
X87425125Y-83774580D01*
X87425125Y-83774580D02*
X87472744Y-83822200D01*
X87472744Y-83822200D02*
X87567982Y-83869819D01*
X87567982Y-83869819D02*
X87806077Y-83869819D01*
X87806077Y-83869819D02*
X87901315Y-83822200D01*
X87901315Y-83822200D02*
X87948934Y-83774580D01*
X94187319Y-137482047D02*
X94187319Y-138053475D01*
X95187319Y-137767761D02*
X94187319Y-137767761D01*
X94901604Y-138339190D02*
X94901604Y-138815380D01*
X95187319Y-138243952D02*
X94187319Y-138577285D01*
X94187319Y-138577285D02*
X95187319Y-138910618D01*
X95092080Y-139815380D02*
X95139700Y-139767761D01*
X95139700Y-139767761D02*
X95187319Y-139624904D01*
X95187319Y-139624904D02*
X95187319Y-139529666D01*
X95187319Y-139529666D02*
X95139700Y-139386809D01*
X95139700Y-139386809D02*
X95044461Y-139291571D01*
X95044461Y-139291571D02*
X94949223Y-139243952D01*
X94949223Y-139243952D02*
X94758747Y-139196333D01*
X94758747Y-139196333D02*
X94615890Y-139196333D01*
X94615890Y-139196333D02*
X94425414Y-139243952D01*
X94425414Y-139243952D02*
X94330176Y-139291571D01*
X94330176Y-139291571D02*
X94234938Y-139386809D01*
X94234938Y-139386809D02*
X94187319Y-139529666D01*
X94187319Y-139529666D02*
X94187319Y-139624904D01*
X94187319Y-139624904D02*
X94234938Y-139767761D01*
X94234938Y-139767761D02*
X94282557Y-139815380D01*
D10*
X107764098Y-60203428D02*
X108478384Y-60203428D01*
X108478384Y-60203428D02*
X108478384Y-58703428D01*
X107264098Y-60203428D02*
X107264098Y-59203428D01*
X107264098Y-58703428D02*
X107335526Y-58774857D01*
X107335526Y-58774857D02*
X107264098Y-58846285D01*
X107264098Y-58846285D02*
X107192669Y-58774857D01*
X107192669Y-58774857D02*
X107264098Y-58703428D01*
X107264098Y-58703428D02*
X107264098Y-58846285D01*
X106764097Y-59203428D02*
X106192669Y-59203428D01*
X106549812Y-60203428D02*
X106549812Y-58917714D01*
X106549812Y-58917714D02*
X106478383Y-58774857D01*
X106478383Y-58774857D02*
X106335526Y-58703428D01*
X106335526Y-58703428D02*
X106192669Y-58703428D01*
X105121240Y-60132000D02*
X105264097Y-60203428D01*
X105264097Y-60203428D02*
X105549812Y-60203428D01*
X105549812Y-60203428D02*
X105692669Y-60132000D01*
X105692669Y-60132000D02*
X105764097Y-59989142D01*
X105764097Y-59989142D02*
X105764097Y-59417714D01*
X105764097Y-59417714D02*
X105692669Y-59274857D01*
X105692669Y-59274857D02*
X105549812Y-59203428D01*
X105549812Y-59203428D02*
X105264097Y-59203428D01*
X105264097Y-59203428D02*
X105121240Y-59274857D01*
X105121240Y-59274857D02*
X105049812Y-59417714D01*
X105049812Y-59417714D02*
X105049812Y-59560571D01*
X105049812Y-59560571D02*
X105764097Y-59703428D01*
D11*
X89169938Y-137720143D02*
X89122319Y-137624905D01*
X89122319Y-137624905D02*
X89122319Y-137482048D01*
X89122319Y-137482048D02*
X89169938Y-137339191D01*
X89169938Y-137339191D02*
X89265176Y-137243953D01*
X89265176Y-137243953D02*
X89360414Y-137196334D01*
X89360414Y-137196334D02*
X89550890Y-137148715D01*
X89550890Y-137148715D02*
X89693747Y-137148715D01*
X89693747Y-137148715D02*
X89884223Y-137196334D01*
X89884223Y-137196334D02*
X89979461Y-137243953D01*
X89979461Y-137243953D02*
X90074700Y-137339191D01*
X90074700Y-137339191D02*
X90122319Y-137482048D01*
X90122319Y-137482048D02*
X90122319Y-137577286D01*
X90122319Y-137577286D02*
X90074700Y-137720143D01*
X90074700Y-137720143D02*
X90027080Y-137767762D01*
X90027080Y-137767762D02*
X89693747Y-137767762D01*
X89693747Y-137767762D02*
X89693747Y-137577286D01*
X90122319Y-138196334D02*
X89122319Y-138196334D01*
X89122319Y-138196334D02*
X90122319Y-138767762D01*
X90122319Y-138767762D02*
X89122319Y-138767762D01*
X90122319Y-139243953D02*
X89122319Y-139243953D01*
X89122319Y-139243953D02*
X89122319Y-139482048D01*
X89122319Y-139482048D02*
X89169938Y-139624905D01*
X89169938Y-139624905D02*
X89265176Y-139720143D01*
X89265176Y-139720143D02*
X89360414Y-139767762D01*
X89360414Y-139767762D02*
X89550890Y-139815381D01*
X89550890Y-139815381D02*
X89693747Y-139815381D01*
X89693747Y-139815381D02*
X89884223Y-139767762D01*
X89884223Y-139767762D02*
X89979461Y-139720143D01*
X89979461Y-139720143D02*
X90074700Y-139624905D01*
X90074700Y-139624905D02*
X90122319Y-139482048D01*
X90122319Y-139482048D02*
X90122319Y-139243953D01*
X87423333Y-142934819D02*
X87423333Y-143649104D01*
X87423333Y-143649104D02*
X87470952Y-143791961D01*
X87470952Y-143791961D02*
X87566190Y-143887200D01*
X87566190Y-143887200D02*
X87709047Y-143934819D01*
X87709047Y-143934819D02*
X87804285Y-143934819D01*
X86518571Y-142934819D02*
X86709047Y-142934819D01*
X86709047Y-142934819D02*
X86804285Y-142982438D01*
X86804285Y-142982438D02*
X86851904Y-143030057D01*
X86851904Y-143030057D02*
X86947142Y-143172914D01*
X86947142Y-143172914D02*
X86994761Y-143363390D01*
X86994761Y-143363390D02*
X86994761Y-143744342D01*
X86994761Y-143744342D02*
X86947142Y-143839580D01*
X86947142Y-143839580D02*
X86899523Y-143887200D01*
X86899523Y-143887200D02*
X86804285Y-143934819D01*
X86804285Y-143934819D02*
X86613809Y-143934819D01*
X86613809Y-143934819D02*
X86518571Y-143887200D01*
X86518571Y-143887200D02*
X86470952Y-143839580D01*
X86470952Y-143839580D02*
X86423333Y-143744342D01*
X86423333Y-143744342D02*
X86423333Y-143506247D01*
X86423333Y-143506247D02*
X86470952Y-143411009D01*
X86470952Y-143411009D02*
X86518571Y-143363390D01*
X86518571Y-143363390D02*
X86613809Y-143315771D01*
X86613809Y-143315771D02*
X86804285Y-143315771D01*
X86804285Y-143315771D02*
X86899523Y-143363390D01*
X86899523Y-143363390D02*
X86947142Y-143411009D01*
X86947142Y-143411009D02*
X86994761Y-143506247D01*
X90013333Y-48834819D02*
X90013333Y-49549104D01*
X90013333Y-49549104D02*
X90060952Y-49691961D01*
X90060952Y-49691961D02*
X90156190Y-49787200D01*
X90156190Y-49787200D02*
X90299047Y-49834819D01*
X90299047Y-49834819D02*
X90394285Y-49834819D01*
X89108571Y-49168152D02*
X89108571Y-49834819D01*
X89346666Y-48787200D02*
X89584761Y-49501485D01*
X89584761Y-49501485D02*
X88965714Y-49501485D01*
X113254819Y-58757142D02*
X112778628Y-58423809D01*
X113254819Y-58185714D02*
X112254819Y-58185714D01*
X112254819Y-58185714D02*
X112254819Y-58566666D01*
X112254819Y-58566666D02*
X112302438Y-58661904D01*
X112302438Y-58661904D02*
X112350057Y-58709523D01*
X112350057Y-58709523D02*
X112445295Y-58757142D01*
X112445295Y-58757142D02*
X112588152Y-58757142D01*
X112588152Y-58757142D02*
X112683390Y-58709523D01*
X112683390Y-58709523D02*
X112731009Y-58661904D01*
X112731009Y-58661904D02*
X112778628Y-58566666D01*
X112778628Y-58566666D02*
X112778628Y-58185714D01*
X113254819Y-59709523D02*
X113254819Y-59138095D01*
X113254819Y-59423809D02*
X112254819Y-59423809D01*
X112254819Y-59423809D02*
X112397676Y-59328571D01*
X112397676Y-59328571D02*
X112492914Y-59233333D01*
X112492914Y-59233333D02*
X112540533Y-59138095D01*
X113254819Y-60185714D02*
X113254819Y-60376190D01*
X113254819Y-60376190D02*
X113207200Y-60471428D01*
X113207200Y-60471428D02*
X113159580Y-60519047D01*
X113159580Y-60519047D02*
X113016723Y-60614285D01*
X113016723Y-60614285D02*
X112826247Y-60661904D01*
X112826247Y-60661904D02*
X112445295Y-60661904D01*
X112445295Y-60661904D02*
X112350057Y-60614285D01*
X112350057Y-60614285D02*
X112302438Y-60566666D01*
X112302438Y-60566666D02*
X112254819Y-60471428D01*
X112254819Y-60471428D02*
X112254819Y-60280952D01*
X112254819Y-60280952D02*
X112302438Y-60185714D01*
X112302438Y-60185714D02*
X112350057Y-60138095D01*
X112350057Y-60138095D02*
X112445295Y-60090476D01*
X112445295Y-60090476D02*
X112683390Y-60090476D01*
X112683390Y-60090476D02*
X112778628Y-60138095D01*
X112778628Y-60138095D02*
X112826247Y-60185714D01*
X112826247Y-60185714D02*
X112873866Y-60280952D01*
X112873866Y-60280952D02*
X112873866Y-60471428D01*
X112873866Y-60471428D02*
X112826247Y-60566666D01*
X112826247Y-60566666D02*
X112778628Y-60614285D01*
X112778628Y-60614285D02*
X112683390Y-60661904D01*
X81545180Y-65483333D02*
X80830895Y-65483333D01*
X80830895Y-65483333D02*
X80688038Y-65530952D01*
X80688038Y-65530952D02*
X80592800Y-65626190D01*
X80592800Y-65626190D02*
X80545180Y-65769047D01*
X80545180Y-65769047D02*
X80545180Y-65864285D01*
X81449942Y-65054761D02*
X81497561Y-65007142D01*
X81497561Y-65007142D02*
X81545180Y-64911904D01*
X81545180Y-64911904D02*
X81545180Y-64673809D01*
X81545180Y-64673809D02*
X81497561Y-64578571D01*
X81497561Y-64578571D02*
X81449942Y-64530952D01*
X81449942Y-64530952D02*
X81354704Y-64483333D01*
X81354704Y-64483333D02*
X81259466Y-64483333D01*
X81259466Y-64483333D02*
X81116609Y-64530952D01*
X81116609Y-64530952D02*
X80545180Y-65102380D01*
X80545180Y-65102380D02*
X80545180Y-64483333D01*
D13*
X104653365Y-51683571D02*
X104713842Y-51623095D01*
X104713842Y-51623095D02*
X104774318Y-51441666D01*
X104774318Y-51441666D02*
X104774318Y-51320714D01*
X104774318Y-51320714D02*
X104713842Y-51139285D01*
X104713842Y-51139285D02*
X104592889Y-51018333D01*
X104592889Y-51018333D02*
X104471937Y-50957856D01*
X104471937Y-50957856D02*
X104230032Y-50897380D01*
X104230032Y-50897380D02*
X104048603Y-50897380D01*
X104048603Y-50897380D02*
X103806699Y-50957856D01*
X103806699Y-50957856D02*
X103685746Y-51018333D01*
X103685746Y-51018333D02*
X103564794Y-51139285D01*
X103564794Y-51139285D02*
X103504318Y-51320714D01*
X103504318Y-51320714D02*
X103504318Y-51441666D01*
X103504318Y-51441666D02*
X103564794Y-51623095D01*
X103564794Y-51623095D02*
X103625270Y-51683571D01*
X103504318Y-52832618D02*
X103504318Y-52227856D01*
X103504318Y-52227856D02*
X104109080Y-52167380D01*
X104109080Y-52167380D02*
X104048603Y-52227856D01*
X104048603Y-52227856D02*
X103988127Y-52348809D01*
X103988127Y-52348809D02*
X103988127Y-52651190D01*
X103988127Y-52651190D02*
X104048603Y-52772142D01*
X104048603Y-52772142D02*
X104109080Y-52832618D01*
X104109080Y-52832618D02*
X104230032Y-52893095D01*
X104230032Y-52893095D02*
X104532413Y-52893095D01*
X104532413Y-52893095D02*
X104653365Y-52832618D01*
X104653365Y-52832618D02*
X104713842Y-52772142D01*
X104713842Y-52772142D02*
X104774318Y-52651190D01*
X104774318Y-52651190D02*
X104774318Y-52348809D01*
X104774318Y-52348809D02*
X104713842Y-52227856D01*
X104713842Y-52227856D02*
X104653365Y-52167380D01*
X103625270Y-53376904D02*
X103564794Y-53437380D01*
X103564794Y-53437380D02*
X103504318Y-53558333D01*
X103504318Y-53558333D02*
X103504318Y-53860714D01*
X103504318Y-53860714D02*
X103564794Y-53981666D01*
X103564794Y-53981666D02*
X103625270Y-54042142D01*
X103625270Y-54042142D02*
X103746222Y-54102619D01*
X103746222Y-54102619D02*
X103867175Y-54102619D01*
X103867175Y-54102619D02*
X104048603Y-54042142D01*
X104048603Y-54042142D02*
X104774318Y-53316428D01*
X104774318Y-53316428D02*
X104774318Y-54102619D01*
D11*
X88483333Y-76224819D02*
X88483333Y-76939104D01*
X88483333Y-76939104D02*
X88530952Y-77081961D01*
X88530952Y-77081961D02*
X88626190Y-77177200D01*
X88626190Y-77177200D02*
X88769047Y-77224819D01*
X88769047Y-77224819D02*
X88864285Y-77224819D01*
X87483333Y-77224819D02*
X88054761Y-77224819D01*
X87769047Y-77224819D02*
X87769047Y-76224819D01*
X87769047Y-76224819D02*
X87864285Y-76367676D01*
X87864285Y-76367676D02*
X87959523Y-76462914D01*
X87959523Y-76462914D02*
X88054761Y-76510533D01*
D13*
X109153365Y-51753571D02*
X109213842Y-51693095D01*
X109213842Y-51693095D02*
X109274318Y-51511666D01*
X109274318Y-51511666D02*
X109274318Y-51390714D01*
X109274318Y-51390714D02*
X109213842Y-51209285D01*
X109213842Y-51209285D02*
X109092889Y-51088333D01*
X109092889Y-51088333D02*
X108971937Y-51027856D01*
X108971937Y-51027856D02*
X108730032Y-50967380D01*
X108730032Y-50967380D02*
X108548603Y-50967380D01*
X108548603Y-50967380D02*
X108306699Y-51027856D01*
X108306699Y-51027856D02*
X108185746Y-51088333D01*
X108185746Y-51088333D02*
X108064794Y-51209285D01*
X108064794Y-51209285D02*
X108004318Y-51390714D01*
X108004318Y-51390714D02*
X108004318Y-51511666D01*
X108004318Y-51511666D02*
X108064794Y-51693095D01*
X108064794Y-51693095D02*
X108125270Y-51753571D01*
X108004318Y-52902618D02*
X108004318Y-52297856D01*
X108004318Y-52297856D02*
X108609080Y-52237380D01*
X108609080Y-52237380D02*
X108548603Y-52297856D01*
X108548603Y-52297856D02*
X108488127Y-52418809D01*
X108488127Y-52418809D02*
X108488127Y-52721190D01*
X108488127Y-52721190D02*
X108548603Y-52842142D01*
X108548603Y-52842142D02*
X108609080Y-52902618D01*
X108609080Y-52902618D02*
X108730032Y-52963095D01*
X108730032Y-52963095D02*
X109032413Y-52963095D01*
X109032413Y-52963095D02*
X109153365Y-52902618D01*
X109153365Y-52902618D02*
X109213842Y-52842142D01*
X109213842Y-52842142D02*
X109274318Y-52721190D01*
X109274318Y-52721190D02*
X109274318Y-52418809D01*
X109274318Y-52418809D02*
X109213842Y-52297856D01*
X109213842Y-52297856D02*
X109153365Y-52237380D01*
X108004318Y-53386428D02*
X108004318Y-54172619D01*
X108004318Y-54172619D02*
X108488127Y-53749285D01*
X108488127Y-53749285D02*
X108488127Y-53930714D01*
X108488127Y-53930714D02*
X108548603Y-54051666D01*
X108548603Y-54051666D02*
X108609080Y-54112142D01*
X108609080Y-54112142D02*
X108730032Y-54172619D01*
X108730032Y-54172619D02*
X109032413Y-54172619D01*
X109032413Y-54172619D02*
X109153365Y-54112142D01*
X109153365Y-54112142D02*
X109213842Y-54051666D01*
X109213842Y-54051666D02*
X109274318Y-53930714D01*
X109274318Y-53930714D02*
X109274318Y-53567857D01*
X109274318Y-53567857D02*
X109213842Y-53446904D01*
X109213842Y-53446904D02*
X109153365Y-53386428D01*
D11*
X110454819Y-56261905D02*
X109454819Y-56261905D01*
X109454819Y-56261905D02*
X109454819Y-56500000D01*
X109454819Y-56500000D02*
X109502438Y-56642857D01*
X109502438Y-56642857D02*
X109597676Y-56738095D01*
X109597676Y-56738095D02*
X109692914Y-56785714D01*
X109692914Y-56785714D02*
X109883390Y-56833333D01*
X109883390Y-56833333D02*
X110026247Y-56833333D01*
X110026247Y-56833333D02*
X110216723Y-56785714D01*
X110216723Y-56785714D02*
X110311961Y-56738095D01*
X110311961Y-56738095D02*
X110407200Y-56642857D01*
X110407200Y-56642857D02*
X110454819Y-56500000D01*
X110454819Y-56500000D02*
X110454819Y-56261905D01*
X109550057Y-57214286D02*
X109502438Y-57261905D01*
X109502438Y-57261905D02*
X109454819Y-57357143D01*
X109454819Y-57357143D02*
X109454819Y-57595238D01*
X109454819Y-57595238D02*
X109502438Y-57690476D01*
X109502438Y-57690476D02*
X109550057Y-57738095D01*
X109550057Y-57738095D02*
X109645295Y-57785714D01*
X109645295Y-57785714D02*
X109740533Y-57785714D01*
X109740533Y-57785714D02*
X109883390Y-57738095D01*
X109883390Y-57738095D02*
X110454819Y-57166667D01*
X110454819Y-57166667D02*
X110454819Y-57785714D01*
X106790857Y-137434580D02*
X106838476Y-137482200D01*
X106838476Y-137482200D02*
X106981333Y-137529819D01*
X106981333Y-137529819D02*
X107076571Y-137529819D01*
X107076571Y-137529819D02*
X107219428Y-137482200D01*
X107219428Y-137482200D02*
X107314666Y-137386961D01*
X107314666Y-137386961D02*
X107362285Y-137291723D01*
X107362285Y-137291723D02*
X107409904Y-137101247D01*
X107409904Y-137101247D02*
X107409904Y-136958390D01*
X107409904Y-136958390D02*
X107362285Y-136767914D01*
X107362285Y-136767914D02*
X107314666Y-136672676D01*
X107314666Y-136672676D02*
X107219428Y-136577438D01*
X107219428Y-136577438D02*
X107076571Y-136529819D01*
X107076571Y-136529819D02*
X106981333Y-136529819D01*
X106981333Y-136529819D02*
X106838476Y-136577438D01*
X106838476Y-136577438D02*
X106790857Y-136625057D01*
X105933714Y-136863152D02*
X105933714Y-137529819D01*
X106171809Y-136482200D02*
X106409904Y-137196485D01*
X106409904Y-137196485D02*
X105790857Y-137196485D01*
X105362285Y-137529819D02*
X105171809Y-137529819D01*
X105171809Y-137529819D02*
X105076571Y-137482200D01*
X105076571Y-137482200D02*
X105028952Y-137434580D01*
X105028952Y-137434580D02*
X104933714Y-137291723D01*
X104933714Y-137291723D02*
X104886095Y-137101247D01*
X104886095Y-137101247D02*
X104886095Y-136720295D01*
X104886095Y-136720295D02*
X104933714Y-136625057D01*
X104933714Y-136625057D02*
X104981333Y-136577438D01*
X104981333Y-136577438D02*
X105076571Y-136529819D01*
X105076571Y-136529819D02*
X105267047Y-136529819D01*
X105267047Y-136529819D02*
X105362285Y-136577438D01*
X105362285Y-136577438D02*
X105409904Y-136625057D01*
X105409904Y-136625057D02*
X105457523Y-136720295D01*
X105457523Y-136720295D02*
X105457523Y-136958390D01*
X105457523Y-136958390D02*
X105409904Y-137053628D01*
X105409904Y-137053628D02*
X105362285Y-137101247D01*
X105362285Y-137101247D02*
X105267047Y-137148866D01*
X105267047Y-137148866D02*
X105076571Y-137148866D01*
X105076571Y-137148866D02*
X104981333Y-137101247D01*
X104981333Y-137101247D02*
X104933714Y-137053628D01*
X104933714Y-137053628D02*
X104886095Y-136958390D01*
X131608381Y-107530819D02*
X131941714Y-107054628D01*
X132179809Y-107530819D02*
X132179809Y-106530819D01*
X132179809Y-106530819D02*
X131798857Y-106530819D01*
X131798857Y-106530819D02*
X131703619Y-106578438D01*
X131703619Y-106578438D02*
X131656000Y-106626057D01*
X131656000Y-106626057D02*
X131608381Y-106721295D01*
X131608381Y-106721295D02*
X131608381Y-106864152D01*
X131608381Y-106864152D02*
X131656000Y-106959390D01*
X131656000Y-106959390D02*
X131703619Y-107007009D01*
X131703619Y-107007009D02*
X131798857Y-107054628D01*
X131798857Y-107054628D02*
X132179809Y-107054628D01*
X131179809Y-107007009D02*
X130846476Y-107007009D01*
X130703619Y-107530819D02*
X131179809Y-107530819D01*
X131179809Y-107530819D02*
X131179809Y-106530819D01*
X131179809Y-106530819D02*
X130703619Y-106530819D01*
X130322666Y-107483200D02*
X130179809Y-107530819D01*
X130179809Y-107530819D02*
X129941714Y-107530819D01*
X129941714Y-107530819D02*
X129846476Y-107483200D01*
X129846476Y-107483200D02*
X129798857Y-107435580D01*
X129798857Y-107435580D02*
X129751238Y-107340342D01*
X129751238Y-107340342D02*
X129751238Y-107245104D01*
X129751238Y-107245104D02*
X129798857Y-107149866D01*
X129798857Y-107149866D02*
X129846476Y-107102247D01*
X129846476Y-107102247D02*
X129941714Y-107054628D01*
X129941714Y-107054628D02*
X130132190Y-107007009D01*
X130132190Y-107007009D02*
X130227428Y-106959390D01*
X130227428Y-106959390D02*
X130275047Y-106911771D01*
X130275047Y-106911771D02*
X130322666Y-106816533D01*
X130322666Y-106816533D02*
X130322666Y-106721295D01*
X130322666Y-106721295D02*
X130275047Y-106626057D01*
X130275047Y-106626057D02*
X130227428Y-106578438D01*
X130227428Y-106578438D02*
X130132190Y-106530819D01*
X130132190Y-106530819D02*
X129894095Y-106530819D01*
X129894095Y-106530819D02*
X129751238Y-106578438D01*
X129322666Y-107007009D02*
X128989333Y-107007009D01*
X128846476Y-107530819D02*
X129322666Y-107530819D01*
X129322666Y-107530819D02*
X129322666Y-106530819D01*
X129322666Y-106530819D02*
X128846476Y-106530819D01*
X128560761Y-106530819D02*
X127989333Y-106530819D01*
X128275047Y-107530819D02*
X128275047Y-106530819D01*
X131514142Y-115659009D02*
X131371285Y-115706628D01*
X131371285Y-115706628D02*
X131323666Y-115754247D01*
X131323666Y-115754247D02*
X131276047Y-115849485D01*
X131276047Y-115849485D02*
X131276047Y-115992342D01*
X131276047Y-115992342D02*
X131323666Y-116087580D01*
X131323666Y-116087580D02*
X131371285Y-116135200D01*
X131371285Y-116135200D02*
X131466523Y-116182819D01*
X131466523Y-116182819D02*
X131847475Y-116182819D01*
X131847475Y-116182819D02*
X131847475Y-115182819D01*
X131847475Y-115182819D02*
X131514142Y-115182819D01*
X131514142Y-115182819D02*
X131418904Y-115230438D01*
X131418904Y-115230438D02*
X131371285Y-115278057D01*
X131371285Y-115278057D02*
X131323666Y-115373295D01*
X131323666Y-115373295D02*
X131323666Y-115468533D01*
X131323666Y-115468533D02*
X131371285Y-115563771D01*
X131371285Y-115563771D02*
X131418904Y-115611390D01*
X131418904Y-115611390D02*
X131514142Y-115659009D01*
X131514142Y-115659009D02*
X131847475Y-115659009D01*
X130656999Y-115182819D02*
X130466523Y-115182819D01*
X130466523Y-115182819D02*
X130371285Y-115230438D01*
X130371285Y-115230438D02*
X130276047Y-115325676D01*
X130276047Y-115325676D02*
X130228428Y-115516152D01*
X130228428Y-115516152D02*
X130228428Y-115849485D01*
X130228428Y-115849485D02*
X130276047Y-116039961D01*
X130276047Y-116039961D02*
X130371285Y-116135200D01*
X130371285Y-116135200D02*
X130466523Y-116182819D01*
X130466523Y-116182819D02*
X130656999Y-116182819D01*
X130656999Y-116182819D02*
X130752237Y-116135200D01*
X130752237Y-116135200D02*
X130847475Y-116039961D01*
X130847475Y-116039961D02*
X130895094Y-115849485D01*
X130895094Y-115849485D02*
X130895094Y-115516152D01*
X130895094Y-115516152D02*
X130847475Y-115325676D01*
X130847475Y-115325676D02*
X130752237Y-115230438D01*
X130752237Y-115230438D02*
X130656999Y-115182819D01*
X129609380Y-115182819D02*
X129418904Y-115182819D01*
X129418904Y-115182819D02*
X129323666Y-115230438D01*
X129323666Y-115230438D02*
X129228428Y-115325676D01*
X129228428Y-115325676D02*
X129180809Y-115516152D01*
X129180809Y-115516152D02*
X129180809Y-115849485D01*
X129180809Y-115849485D02*
X129228428Y-116039961D01*
X129228428Y-116039961D02*
X129323666Y-116135200D01*
X129323666Y-116135200D02*
X129418904Y-116182819D01*
X129418904Y-116182819D02*
X129609380Y-116182819D01*
X129609380Y-116182819D02*
X129704618Y-116135200D01*
X129704618Y-116135200D02*
X129799856Y-116039961D01*
X129799856Y-116039961D02*
X129847475Y-115849485D01*
X129847475Y-115849485D02*
X129847475Y-115516152D01*
X129847475Y-115516152D02*
X129799856Y-115325676D01*
X129799856Y-115325676D02*
X129704618Y-115230438D01*
X129704618Y-115230438D02*
X129609380Y-115182819D01*
X128895094Y-115182819D02*
X128323666Y-115182819D01*
X128609380Y-116182819D02*
X128609380Y-115182819D01*
D14*
%TO.C,REF\u002A\u002A*%
X111036725Y-145524619D02*
X111157261Y-145569393D01*
X111207388Y-145603034D01*
X111258152Y-145651236D01*
X111294362Y-145712551D01*
X111318393Y-145796024D01*
X111332618Y-145910697D01*
X111339412Y-146065613D01*
X111341149Y-146269814D01*
X111340809Y-146375341D01*
X111339101Y-146519541D01*
X111336201Y-146634620D01*
X111332384Y-146710822D01*
X111327925Y-146738391D01*
X111298909Y-146729272D01*
X111240339Y-146704509D01*
X111238581Y-146703707D01*
X111208167Y-146687785D01*
X111187712Y-146665938D01*
X111175240Y-146627672D01*
X111168777Y-146562495D01*
X111166348Y-146459913D01*
X111165977Y-146309433D01*
X111165229Y-146213974D01*
X111157256Y-146034571D01*
X111138998Y-145903163D01*
X111108526Y-145812859D01*
X111063912Y-145756767D01*
X111003226Y-145727994D01*
X110994807Y-145725989D01*
X110881139Y-145724423D01*
X110792492Y-145775348D01*
X110731265Y-145877445D01*
X110720346Y-145906961D01*
X110695458Y-145972283D01*
X110682854Y-146002300D01*
X110656969Y-145998164D01*
X110600439Y-145975717D01*
X110547715Y-145938647D01*
X110523678Y-145868587D01*
X110530847Y-145818406D01*
X110574897Y-145716618D01*
X110646123Y-145621235D01*
X110729415Y-145555269D01*
X110764310Y-145540018D01*
X110896443Y-145514521D01*
X111036725Y-145524619D01*
G36*
X111036725Y-145524619D02*
G01*
X111157261Y-145569393D01*
X111207388Y-145603034D01*
X111258152Y-145651236D01*
X111294362Y-145712551D01*
X111318393Y-145796024D01*
X111332618Y-145910697D01*
X111339412Y-146065613D01*
X111341149Y-146269814D01*
X111340809Y-146375341D01*
X111339101Y-146519541D01*
X111336201Y-146634620D01*
X111332384Y-146710822D01*
X111327925Y-146738391D01*
X111298909Y-146729272D01*
X111240339Y-146704509D01*
X111238581Y-146703707D01*
X111208167Y-146687785D01*
X111187712Y-146665938D01*
X111175240Y-146627672D01*
X111168777Y-146562495D01*
X111166348Y-146459913D01*
X111165977Y-146309433D01*
X111165229Y-146213974D01*
X111157256Y-146034571D01*
X111138998Y-145903163D01*
X111108526Y-145812859D01*
X111063912Y-145756767D01*
X111003226Y-145727994D01*
X110994807Y-145725989D01*
X110881139Y-145724423D01*
X110792492Y-145775348D01*
X110731265Y-145877445D01*
X110720346Y-145906961D01*
X110695458Y-145972283D01*
X110682854Y-146002300D01*
X110656969Y-145998164D01*
X110600439Y-145975717D01*
X110547715Y-145938647D01*
X110523678Y-145868587D01*
X110530847Y-145818406D01*
X110574897Y-145716618D01*
X110646123Y-145621235D01*
X110729415Y-145555269D01*
X110764310Y-145540018D01*
X110896443Y-145514521D01*
X111036725Y-145524619D01*
G37*
X118978487Y-145457689D02*
X119114848Y-145521770D01*
X119226598Y-145632584D01*
X119249761Y-145667273D01*
X119268973Y-145706590D01*
X119282598Y-145756145D01*
X119291877Y-145825568D01*
X119298050Y-145924490D01*
X119302357Y-146062539D01*
X119306038Y-146249346D01*
X119315180Y-146767542D01*
X119238383Y-146738344D01*
X119168068Y-146711520D01*
X119115424Y-146685706D01*
X119081060Y-146652431D01*
X119061093Y-146601510D01*
X119051639Y-146522761D01*
X119048814Y-146405999D01*
X119048736Y-146241042D01*
X119048336Y-146109558D01*
X119045951Y-145983394D01*
X119040259Y-145897223D01*
X119029961Y-145840672D01*
X119013755Y-145803370D01*
X118990345Y-145774943D01*
X118932793Y-145734827D01*
X118836112Y-145719706D01*
X118740465Y-145757917D01*
X118734152Y-145762810D01*
X118714477Y-145785413D01*
X118699963Y-145821664D01*
X118689394Y-145880511D01*
X118681555Y-145970901D01*
X118675227Y-146101779D01*
X118669195Y-146282095D01*
X118654598Y-146764907D01*
X118530517Y-146709283D01*
X118406437Y-146653659D01*
X118406437Y-146212851D01*
X118406951Y-146093098D01*
X118411380Y-145926506D01*
X118422594Y-145802468D01*
X118443272Y-145710987D01*
X118476093Y-145642066D01*
X118523736Y-145585707D01*
X118588877Y-145531914D01*
X118682571Y-145477719D01*
X118830175Y-145442339D01*
X118978487Y-145457689D01*
G36*
X118978487Y-145457689D02*
G01*
X119114848Y-145521770D01*
X119226598Y-145632584D01*
X119249761Y-145667273D01*
X119268973Y-145706590D01*
X119282598Y-145756145D01*
X119291877Y-145825568D01*
X119298050Y-145924490D01*
X119302357Y-146062539D01*
X119306038Y-146249346D01*
X119315180Y-146767542D01*
X119238383Y-146738344D01*
X119168068Y-146711520D01*
X119115424Y-146685706D01*
X119081060Y-146652431D01*
X119061093Y-146601510D01*
X119051639Y-146522761D01*
X119048814Y-146405999D01*
X119048736Y-146241042D01*
X119048336Y-146109558D01*
X119045951Y-145983394D01*
X119040259Y-145897223D01*
X119029961Y-145840672D01*
X119013755Y-145803370D01*
X118990345Y-145774943D01*
X118932793Y-145734827D01*
X118836112Y-145719706D01*
X118740465Y-145757917D01*
X118734152Y-145762810D01*
X118714477Y-145785413D01*
X118699963Y-145821664D01*
X118689394Y-145880511D01*
X118681555Y-145970901D01*
X118675227Y-146101779D01*
X118669195Y-146282095D01*
X118654598Y-146764907D01*
X118530517Y-146709283D01*
X118406437Y-146653659D01*
X118406437Y-146212851D01*
X118406951Y-146093098D01*
X118411380Y-145926506D01*
X118422594Y-145802468D01*
X118443272Y-145710987D01*
X118476093Y-145642066D01*
X118523736Y-145585707D01*
X118588877Y-145531914D01*
X118682571Y-145477719D01*
X118830175Y-145442339D01*
X118978487Y-145457689D01*
G37*
X115310872Y-145555536D02*
X115320090Y-145560638D01*
X115395381Y-145619080D01*
X115462698Y-145694215D01*
X115474439Y-145711196D01*
X115496883Y-145750825D01*
X115512918Y-145797858D01*
X115523945Y-145862492D01*
X115531365Y-145954923D01*
X115536579Y-146085349D01*
X115540989Y-146263965D01*
X115541614Y-146294162D01*
X115543620Y-146489941D01*
X115540792Y-146628603D01*
X115533088Y-146711103D01*
X115520466Y-146738391D01*
X115482267Y-146730220D01*
X115417374Y-146705463D01*
X115402094Y-146698223D01*
X115378227Y-146681835D01*
X115361769Y-146654893D01*
X115351005Y-146607833D01*
X115344219Y-146531088D01*
X115339693Y-146415095D01*
X115335713Y-146250287D01*
X115334622Y-146202112D01*
X115330407Y-146049960D01*
X115324936Y-145943476D01*
X115316554Y-145872565D01*
X115303606Y-145827129D01*
X115284439Y-145797072D01*
X115257398Y-145772296D01*
X115177337Y-145728861D01*
X115078846Y-145720498D01*
X114990719Y-145753734D01*
X114927314Y-145822548D01*
X114902988Y-145920920D01*
X114902311Y-145947658D01*
X114889024Y-145996065D01*
X114849796Y-146003450D01*
X114772983Y-145974624D01*
X114755192Y-145965378D01*
X114707109Y-145911006D01*
X114706157Y-145830161D01*
X114751968Y-145718352D01*
X114793990Y-145657419D01*
X114901435Y-145570859D01*
X115034057Y-145521920D01*
X115175867Y-145515260D01*
X115310872Y-145555536D01*
G36*
X115310872Y-145555536D02*
G01*
X115320090Y-145560638D01*
X115395381Y-145619080D01*
X115462698Y-145694215D01*
X115474439Y-145711196D01*
X115496883Y-145750825D01*
X115512918Y-145797858D01*
X115523945Y-145862492D01*
X115531365Y-145954923D01*
X115536579Y-146085349D01*
X115540989Y-146263965D01*
X115541614Y-146294162D01*
X115543620Y-146489941D01*
X115540792Y-146628603D01*
X115533088Y-146711103D01*
X115520466Y-146738391D01*
X115482267Y-146730220D01*
X115417374Y-146705463D01*
X115402094Y-146698223D01*
X115378227Y-146681835D01*
X115361769Y-146654893D01*
X115351005Y-146607833D01*
X115344219Y-146531088D01*
X115339693Y-146415095D01*
X115335713Y-146250287D01*
X115334622Y-146202112D01*
X115330407Y-146049960D01*
X115324936Y-145943476D01*
X115316554Y-145872565D01*
X115303606Y-145827129D01*
X115284439Y-145797072D01*
X115257398Y-145772296D01*
X115177337Y-145728861D01*
X115078846Y-145720498D01*
X114990719Y-145753734D01*
X114927314Y-145822548D01*
X114902988Y-145920920D01*
X114902311Y-145947658D01*
X114889024Y-145996065D01*
X114849796Y-146003450D01*
X114772983Y-145974624D01*
X114755192Y-145965378D01*
X114707109Y-145911006D01*
X114706157Y-145830161D01*
X114751968Y-145718352D01*
X114793990Y-145657419D01*
X114901435Y-145570859D01*
X115034057Y-145521920D01*
X115175867Y-145515260D01*
X115310872Y-145555536D01*
G37*
X113392410Y-145520970D02*
X113456442Y-145546066D01*
X113530805Y-145579947D01*
X113530805Y-146558727D01*
X113438415Y-146651117D01*
X113417310Y-146671835D01*
X113358847Y-146717885D01*
X113299886Y-146732801D01*
X113212150Y-146725934D01*
X113176429Y-146721494D01*
X113084301Y-146712102D01*
X113019885Y-146708361D01*
X113000778Y-146708933D01*
X112922390Y-146715126D01*
X112827620Y-146725934D01*
X112797298Y-146729647D01*
X112720911Y-146731107D01*
X112665022Y-146708047D01*
X112601355Y-146651117D01*
X112508965Y-146558727D01*
X112508965Y-146035455D01*
X112509685Y-145880821D01*
X112511929Y-145733391D01*
X112515421Y-145616653D01*
X112519876Y-145539840D01*
X112525013Y-145512184D01*
X112526090Y-145512258D01*
X112563407Y-145526019D01*
X112626457Y-145556344D01*
X112711854Y-145600505D01*
X112719893Y-146059965D01*
X112727931Y-146519425D01*
X112903103Y-146519425D01*
X112911092Y-146015805D01*
X112913624Y-145878904D01*
X112917249Y-145732579D01*
X112921177Y-145616411D01*
X112925080Y-145539809D01*
X112928632Y-145512184D01*
X112929653Y-145512281D01*
X112965051Y-145522443D01*
X113030126Y-145544235D01*
X113122069Y-145576287D01*
X113122516Y-146018661D01*
X113122964Y-146095507D01*
X113126069Y-146244834D01*
X113131622Y-146369544D01*
X113139033Y-146458379D01*
X113147714Y-146500083D01*
X113178771Y-146522389D01*
X113242152Y-146529278D01*
X113311839Y-146519425D01*
X113319827Y-146015805D01*
X113322686Y-145887828D01*
X113328614Y-145736348D01*
X113336365Y-145617530D01*
X113345343Y-145539950D01*
X113354948Y-145512184D01*
X113392410Y-145520970D01*
G36*
X113392410Y-145520970D02*
G01*
X113456442Y-145546066D01*
X113530805Y-145579947D01*
X113530805Y-146558727D01*
X113438415Y-146651117D01*
X113417310Y-146671835D01*
X113358847Y-146717885D01*
X113299886Y-146732801D01*
X113212150Y-146725934D01*
X113176429Y-146721494D01*
X113084301Y-146712102D01*
X113019885Y-146708361D01*
X113000778Y-146708933D01*
X112922390Y-146715126D01*
X112827620Y-146725934D01*
X112797298Y-146729647D01*
X112720911Y-146731107D01*
X112665022Y-146708047D01*
X112601355Y-146651117D01*
X112508965Y-146558727D01*
X112508965Y-146035455D01*
X112509685Y-145880821D01*
X112511929Y-145733391D01*
X112515421Y-145616653D01*
X112519876Y-145539840D01*
X112525013Y-145512184D01*
X112526090Y-145512258D01*
X112563407Y-145526019D01*
X112626457Y-145556344D01*
X112711854Y-145600505D01*
X112719893Y-146059965D01*
X112727931Y-146519425D01*
X112903103Y-146519425D01*
X112911092Y-146015805D01*
X112913624Y-145878904D01*
X112917249Y-145732579D01*
X112921177Y-145616411D01*
X112925080Y-145539809D01*
X112928632Y-145512184D01*
X112929653Y-145512281D01*
X112965051Y-145522443D01*
X113030126Y-145544235D01*
X113122069Y-145576287D01*
X113122516Y-146018661D01*
X113122964Y-146095507D01*
X113126069Y-146244834D01*
X113131622Y-146369544D01*
X113139033Y-146458379D01*
X113147714Y-146500083D01*
X113178771Y-146522389D01*
X113242152Y-146529278D01*
X113311839Y-146519425D01*
X113319827Y-146015805D01*
X113322686Y-145887828D01*
X113328614Y-145736348D01*
X113336365Y-145617530D01*
X113345343Y-145539950D01*
X113354948Y-145512184D01*
X113392410Y-145520970D01*
G37*
X117464885Y-145118997D02*
X117559770Y-145159020D01*
X117559770Y-145948706D01*
X117559769Y-145957920D01*
X117559377Y-146165083D01*
X117558329Y-146351432D01*
X117556722Y-146509453D01*
X117554655Y-146631630D01*
X117552225Y-146710448D01*
X117549529Y-146738391D01*
X117548475Y-146738297D01*
X117512647Y-146728144D01*
X117447345Y-146706339D01*
X117355402Y-146674288D01*
X117355402Y-146262991D01*
X117354818Y-146101385D01*
X117352104Y-145984177D01*
X117345858Y-145904415D01*
X117334680Y-145851531D01*
X117317168Y-145814957D01*
X117291922Y-145784123D01*
X117274710Y-145767725D01*
X117181636Y-145722307D01*
X117079051Y-145726328D01*
X116985043Y-145780032D01*
X116971358Y-145793359D01*
X116949439Y-145821032D01*
X116934440Y-145857614D01*
X116925053Y-145913000D01*
X116919968Y-145997088D01*
X116917877Y-146119773D01*
X116917471Y-146290951D01*
X116917276Y-146377769D01*
X116916010Y-146520565D01*
X116913761Y-146634923D01*
X116910758Y-146710860D01*
X116907230Y-146738391D01*
X116906176Y-146738297D01*
X116870348Y-146728144D01*
X116805046Y-146706339D01*
X116713103Y-146674288D01*
X116713149Y-146261109D01*
X116713218Y-146224326D01*
X116717081Y-146032580D01*
X116728950Y-145887586D01*
X116751725Y-145779510D01*
X116788307Y-145698519D01*
X116841595Y-145634778D01*
X116914490Y-145578455D01*
X116985586Y-145543199D01*
X117099255Y-145515946D01*
X117211060Y-145514398D01*
X117297011Y-145540910D01*
X117303473Y-145544571D01*
X117323401Y-145544179D01*
X117337019Y-145513506D01*
X117346846Y-145443188D01*
X117355402Y-145323857D01*
X117370000Y-145078973D01*
X117464885Y-145118997D01*
G36*
X117464885Y-145118997D02*
G01*
X117559770Y-145159020D01*
X117559770Y-145948706D01*
X117559769Y-145957920D01*
X117559377Y-146165083D01*
X117558329Y-146351432D01*
X117556722Y-146509453D01*
X117554655Y-146631630D01*
X117552225Y-146710448D01*
X117549529Y-146738391D01*
X117548475Y-146738297D01*
X117512647Y-146728144D01*
X117447345Y-146706339D01*
X117355402Y-146674288D01*
X117355402Y-146262991D01*
X117354818Y-146101385D01*
X117352104Y-145984177D01*
X117345858Y-145904415D01*
X117334680Y-145851531D01*
X117317168Y-145814957D01*
X117291922Y-145784123D01*
X117274710Y-145767725D01*
X117181636Y-145722307D01*
X117079051Y-145726328D01*
X116985043Y-145780032D01*
X116971358Y-145793359D01*
X116949439Y-145821032D01*
X116934440Y-145857614D01*
X116925053Y-145913000D01*
X116919968Y-145997088D01*
X116917877Y-146119773D01*
X116917471Y-146290951D01*
X116917276Y-146377769D01*
X116916010Y-146520565D01*
X116913761Y-146634923D01*
X116910758Y-146710860D01*
X116907230Y-146738391D01*
X116906176Y-146738297D01*
X116870348Y-146728144D01*
X116805046Y-146706339D01*
X116713103Y-146674288D01*
X116713149Y-146261109D01*
X116713218Y-146224326D01*
X116717081Y-146032580D01*
X116728950Y-145887586D01*
X116751725Y-145779510D01*
X116788307Y-145698519D01*
X116841595Y-145634778D01*
X116914490Y-145578455D01*
X116985586Y-145543199D01*
X117099255Y-145515946D01*
X117211060Y-145514398D01*
X117297011Y-145540910D01*
X117303473Y-145544571D01*
X117323401Y-145544179D01*
X117337019Y-145513506D01*
X117346846Y-145443188D01*
X117355402Y-145323857D01*
X117370000Y-145078973D01*
X117464885Y-145118997D01*
G37*
X122668965Y-146096092D02*
X122668938Y-146127744D01*
X122667355Y-146268918D01*
X122661916Y-146367285D01*
X122650643Y-146435990D01*
X122631561Y-146488181D01*
X122602694Y-146537004D01*
X122595592Y-146547135D01*
X122520444Y-146627012D01*
X122434820Y-146687253D01*
X122390852Y-146706802D01*
X122232861Y-146739408D01*
X122076613Y-146718317D01*
X121932618Y-146646249D01*
X121811385Y-146525922D01*
X121801150Y-146509803D01*
X121767847Y-146416205D01*
X121745405Y-146285879D01*
X121734516Y-146135371D01*
X121735740Y-145996147D01*
X122030384Y-145996147D01*
X122032706Y-146189020D01*
X122033639Y-146201433D01*
X122047242Y-146307857D01*
X122071465Y-146375346D01*
X122112365Y-146421584D01*
X122180941Y-146464895D01*
X122248764Y-146467172D01*
X122318621Y-146417241D01*
X122330771Y-146404102D01*
X122354575Y-146364785D01*
X122368628Y-146307674D01*
X122375313Y-146219256D01*
X122377011Y-146086019D01*
X122374101Y-145961222D01*
X122359582Y-145842326D01*
X122329610Y-145767184D01*
X122280589Y-145727893D01*
X122208924Y-145716552D01*
X122181632Y-145718807D01*
X122105176Y-145760160D01*
X122054650Y-145852900D01*
X122030384Y-145996147D01*
X121735740Y-145996147D01*
X121735871Y-145981227D01*
X121750161Y-145839992D01*
X121778075Y-145728213D01*
X121813949Y-145653766D01*
X121914939Y-145537968D01*
X122051779Y-145466015D01*
X122219283Y-145441281D01*
X122264019Y-145442619D01*
X122395758Y-145470008D01*
X122503968Y-145539007D01*
X122603276Y-145657864D01*
X122609184Y-145666681D01*
X122635921Y-145714108D01*
X122653312Y-145767714D01*
X122663312Y-145840549D01*
X122667878Y-145945659D01*
X122668893Y-146086019D01*
X122668965Y-146096092D01*
G36*
X122668965Y-146096092D02*
G01*
X122668938Y-146127744D01*
X122667355Y-146268918D01*
X122661916Y-146367285D01*
X122650643Y-146435990D01*
X122631561Y-146488181D01*
X122602694Y-146537004D01*
X122595592Y-146547135D01*
X122520444Y-146627012D01*
X122434820Y-146687253D01*
X122390852Y-146706802D01*
X122232861Y-146739408D01*
X122076613Y-146718317D01*
X121932618Y-146646249D01*
X121811385Y-146525922D01*
X121801150Y-146509803D01*
X121767847Y-146416205D01*
X121745405Y-146285879D01*
X121734516Y-146135371D01*
X121735740Y-145996147D01*
X122030384Y-145996147D01*
X122032706Y-146189020D01*
X122033639Y-146201433D01*
X122047242Y-146307857D01*
X122071465Y-146375346D01*
X122112365Y-146421584D01*
X122180941Y-146464895D01*
X122248764Y-146467172D01*
X122318621Y-146417241D01*
X122330771Y-146404102D01*
X122354575Y-146364785D01*
X122368628Y-146307674D01*
X122375313Y-146219256D01*
X122377011Y-146086019D01*
X122374101Y-145961222D01*
X122359582Y-145842326D01*
X122329610Y-145767184D01*
X122280589Y-145727893D01*
X122208924Y-145716552D01*
X122181632Y-145718807D01*
X122105176Y-145760160D01*
X122054650Y-145852900D01*
X122030384Y-145996147D01*
X121735740Y-145996147D01*
X121735871Y-145981227D01*
X121750161Y-145839992D01*
X121778075Y-145728213D01*
X121813949Y-145653766D01*
X121914939Y-145537968D01*
X122051779Y-145466015D01*
X122219283Y-145441281D01*
X122264019Y-145442619D01*
X122395758Y-145470008D01*
X122503968Y-145539007D01*
X122603276Y-145657864D01*
X122609184Y-145666681D01*
X122635921Y-145714108D01*
X122653312Y-145767714D01*
X122663312Y-145840549D01*
X122667878Y-145945659D01*
X122668893Y-146086019D01*
X122668965Y-146096092D01*
G37*
X110348313Y-146131136D02*
X110347744Y-146208946D01*
X110340612Y-146362254D01*
X110321948Y-146474441D01*
X110287537Y-146557554D01*
X110233162Y-146623641D01*
X110154610Y-146684747D01*
X110104630Y-146712535D01*
X110024513Y-146731251D01*
X109911970Y-146729774D01*
X109849050Y-146723845D01*
X109773153Y-146705742D01*
X109712487Y-146666391D01*
X109641912Y-146593066D01*
X109632482Y-146582356D01*
X109569034Y-146499938D01*
X109538762Y-146428156D01*
X109531034Y-146343034D01*
X109531034Y-146217946D01*
X109618447Y-146250940D01*
X109682175Y-146289509D01*
X109737567Y-146380008D01*
X109749131Y-146408983D01*
X109813788Y-146491041D01*
X109901804Y-146532347D01*
X109997637Y-146528633D01*
X110085747Y-146475632D01*
X110116028Y-146442582D01*
X110143489Y-146392720D01*
X110134899Y-146347416D01*
X110085463Y-146300790D01*
X109990389Y-146246958D01*
X109844885Y-146180039D01*
X109545632Y-146049056D01*
X109537691Y-145919298D01*
X109540676Y-145836649D01*
X109735652Y-145836649D01*
X109750453Y-145887815D01*
X109817797Y-145942442D01*
X109940027Y-146004597D01*
X109960253Y-146013601D01*
X110056970Y-146055493D01*
X110129334Y-146084958D01*
X110162961Y-146096092D01*
X110168056Y-146087896D01*
X110170101Y-146037853D01*
X110162812Y-145957414D01*
X110144452Y-145878753D01*
X110087188Y-145779651D01*
X110004524Y-145723808D01*
X109905784Y-145716250D01*
X109800289Y-145762000D01*
X109771053Y-145784876D01*
X109735652Y-145836649D01*
X109540676Y-145836649D01*
X109541196Y-145822255D01*
X109585336Y-145699617D01*
X109641050Y-145632034D01*
X109756561Y-145556540D01*
X109893588Y-145518403D01*
X110035237Y-145521422D01*
X110164617Y-145569393D01*
X110193099Y-145587813D01*
X110258428Y-145644811D01*
X110303106Y-145716916D01*
X110330641Y-145814853D01*
X110344541Y-145949351D01*
X110346378Y-146037853D01*
X110348313Y-146131136D01*
G36*
X110348313Y-146131136D02*
G01*
X110347744Y-146208946D01*
X110340612Y-146362254D01*
X110321948Y-146474441D01*
X110287537Y-146557554D01*
X110233162Y-146623641D01*
X110154610Y-146684747D01*
X110104630Y-146712535D01*
X110024513Y-146731251D01*
X109911970Y-146729774D01*
X109849050Y-146723845D01*
X109773153Y-146705742D01*
X109712487Y-146666391D01*
X109641912Y-146593066D01*
X109632482Y-146582356D01*
X109569034Y-146499938D01*
X109538762Y-146428156D01*
X109531034Y-146343034D01*
X109531034Y-146217946D01*
X109618447Y-146250940D01*
X109682175Y-146289509D01*
X109737567Y-146380008D01*
X109749131Y-146408983D01*
X109813788Y-146491041D01*
X109901804Y-146532347D01*
X109997637Y-146528633D01*
X110085747Y-146475632D01*
X110116028Y-146442582D01*
X110143489Y-146392720D01*
X110134899Y-146347416D01*
X110085463Y-146300790D01*
X109990389Y-146246958D01*
X109844885Y-146180039D01*
X109545632Y-146049056D01*
X109537691Y-145919298D01*
X109540676Y-145836649D01*
X109735652Y-145836649D01*
X109750453Y-145887815D01*
X109817797Y-145942442D01*
X109940027Y-146004597D01*
X109960253Y-146013601D01*
X110056970Y-146055493D01*
X110129334Y-146084958D01*
X110162961Y-146096092D01*
X110168056Y-146087896D01*
X110170101Y-146037853D01*
X110162812Y-145957414D01*
X110144452Y-145878753D01*
X110087188Y-145779651D01*
X110004524Y-145723808D01*
X109905784Y-145716250D01*
X109800289Y-145762000D01*
X109771053Y-145784876D01*
X109735652Y-145836649D01*
X109540676Y-145836649D01*
X109541196Y-145822255D01*
X109585336Y-145699617D01*
X109641050Y-145632034D01*
X109756561Y-145556540D01*
X109893588Y-145518403D01*
X110035237Y-145521422D01*
X110164617Y-145569393D01*
X110193099Y-145587813D01*
X110258428Y-145644811D01*
X110303106Y-145716916D01*
X110330641Y-145814853D01*
X110344541Y-145949351D01*
X110346378Y-146037853D01*
X110348313Y-146131136D01*
G37*
X114552553Y-146125287D02*
X114550219Y-146239135D01*
X114533739Y-146394320D01*
X114497883Y-146510612D01*
X114438455Y-146599411D01*
X114351257Y-146672119D01*
X114268195Y-146714150D01*
X114128709Y-146737538D01*
X113989412Y-146711965D01*
X113863510Y-146640694D01*
X113764210Y-146526991D01*
X113752219Y-146506024D01*
X113736384Y-146469291D01*
X113724638Y-146422415D01*
X113716378Y-146357355D01*
X113710998Y-146266070D01*
X113707892Y-146140519D01*
X113707797Y-146129379D01*
X113910345Y-146129379D01*
X113911035Y-146235644D01*
X113915400Y-146331762D01*
X113926192Y-146393811D01*
X113946126Y-146435502D01*
X113977916Y-146470543D01*
X113985364Y-146477279D01*
X114081060Y-146526992D01*
X114182312Y-146521905D01*
X114276614Y-146462362D01*
X114304694Y-146431514D01*
X114328196Y-146390618D01*
X114341322Y-146334080D01*
X114347030Y-146247657D01*
X114348276Y-146117106D01*
X114347661Y-146017487D01*
X114343407Y-145920251D01*
X114332682Y-145857502D01*
X114312707Y-145815382D01*
X114280704Y-145780032D01*
X114261905Y-145764114D01*
X114164492Y-145721235D01*
X114062437Y-145727985D01*
X113973825Y-145784123D01*
X113954749Y-145806382D01*
X113931486Y-145848293D01*
X113918036Y-145906822D01*
X113911841Y-145995880D01*
X113910345Y-146129379D01*
X113707797Y-146129379D01*
X113706457Y-145972661D01*
X113706086Y-145754455D01*
X113705977Y-145077072D01*
X113800862Y-145116819D01*
X113825949Y-145127699D01*
X113865881Y-145152268D01*
X113888739Y-145189475D01*
X113901301Y-145254541D01*
X113910345Y-145362687D01*
X113918605Y-145459788D01*
X113929523Y-145523535D01*
X113945165Y-145547323D01*
X113968736Y-145540943D01*
X114028801Y-145518525D01*
X114136145Y-145512967D01*
X114251624Y-145533728D01*
X114351257Y-145578455D01*
X114406072Y-145619856D01*
X114476452Y-145700632D01*
X114521528Y-145804195D01*
X114545496Y-145941947D01*
X114552239Y-146117106D01*
X114552553Y-146125287D01*
G36*
X114552553Y-146125287D02*
G01*
X114550219Y-146239135D01*
X114533739Y-146394320D01*
X114497883Y-146510612D01*
X114438455Y-146599411D01*
X114351257Y-146672119D01*
X114268195Y-146714150D01*
X114128709Y-146737538D01*
X113989412Y-146711965D01*
X113863510Y-146640694D01*
X113764210Y-146526991D01*
X113752219Y-146506024D01*
X113736384Y-146469291D01*
X113724638Y-146422415D01*
X113716378Y-146357355D01*
X113710998Y-146266070D01*
X113707892Y-146140519D01*
X113707797Y-146129379D01*
X113910345Y-146129379D01*
X113911035Y-146235644D01*
X113915400Y-146331762D01*
X113926192Y-146393811D01*
X113946126Y-146435502D01*
X113977916Y-146470543D01*
X113985364Y-146477279D01*
X114081060Y-146526992D01*
X114182312Y-146521905D01*
X114276614Y-146462362D01*
X114304694Y-146431514D01*
X114328196Y-146390618D01*
X114341322Y-146334080D01*
X114347030Y-146247657D01*
X114348276Y-146117106D01*
X114347661Y-146017487D01*
X114343407Y-145920251D01*
X114332682Y-145857502D01*
X114312707Y-145815382D01*
X114280704Y-145780032D01*
X114261905Y-145764114D01*
X114164492Y-145721235D01*
X114062437Y-145727985D01*
X113973825Y-145784123D01*
X113954749Y-145806382D01*
X113931486Y-145848293D01*
X113918036Y-145906822D01*
X113911841Y-145995880D01*
X113910345Y-146129379D01*
X113707797Y-146129379D01*
X113706457Y-145972661D01*
X113706086Y-145754455D01*
X113705977Y-145077072D01*
X113800862Y-145116819D01*
X113825949Y-145127699D01*
X113865881Y-145152268D01*
X113888739Y-145189475D01*
X113901301Y-145254541D01*
X113910345Y-145362687D01*
X113918605Y-145459788D01*
X113929523Y-145523535D01*
X113945165Y-145547323D01*
X113968736Y-145540943D01*
X114028801Y-145518525D01*
X114136145Y-145512967D01*
X114251624Y-145533728D01*
X114351257Y-145578455D01*
X114406072Y-145619856D01*
X114476452Y-145700632D01*
X114521528Y-145804195D01*
X114545496Y-145941947D01*
X114552239Y-146117106D01*
X114552553Y-146125287D01*
G37*
X120449452Y-146013329D02*
X120440168Y-146234639D01*
X120434926Y-146281526D01*
X120395868Y-146448409D01*
X120325290Y-146575326D01*
X120217955Y-146672602D01*
X120211888Y-146676616D01*
X120075440Y-146733706D01*
X119932973Y-146738786D01*
X119795696Y-146695311D01*
X119674819Y-146606734D01*
X119581552Y-146476509D01*
X119579986Y-146473369D01*
X119548993Y-146392501D01*
X119526292Y-146300593D01*
X119514250Y-146214311D01*
X119515237Y-146150321D01*
X119531623Y-146125287D01*
X119546179Y-146126809D01*
X119615792Y-146154496D01*
X119694697Y-146205409D01*
X119761820Y-146264343D01*
X119796087Y-146316094D01*
X119831707Y-146386291D01*
X119904711Y-146450138D01*
X119989485Y-146475632D01*
X120020558Y-146468261D01*
X120081891Y-146431154D01*
X120135315Y-146379644D01*
X120158161Y-146332913D01*
X120158154Y-146332740D01*
X120132233Y-146311280D01*
X120063127Y-146272565D01*
X119961249Y-146222037D01*
X119837011Y-146165134D01*
X119836328Y-146164833D01*
X119701355Y-146104738D01*
X119610884Y-146061440D01*
X119556039Y-146028179D01*
X119527944Y-145998194D01*
X119517724Y-145964726D01*
X119516503Y-145921015D01*
X119524996Y-145838244D01*
X119813219Y-145838244D01*
X119842970Y-145864265D01*
X119917101Y-145903256D01*
X119919274Y-145904359D01*
X120006733Y-145946009D01*
X120084974Y-145979235D01*
X120134611Y-145993291D01*
X120154521Y-145974503D01*
X120158161Y-145910124D01*
X120143035Y-145830001D01*
X120090597Y-145757189D01*
X120014677Y-145719439D01*
X119930040Y-145723251D01*
X119851447Y-145775121D01*
X119820555Y-145810965D01*
X119813219Y-145838244D01*
X119524996Y-145838244D01*
X119527251Y-145816265D01*
X119580389Y-145673949D01*
X119669342Y-145562111D01*
X119784448Y-145484676D01*
X119916045Y-145445568D01*
X120054472Y-145448711D01*
X120190065Y-145498030D01*
X120313164Y-145597447D01*
X120381366Y-145695829D01*
X120430356Y-145836261D01*
X120438322Y-145910124D01*
X120449452Y-146013329D01*
G36*
X120449452Y-146013329D02*
G01*
X120440168Y-146234639D01*
X120434926Y-146281526D01*
X120395868Y-146448409D01*
X120325290Y-146575326D01*
X120217955Y-146672602D01*
X120211888Y-146676616D01*
X120075440Y-146733706D01*
X119932973Y-146738786D01*
X119795696Y-146695311D01*
X119674819Y-146606734D01*
X119581552Y-146476509D01*
X119579986Y-146473369D01*
X119548993Y-146392501D01*
X119526292Y-146300593D01*
X119514250Y-146214311D01*
X119515237Y-146150321D01*
X119531623Y-146125287D01*
X119546179Y-146126809D01*
X119615792Y-146154496D01*
X119694697Y-146205409D01*
X119761820Y-146264343D01*
X119796087Y-146316094D01*
X119831707Y-146386291D01*
X119904711Y-146450138D01*
X119989485Y-146475632D01*
X120020558Y-146468261D01*
X120081891Y-146431154D01*
X120135315Y-146379644D01*
X120158161Y-146332913D01*
X120158154Y-146332740D01*
X120132233Y-146311280D01*
X120063127Y-146272565D01*
X119961249Y-146222037D01*
X119837011Y-146165134D01*
X119836328Y-146164833D01*
X119701355Y-146104738D01*
X119610884Y-146061440D01*
X119556039Y-146028179D01*
X119527944Y-145998194D01*
X119517724Y-145964726D01*
X119516503Y-145921015D01*
X119524996Y-145838244D01*
X119813219Y-145838244D01*
X119842970Y-145864265D01*
X119917101Y-145903256D01*
X119919274Y-145904359D01*
X120006733Y-145946009D01*
X120084974Y-145979235D01*
X120134611Y-145993291D01*
X120154521Y-145974503D01*
X120158161Y-145910124D01*
X120143035Y-145830001D01*
X120090597Y-145757189D01*
X120014677Y-145719439D01*
X119930040Y-145723251D01*
X119851447Y-145775121D01*
X119820555Y-145810965D01*
X119813219Y-145838244D01*
X119524996Y-145838244D01*
X119527251Y-145816265D01*
X119580389Y-145673949D01*
X119669342Y-145562111D01*
X119784448Y-145484676D01*
X119916045Y-145445568D01*
X120054472Y-145448711D01*
X120190065Y-145498030D01*
X120313164Y-145597447D01*
X120381366Y-145695829D01*
X120430356Y-145836261D01*
X120438322Y-145910124D01*
X120449452Y-146013329D01*
G37*
X116279995Y-145543674D02*
X116380355Y-145602191D01*
X116424505Y-145647784D01*
X116509347Y-145784072D01*
X116537931Y-145932658D01*
X116537931Y-146034882D01*
X116443963Y-145995372D01*
X116378977Y-145955504D01*
X116327763Y-145872734D01*
X116322504Y-145855669D01*
X116265903Y-145768724D01*
X116180594Y-145721758D01*
X116082641Y-145719741D01*
X115988106Y-145767644D01*
X115973993Y-145779998D01*
X115926797Y-145833683D01*
X115919003Y-145880488D01*
X115954706Y-145926446D01*
X116038003Y-145977588D01*
X116172988Y-146039948D01*
X116182118Y-146043897D01*
X116331969Y-146113772D01*
X116434316Y-146175672D01*
X116497320Y-146237476D01*
X116529138Y-146307062D01*
X116537931Y-146392308D01*
X116526409Y-146486816D01*
X116468228Y-146607785D01*
X116365875Y-146694688D01*
X116291843Y-146720778D01*
X116187367Y-146735055D01*
X116085917Y-146732006D01*
X116013472Y-146710467D01*
X116005777Y-146705104D01*
X115985341Y-146667632D01*
X115999522Y-146601591D01*
X116024161Y-146549753D01*
X116063670Y-146528172D01*
X116138602Y-146529246D01*
X116242630Y-146523055D01*
X116310605Y-146480311D01*
X116333563Y-146401189D01*
X116333542Y-146398916D01*
X116319629Y-146352986D01*
X116272303Y-146310845D01*
X116180287Y-146262272D01*
X116055151Y-146203790D01*
X115972268Y-146171975D01*
X115924420Y-146174025D01*
X115902063Y-146216051D01*
X115895649Y-146304162D01*
X115895632Y-146444469D01*
X115894917Y-146531081D01*
X115891635Y-146638041D01*
X115886300Y-146711250D01*
X115879585Y-146738391D01*
X115877790Y-146738206D01*
X115838982Y-146723498D01*
X115774709Y-146692456D01*
X115685880Y-146646521D01*
X115696436Y-146232628D01*
X115697171Y-146205179D01*
X115705555Y-146012517D01*
X115720366Y-145867309D01*
X115744629Y-145759887D01*
X115781364Y-145680584D01*
X115833597Y-145619730D01*
X115904348Y-145567658D01*
X115905657Y-145566842D01*
X116020056Y-145524360D01*
X116152365Y-145517184D01*
X116279995Y-145543674D01*
G36*
X116279995Y-145543674D02*
G01*
X116380355Y-145602191D01*
X116424505Y-145647784D01*
X116509347Y-145784072D01*
X116537931Y-145932658D01*
X116537931Y-146034882D01*
X116443963Y-145995372D01*
X116378977Y-145955504D01*
X116327763Y-145872734D01*
X116322504Y-145855669D01*
X116265903Y-145768724D01*
X116180594Y-145721758D01*
X116082641Y-145719741D01*
X115988106Y-145767644D01*
X115973993Y-145779998D01*
X115926797Y-145833683D01*
X115919003Y-145880488D01*
X115954706Y-145926446D01*
X116038003Y-145977588D01*
X116172988Y-146039948D01*
X116182118Y-146043897D01*
X116331969Y-146113772D01*
X116434316Y-146175672D01*
X116497320Y-146237476D01*
X116529138Y-146307062D01*
X116537931Y-146392308D01*
X116526409Y-146486816D01*
X116468228Y-146607785D01*
X116365875Y-146694688D01*
X116291843Y-146720778D01*
X116187367Y-146735055D01*
X116085917Y-146732006D01*
X116013472Y-146710467D01*
X116005777Y-146705104D01*
X115985341Y-146667632D01*
X115999522Y-146601591D01*
X116024161Y-146549753D01*
X116063670Y-146528172D01*
X116138602Y-146529246D01*
X116242630Y-146523055D01*
X116310605Y-146480311D01*
X116333563Y-146401189D01*
X116333542Y-146398916D01*
X116319629Y-146352986D01*
X116272303Y-146310845D01*
X116180287Y-146262272D01*
X116055151Y-146203790D01*
X115972268Y-146171975D01*
X115924420Y-146174025D01*
X115902063Y-146216051D01*
X115895649Y-146304162D01*
X115895632Y-146444469D01*
X115894917Y-146531081D01*
X115891635Y-146638041D01*
X115886300Y-146711250D01*
X115879585Y-146738391D01*
X115877790Y-146738206D01*
X115838982Y-146723498D01*
X115774709Y-146692456D01*
X115685880Y-146646521D01*
X115696436Y-146232628D01*
X115697171Y-146205179D01*
X115705555Y-146012517D01*
X115720366Y-145867309D01*
X115744629Y-145759887D01*
X115781364Y-145680584D01*
X115833597Y-145619730D01*
X115904348Y-145567658D01*
X115905657Y-145566842D01*
X116020056Y-145524360D01*
X116152365Y-145517184D01*
X116279995Y-145543674D01*
G37*
X121550778Y-146229502D02*
X121553668Y-146453736D01*
X121554471Y-146518785D01*
X121557040Y-146736260D01*
X121557556Y-146902672D01*
X121554437Y-147023846D01*
X121546100Y-147105607D01*
X121530962Y-147153781D01*
X121507441Y-147174194D01*
X121473956Y-147172672D01*
X121428923Y-147155039D01*
X121370761Y-147127121D01*
X121358332Y-147121164D01*
X121306578Y-147092006D01*
X121279550Y-147057314D01*
X121269207Y-146999470D01*
X121267509Y-146900857D01*
X121267433Y-146723793D01*
X121085038Y-146723793D01*
X120972840Y-146718880D01*
X120884620Y-146698953D01*
X120811358Y-146658678D01*
X120805896Y-146654741D01*
X120731558Y-146588243D01*
X120679823Y-146507908D01*
X120647196Y-146402758D01*
X120630182Y-146261815D01*
X120626030Y-146102588D01*
X120917241Y-146102588D01*
X120917291Y-146129276D01*
X120920064Y-146249738D01*
X120928967Y-146328484D01*
X120946617Y-146379618D01*
X120975632Y-146417241D01*
X120977440Y-146419038D01*
X121048753Y-146467720D01*
X121117865Y-146462921D01*
X121195925Y-146403971D01*
X121215019Y-146383823D01*
X121243142Y-146342515D01*
X121259000Y-146288787D01*
X121266009Y-146207326D01*
X121267586Y-146082821D01*
X121266220Y-146007445D01*
X121251402Y-145870362D01*
X121217579Y-145780548D01*
X121161389Y-145731460D01*
X121079472Y-145716552D01*
X121044956Y-145719729D01*
X120985235Y-145751254D01*
X120945752Y-145821505D01*
X120923942Y-145936583D01*
X120917241Y-146102588D01*
X120626030Y-146102588D01*
X120625287Y-146074101D01*
X120626371Y-145937122D01*
X120631307Y-145833364D01*
X120642272Y-145761412D01*
X120661438Y-145707500D01*
X120690977Y-145657864D01*
X120718092Y-145619931D01*
X120816550Y-145517522D01*
X120928100Y-145461903D01*
X121068246Y-145444297D01*
X121228635Y-145461847D01*
X121367288Y-145524797D01*
X121476951Y-145635824D01*
X121485218Y-145647578D01*
X121504499Y-145678813D01*
X121519269Y-145714507D01*
X121530254Y-145762364D01*
X121538174Y-145830087D01*
X121543753Y-145925382D01*
X121547713Y-146055952D01*
X121548188Y-146082821D01*
X121550778Y-146229502D01*
G36*
X121550778Y-146229502D02*
G01*
X121553668Y-146453736D01*
X121554471Y-146518785D01*
X121557040Y-146736260D01*
X121557556Y-146902672D01*
X121554437Y-147023846D01*
X121546100Y-147105607D01*
X121530962Y-147153781D01*
X121507441Y-147174194D01*
X121473956Y-147172672D01*
X121428923Y-147155039D01*
X121370761Y-147127121D01*
X121358332Y-147121164D01*
X121306578Y-147092006D01*
X121279550Y-147057314D01*
X121269207Y-146999470D01*
X121267509Y-146900857D01*
X121267433Y-146723793D01*
X121085038Y-146723793D01*
X120972840Y-146718880D01*
X120884620Y-146698953D01*
X120811358Y-146658678D01*
X120805896Y-146654741D01*
X120731558Y-146588243D01*
X120679823Y-146507908D01*
X120647196Y-146402758D01*
X120630182Y-146261815D01*
X120626030Y-146102588D01*
X120917241Y-146102588D01*
X120917291Y-146129276D01*
X120920064Y-146249738D01*
X120928967Y-146328484D01*
X120946617Y-146379618D01*
X120975632Y-146417241D01*
X120977440Y-146419038D01*
X121048753Y-146467720D01*
X121117865Y-146462921D01*
X121195925Y-146403971D01*
X121215019Y-146383823D01*
X121243142Y-146342515D01*
X121259000Y-146288787D01*
X121266009Y-146207326D01*
X121267586Y-146082821D01*
X121266220Y-146007445D01*
X121251402Y-145870362D01*
X121217579Y-145780548D01*
X121161389Y-145731460D01*
X121079472Y-145716552D01*
X121044956Y-145719729D01*
X120985235Y-145751254D01*
X120945752Y-145821505D01*
X120923942Y-145936583D01*
X120917241Y-146102588D01*
X120626030Y-146102588D01*
X120625287Y-146074101D01*
X120626371Y-145937122D01*
X120631307Y-145833364D01*
X120642272Y-145761412D01*
X120661438Y-145707500D01*
X120690977Y-145657864D01*
X120718092Y-145619931D01*
X120816550Y-145517522D01*
X120928100Y-145461903D01*
X121068246Y-145444297D01*
X121228635Y-145461847D01*
X121367288Y-145524797D01*
X121476951Y-145635824D01*
X121485218Y-145647578D01*
X121504499Y-145678813D01*
X121519269Y-145714507D01*
X121530254Y-145762364D01*
X121538174Y-145830087D01*
X121543753Y-145925382D01*
X121547713Y-146055952D01*
X121548188Y-146082821D01*
X121550778Y-146229502D01*
G37*
X112011628Y-145514810D02*
X112074194Y-145530702D01*
X112132446Y-145570322D01*
X112207418Y-145644076D01*
X112255633Y-145696163D01*
X112305858Y-145763786D01*
X112328510Y-145827168D01*
X112333793Y-145907584D01*
X112333793Y-146039201D01*
X112244035Y-145992785D01*
X112172904Y-145936225D01*
X112124183Y-145860040D01*
X112115814Y-145839326D01*
X112052056Y-145759041D01*
X111963470Y-145718784D01*
X111866873Y-145722702D01*
X111779080Y-145774943D01*
X111741936Y-145817370D01*
X111720300Y-145871647D01*
X111743461Y-145919954D01*
X111815479Y-145968545D01*
X111940410Y-146023677D01*
X111959368Y-146031292D01*
X112073105Y-146081125D01*
X112170706Y-146130265D01*
X112232803Y-146169080D01*
X112294999Y-146238411D01*
X112336346Y-146349051D01*
X112331957Y-146467782D01*
X112283037Y-146580148D01*
X112190797Y-146671690D01*
X112116110Y-146710658D01*
X111971832Y-146737944D01*
X111891656Y-146734263D01*
X111817435Y-146714360D01*
X111788960Y-146672598D01*
X111799608Y-146603820D01*
X111802705Y-146594726D01*
X111827268Y-146546498D01*
X111868165Y-146528245D01*
X111946079Y-146529466D01*
X112001091Y-146531126D01*
X112065459Y-146516881D01*
X112109561Y-146474292D01*
X112134680Y-146421857D01*
X112137481Y-146366929D01*
X112137352Y-146366608D01*
X112104785Y-146336928D01*
X112035083Y-146293735D01*
X111944898Y-146245461D01*
X111850883Y-146200539D01*
X111769689Y-146167402D01*
X111717968Y-146154483D01*
X111710274Y-146167134D01*
X111700588Y-146226668D01*
X111693954Y-146323887D01*
X111691494Y-146446437D01*
X111690922Y-146531263D01*
X111688225Y-146638094D01*
X111683821Y-146711257D01*
X111678270Y-146738391D01*
X111649254Y-146729272D01*
X111590684Y-146704509D01*
X111516322Y-146670627D01*
X111516322Y-146235933D01*
X111516797Y-146124508D01*
X111521293Y-145955301D01*
X111532747Y-145829769D01*
X111553828Y-145738363D01*
X111587206Y-145671532D01*
X111635550Y-145619726D01*
X111701531Y-145573393D01*
X111785594Y-145535156D01*
X111940807Y-145512184D01*
X112011628Y-145514810D01*
G36*
X112011628Y-145514810D02*
G01*
X112074194Y-145530702D01*
X112132446Y-145570322D01*
X112207418Y-145644076D01*
X112255633Y-145696163D01*
X112305858Y-145763786D01*
X112328510Y-145827168D01*
X112333793Y-145907584D01*
X112333793Y-146039201D01*
X112244035Y-145992785D01*
X112172904Y-145936225D01*
X112124183Y-145860040D01*
X112115814Y-145839326D01*
X112052056Y-145759041D01*
X111963470Y-145718784D01*
X111866873Y-145722702D01*
X111779080Y-145774943D01*
X111741936Y-145817370D01*
X111720300Y-145871647D01*
X111743461Y-145919954D01*
X111815479Y-145968545D01*
X111940410Y-146023677D01*
X111959368Y-146031292D01*
X112073105Y-146081125D01*
X112170706Y-146130265D01*
X112232803Y-146169080D01*
X112294999Y-146238411D01*
X112336346Y-146349051D01*
X112331957Y-146467782D01*
X112283037Y-146580148D01*
X112190797Y-146671690D01*
X112116110Y-146710658D01*
X111971832Y-146737944D01*
X111891656Y-146734263D01*
X111817435Y-146714360D01*
X111788960Y-146672598D01*
X111799608Y-146603820D01*
X111802705Y-146594726D01*
X111827268Y-146546498D01*
X111868165Y-146528245D01*
X111946079Y-146529466D01*
X112001091Y-146531126D01*
X112065459Y-146516881D01*
X112109561Y-146474292D01*
X112134680Y-146421857D01*
X112137481Y-146366929D01*
X112137352Y-146366608D01*
X112104785Y-146336928D01*
X112035083Y-146293735D01*
X111944898Y-146245461D01*
X111850883Y-146200539D01*
X111769689Y-146167402D01*
X111717968Y-146154483D01*
X111710274Y-146167134D01*
X111700588Y-146226668D01*
X111693954Y-146323887D01*
X111691494Y-146446437D01*
X111690922Y-146531263D01*
X111688225Y-146638094D01*
X111683821Y-146711257D01*
X111678270Y-146738391D01*
X111649254Y-146729272D01*
X111590684Y-146704509D01*
X111516322Y-146670627D01*
X111516322Y-146235933D01*
X111516797Y-146124508D01*
X111521293Y-145955301D01*
X111532747Y-145829769D01*
X111553828Y-145738363D01*
X111587206Y-145671532D01*
X111635550Y-145619726D01*
X111701531Y-145573393D01*
X111785594Y-145535156D01*
X111940807Y-145512184D01*
X112011628Y-145514810D01*
G37*
X116329175Y-136053045D02*
X116481895Y-136054039D01*
X116591792Y-136056593D01*
X116666235Y-136061445D01*
X116712594Y-136069331D01*
X116738239Y-136080988D01*
X116750539Y-136097153D01*
X116756865Y-136118563D01*
X116757047Y-136119332D01*
X116767441Y-136169663D01*
X116786339Y-136266888D01*
X116811802Y-136400810D01*
X116841890Y-136561235D01*
X116874664Y-136737967D01*
X116877337Y-136752428D01*
X116910010Y-136923959D01*
X116940413Y-137074625D01*
X116966568Y-137195267D01*
X116986496Y-137276729D01*
X116998220Y-137309852D01*
X116998282Y-137309905D01*
X117035229Y-137328229D01*
X117111057Y-137358677D01*
X117209425Y-137394685D01*
X117214965Y-137396640D01*
X117340724Y-137444170D01*
X117487011Y-137503783D01*
X117623293Y-137563056D01*
X117847390Y-137664765D01*
X118343618Y-137325897D01*
X118378570Y-137302063D01*
X118528280Y-137200755D01*
X118661867Y-137111575D01*
X118771343Y-137039773D01*
X118848718Y-136990603D01*
X118886004Y-136969317D01*
X118911552Y-136974196D01*
X118969555Y-137012002D01*
X119059195Y-137086870D01*
X119182957Y-137200903D01*
X119343328Y-137356205D01*
X119357679Y-137370341D01*
X119484933Y-137496999D01*
X119597969Y-137611745D01*
X119689867Y-137707391D01*
X119753707Y-137776746D01*
X119782570Y-137812620D01*
X119782664Y-137812794D01*
X119786331Y-137840106D01*
X119772808Y-137884408D01*
X119738684Y-137951761D01*
X119680548Y-138048226D01*
X119594988Y-138179863D01*
X119478594Y-138352734D01*
X119458759Y-138381912D01*
X119358445Y-138529726D01*
X119269923Y-138660577D01*
X119198465Y-138766643D01*
X119149343Y-138840102D01*
X119127831Y-138873130D01*
X119126208Y-138880126D01*
X119136387Y-138932326D01*
X119166879Y-139017561D01*
X119212712Y-139121291D01*
X119275000Y-139256951D01*
X119344548Y-139417921D01*
X119403609Y-139563621D01*
X119418252Y-139601333D01*
X119456600Y-139697622D01*
X119484770Y-139764704D01*
X119497497Y-139789885D01*
X119511545Y-139791767D01*
X119574681Y-139802651D01*
X119678019Y-139821449D01*
X119810809Y-139846115D01*
X119962297Y-139874604D01*
X120121732Y-139904873D01*
X120278361Y-139934875D01*
X120421433Y-139962566D01*
X120540195Y-139985900D01*
X120623896Y-140002833D01*
X120661782Y-140011320D01*
X120668063Y-140013713D01*
X120683373Y-140026619D01*
X120694763Y-140054096D01*
X120702803Y-140103446D01*
X120708064Y-140181973D01*
X120711116Y-140296980D01*
X120712529Y-140455770D01*
X120712873Y-140665645D01*
X120712873Y-141303906D01*
X120559598Y-141334160D01*
X120541057Y-141337785D01*
X120442596Y-141356569D01*
X120306448Y-141382093D01*
X120148087Y-141411468D01*
X119982988Y-141441806D01*
X119917973Y-141454009D01*
X119772697Y-141483697D01*
X119651626Y-141511770D01*
X119565886Y-141535536D01*
X119526601Y-141552301D01*
X119508799Y-141579694D01*
X119476389Y-141652174D01*
X119443234Y-141745977D01*
X119431564Y-141781103D01*
X119388604Y-141896409D01*
X119333192Y-142032876D01*
X119274353Y-142167954D01*
X119242884Y-142238509D01*
X119198051Y-142343895D01*
X119167240Y-142422818D01*
X119155785Y-142462053D01*
X119156422Y-142465014D01*
X119178150Y-142506639D01*
X119227146Y-142586969D01*
X119298438Y-142698220D01*
X119387054Y-142832605D01*
X119488023Y-142982340D01*
X119820261Y-143469931D01*
X119383771Y-143907149D01*
X119341555Y-143949221D01*
X119212470Y-144075153D01*
X119097107Y-144183754D01*
X119002224Y-144268903D01*
X118934582Y-144324482D01*
X118900938Y-144344368D01*
X118864402Y-144329238D01*
X118787890Y-144285801D01*
X118680196Y-144219270D01*
X118549767Y-144134867D01*
X118405052Y-144037816D01*
X118262910Y-143941964D01*
X118134678Y-143857557D01*
X118030054Y-143790850D01*
X117957171Y-143747024D01*
X117924158Y-143731264D01*
X117922223Y-143731408D01*
X117878369Y-143746945D01*
X117800598Y-143783121D01*
X117704392Y-143832785D01*
X117703381Y-143833329D01*
X117575605Y-143897326D01*
X117488051Y-143928591D01*
X117433726Y-143928677D01*
X117405641Y-143899138D01*
X117393752Y-143870061D01*
X117361668Y-143792188D01*
X117312247Y-143672475D01*
X117248118Y-143517286D01*
X117171911Y-143332984D01*
X117086255Y-143125933D01*
X116993781Y-142902496D01*
X116909962Y-142699226D01*
X116824678Y-142490649D01*
X116749222Y-142304263D01*
X116686126Y-142146407D01*
X116637923Y-142023419D01*
X116607144Y-141941639D01*
X116596322Y-141907406D01*
X116616991Y-141876015D01*
X116674409Y-141823602D01*
X116755688Y-141762704D01*
X116950820Y-141603387D01*
X117125445Y-141399807D01*
X117253235Y-141175808D01*
X117333402Y-140938003D01*
X117365160Y-140693007D01*
X117347722Y-140447433D01*
X117280301Y-140207895D01*
X117162111Y-139981007D01*
X116992364Y-139773383D01*
X116903856Y-139692527D01*
X116691804Y-139549559D01*
X116464905Y-139456352D01*
X116229791Y-139410687D01*
X115993094Y-139410344D01*
X115761446Y-139453105D01*
X115541478Y-139536750D01*
X115339822Y-139659061D01*
X115163111Y-139817817D01*
X115017977Y-140010801D01*
X114911050Y-140235793D01*
X114848964Y-140490575D01*
X114837569Y-140613377D01*
X114853246Y-140879434D01*
X114923846Y-141131856D01*
X115047282Y-141366182D01*
X115221466Y-141577952D01*
X115444311Y-141762704D01*
X115522561Y-141821123D01*
X115581244Y-141874110D01*
X115603678Y-141907356D01*
X115594732Y-141936339D01*
X115565703Y-142013996D01*
X115519026Y-142133451D01*
X115457231Y-142288362D01*
X115382850Y-142472392D01*
X115298412Y-142679200D01*
X115206449Y-142902446D01*
X115122771Y-143104742D01*
X115036366Y-143313686D01*
X114959138Y-143500498D01*
X114893716Y-143658814D01*
X114842731Y-143782269D01*
X114808812Y-143864498D01*
X114794590Y-143899138D01*
X114794425Y-143899548D01*
X114765972Y-143928798D01*
X114711382Y-143928463D01*
X114623609Y-143896980D01*
X114495608Y-143832785D01*
X114485532Y-143827380D01*
X114390481Y-143778750D01*
X114315424Y-143744328D01*
X114275842Y-143731264D01*
X114243400Y-143746702D01*
X114170895Y-143790258D01*
X114066565Y-143856751D01*
X113938539Y-143940998D01*
X113794948Y-144037816D01*
X113653468Y-144132734D01*
X113522611Y-144217490D01*
X113414292Y-144284496D01*
X113336960Y-144328529D01*
X113299062Y-144344368D01*
X113292607Y-144342357D01*
X113247609Y-144310658D01*
X113170727Y-144245181D01*
X113068721Y-144152048D01*
X112948351Y-144037381D01*
X112816379Y-143907300D01*
X112380039Y-143470232D01*
X113059733Y-142470440D01*
X112956402Y-142246886D01*
X112956096Y-142246225D01*
X112894046Y-142103714D01*
X112830640Y-141945018D01*
X112779558Y-141804368D01*
X112771827Y-141781683D01*
X112732852Y-141676370D01*
X112697707Y-141594534D01*
X112673195Y-141552301D01*
X112663212Y-141546337D01*
X112603286Y-141526329D01*
X112501532Y-141500442D01*
X112369068Y-141471370D01*
X112217011Y-141441806D01*
X112171466Y-141433467D01*
X112006685Y-141403107D01*
X111852930Y-141374509D01*
X111725678Y-141350564D01*
X111640402Y-141334160D01*
X111487126Y-141303906D01*
X111487126Y-140665645D01*
X111487160Y-140587165D01*
X111487808Y-140395703D01*
X111489720Y-140252812D01*
X111493469Y-140151189D01*
X111499622Y-140083531D01*
X111508751Y-140042536D01*
X111521427Y-140020900D01*
X111538218Y-140011320D01*
X111554474Y-140007439D01*
X111620748Y-139993710D01*
X111726479Y-139972745D01*
X111860915Y-139946588D01*
X112013302Y-139917283D01*
X112172890Y-139886877D01*
X112328925Y-139857413D01*
X112470657Y-139830937D01*
X112587331Y-139809494D01*
X112668197Y-139795128D01*
X112702503Y-139789885D01*
X112704822Y-139786720D01*
X112723474Y-139745642D01*
X112755753Y-139667044D01*
X112796391Y-139563621D01*
X112852788Y-139424273D01*
X112922214Y-139263226D01*
X112987288Y-139121291D01*
X113002202Y-139089432D01*
X113044047Y-138989669D01*
X113069118Y-138912721D01*
X113072426Y-138873130D01*
X113070720Y-138870325D01*
X113043631Y-138829005D01*
X112989927Y-138748740D01*
X112914877Y-138637350D01*
X112823746Y-138502655D01*
X112721800Y-138352476D01*
X112606930Y-138181851D01*
X112520761Y-138049311D01*
X112462131Y-137952112D01*
X112427650Y-137884234D01*
X112413926Y-137839656D01*
X112417568Y-137812361D01*
X112418794Y-137810313D01*
X112451747Y-137770536D01*
X112518927Y-137698052D01*
X112613419Y-137600046D01*
X112728306Y-137483702D01*
X112856672Y-137356205D01*
X112989831Y-137226821D01*
X113120269Y-137105209D01*
X113216119Y-137023156D01*
X113279866Y-136978560D01*
X113313996Y-136969317D01*
X113318456Y-136971393D01*
X113365421Y-136999385D01*
X113450685Y-137054084D01*
X113566259Y-137130237D01*
X113704154Y-137222592D01*
X113856381Y-137325897D01*
X114352610Y-137664765D01*
X114576707Y-137563056D01*
X114583219Y-137560109D01*
X114720804Y-137500504D01*
X114866767Y-137441222D01*
X114990575Y-137394685D01*
X114991122Y-137394493D01*
X115089414Y-137358497D01*
X115165081Y-137328095D01*
X115201780Y-137309852D01*
X115202374Y-137309190D01*
X115214833Y-137271831D01*
X115235336Y-137186871D01*
X115261907Y-137063469D01*
X115292567Y-136910782D01*
X115325336Y-136737967D01*
X115326478Y-136731774D01*
X115359193Y-136555431D01*
X115389155Y-136395743D01*
X115414425Y-136262905D01*
X115433065Y-136167113D01*
X115443135Y-136118563D01*
X115443779Y-136115873D01*
X115450408Y-136095088D01*
X115463841Y-136079466D01*
X115491446Y-136068270D01*
X115540593Y-136060762D01*
X115618653Y-136056205D01*
X115732994Y-136053863D01*
X115890986Y-136052998D01*
X116100000Y-136052874D01*
X116126262Y-136052874D01*
X116329175Y-136053045D01*
G36*
X116329175Y-136053045D02*
G01*
X116481895Y-136054039D01*
X116591792Y-136056593D01*
X116666235Y-136061445D01*
X116712594Y-136069331D01*
X116738239Y-136080988D01*
X116750539Y-136097153D01*
X116756865Y-136118563D01*
X116757047Y-136119332D01*
X116767441Y-136169663D01*
X116786339Y-136266888D01*
X116811802Y-136400810D01*
X116841890Y-136561235D01*
X116874664Y-136737967D01*
X116877337Y-136752428D01*
X116910010Y-136923959D01*
X116940413Y-137074625D01*
X116966568Y-137195267D01*
X116986496Y-137276729D01*
X116998220Y-137309852D01*
X116998282Y-137309905D01*
X117035229Y-137328229D01*
X117111057Y-137358677D01*
X117209425Y-137394685D01*
X117214965Y-137396640D01*
X117340724Y-137444170D01*
X117487011Y-137503783D01*
X117623293Y-137563056D01*
X117847390Y-137664765D01*
X118343618Y-137325897D01*
X118378570Y-137302063D01*
X118528280Y-137200755D01*
X118661867Y-137111575D01*
X118771343Y-137039773D01*
X118848718Y-136990603D01*
X118886004Y-136969317D01*
X118911552Y-136974196D01*
X118969555Y-137012002D01*
X119059195Y-137086870D01*
X119182957Y-137200903D01*
X119343328Y-137356205D01*
X119357679Y-137370341D01*
X119484933Y-137496999D01*
X119597969Y-137611745D01*
X119689867Y-137707391D01*
X119753707Y-137776746D01*
X119782570Y-137812620D01*
X119782664Y-137812794D01*
X119786331Y-137840106D01*
X119772808Y-137884408D01*
X119738684Y-137951761D01*
X119680548Y-138048226D01*
X119594988Y-138179863D01*
X119478594Y-138352734D01*
X119458759Y-138381912D01*
X119358445Y-138529726D01*
X119269923Y-138660577D01*
X119198465Y-138766643D01*
X119149343Y-138840102D01*
X119127831Y-138873130D01*
X119126208Y-138880126D01*
X119136387Y-138932326D01*
X119166879Y-139017561D01*
X119212712Y-139121291D01*
X119275000Y-139256951D01*
X119344548Y-139417921D01*
X119403609Y-139563621D01*
X119418252Y-139601333D01*
X119456600Y-139697622D01*
X119484770Y-139764704D01*
X119497497Y-139789885D01*
X119511545Y-139791767D01*
X119574681Y-139802651D01*
X119678019Y-139821449D01*
X119810809Y-139846115D01*
X119962297Y-139874604D01*
X120121732Y-139904873D01*
X120278361Y-139934875D01*
X120421433Y-139962566D01*
X120540195Y-139985900D01*
X120623896Y-140002833D01*
X120661782Y-140011320D01*
X120668063Y-140013713D01*
X120683373Y-140026619D01*
X120694763Y-140054096D01*
X120702803Y-140103446D01*
X120708064Y-140181973D01*
X120711116Y-140296980D01*
X120712529Y-140455770D01*
X120712873Y-140665645D01*
X120712873Y-141303906D01*
X120559598Y-141334160D01*
X120541057Y-141337785D01*
X120442596Y-141356569D01*
X120306448Y-141382093D01*
X120148087Y-141411468D01*
X119982988Y-141441806D01*
X119917973Y-141454009D01*
X119772697Y-141483697D01*
X119651626Y-141511770D01*
X119565886Y-141535536D01*
X119526601Y-141552301D01*
X119508799Y-141579694D01*
X119476389Y-141652174D01*
X119443234Y-141745977D01*
X119431564Y-141781103D01*
X119388604Y-141896409D01*
X119333192Y-142032876D01*
X119274353Y-142167954D01*
X119242884Y-142238509D01*
X119198051Y-142343895D01*
X119167240Y-142422818D01*
X119155785Y-142462053D01*
X119156422Y-142465014D01*
X119178150Y-142506639D01*
X119227146Y-142586969D01*
X119298438Y-142698220D01*
X119387054Y-142832605D01*
X119488023Y-142982340D01*
X119820261Y-143469931D01*
X119383771Y-143907149D01*
X119341555Y-143949221D01*
X119212470Y-144075153D01*
X119097107Y-144183754D01*
X119002224Y-144268903D01*
X118934582Y-144324482D01*
X118900938Y-144344368D01*
X118864402Y-144329238D01*
X118787890Y-144285801D01*
X118680196Y-144219270D01*
X118549767Y-144134867D01*
X118405052Y-144037816D01*
X118262910Y-143941964D01*
X118134678Y-143857557D01*
X118030054Y-143790850D01*
X117957171Y-143747024D01*
X117924158Y-143731264D01*
X117922223Y-143731408D01*
X117878369Y-143746945D01*
X117800598Y-143783121D01*
X117704392Y-143832785D01*
X117703381Y-143833329D01*
X117575605Y-143897326D01*
X117488051Y-143928591D01*
X117433726Y-143928677D01*
X117405641Y-143899138D01*
X117393752Y-143870061D01*
X117361668Y-143792188D01*
X117312247Y-143672475D01*
X117248118Y-143517286D01*
X117171911Y-143332984D01*
X117086255Y-143125933D01*
X116993781Y-142902496D01*
X116909962Y-142699226D01*
X116824678Y-142490649D01*
X116749222Y-142304263D01*
X116686126Y-142146407D01*
X116637923Y-142023419D01*
X116607144Y-141941639D01*
X116596322Y-141907406D01*
X116616991Y-141876015D01*
X116674409Y-141823602D01*
X116755688Y-141762704D01*
X116950820Y-141603387D01*
X117125445Y-141399807D01*
X117253235Y-141175808D01*
X117333402Y-140938003D01*
X117365160Y-140693007D01*
X117347722Y-140447433D01*
X117280301Y-140207895D01*
X117162111Y-139981007D01*
X116992364Y-139773383D01*
X116903856Y-139692527D01*
X116691804Y-139549559D01*
X116464905Y-139456352D01*
X116229791Y-139410687D01*
X115993094Y-139410344D01*
X115761446Y-139453105D01*
X115541478Y-139536750D01*
X115339822Y-139659061D01*
X115163111Y-139817817D01*
X115017977Y-140010801D01*
X114911050Y-140235793D01*
X114848964Y-140490575D01*
X114837569Y-140613377D01*
X114853246Y-140879434D01*
X114923846Y-141131856D01*
X115047282Y-141366182D01*
X115221466Y-141577952D01*
X115444311Y-141762704D01*
X115522561Y-141821123D01*
X115581244Y-141874110D01*
X115603678Y-141907356D01*
X115594732Y-141936339D01*
X115565703Y-142013996D01*
X115519026Y-142133451D01*
X115457231Y-142288362D01*
X115382850Y-142472392D01*
X115298412Y-142679200D01*
X115206449Y-142902446D01*
X115122771Y-143104742D01*
X115036366Y-143313686D01*
X114959138Y-143500498D01*
X114893716Y-143658814D01*
X114842731Y-143782269D01*
X114808812Y-143864498D01*
X114794590Y-143899138D01*
X114794425Y-143899548D01*
X114765972Y-143928798D01*
X114711382Y-143928463D01*
X114623609Y-143896980D01*
X114495608Y-143832785D01*
X114485532Y-143827380D01*
X114390481Y-143778750D01*
X114315424Y-143744328D01*
X114275842Y-143731264D01*
X114243400Y-143746702D01*
X114170895Y-143790258D01*
X114066565Y-143856751D01*
X113938539Y-143940998D01*
X113794948Y-144037816D01*
X113653468Y-144132734D01*
X113522611Y-144217490D01*
X113414292Y-144284496D01*
X113336960Y-144328529D01*
X113299062Y-144344368D01*
X113292607Y-144342357D01*
X113247609Y-144310658D01*
X113170727Y-144245181D01*
X113068721Y-144152048D01*
X112948351Y-144037381D01*
X112816379Y-143907300D01*
X112380039Y-143470232D01*
X113059733Y-142470440D01*
X112956402Y-142246886D01*
X112956096Y-142246225D01*
X112894046Y-142103714D01*
X112830640Y-141945018D01*
X112779558Y-141804368D01*
X112771827Y-141781683D01*
X112732852Y-141676370D01*
X112697707Y-141594534D01*
X112673195Y-141552301D01*
X112663212Y-141546337D01*
X112603286Y-141526329D01*
X112501532Y-141500442D01*
X112369068Y-141471370D01*
X112217011Y-141441806D01*
X112171466Y-141433467D01*
X112006685Y-141403107D01*
X111852930Y-141374509D01*
X111725678Y-141350564D01*
X111640402Y-141334160D01*
X111487126Y-141303906D01*
X111487126Y-140665645D01*
X111487160Y-140587165D01*
X111487808Y-140395703D01*
X111489720Y-140252812D01*
X111493469Y-140151189D01*
X111499622Y-140083531D01*
X111508751Y-140042536D01*
X111521427Y-140020900D01*
X111538218Y-140011320D01*
X111554474Y-140007439D01*
X111620748Y-139993710D01*
X111726479Y-139972745D01*
X111860915Y-139946588D01*
X112013302Y-139917283D01*
X112172890Y-139886877D01*
X112328925Y-139857413D01*
X112470657Y-139830937D01*
X112587331Y-139809494D01*
X112668197Y-139795128D01*
X112702503Y-139789885D01*
X112704822Y-139786720D01*
X112723474Y-139745642D01*
X112755753Y-139667044D01*
X112796391Y-139563621D01*
X112852788Y-139424273D01*
X112922214Y-139263226D01*
X112987288Y-139121291D01*
X113002202Y-139089432D01*
X113044047Y-138989669D01*
X113069118Y-138912721D01*
X113072426Y-138873130D01*
X113070720Y-138870325D01*
X113043631Y-138829005D01*
X112989927Y-138748740D01*
X112914877Y-138637350D01*
X112823746Y-138502655D01*
X112721800Y-138352476D01*
X112606930Y-138181851D01*
X112520761Y-138049311D01*
X112462131Y-137952112D01*
X112427650Y-137884234D01*
X112413926Y-137839656D01*
X112417568Y-137812361D01*
X112418794Y-137810313D01*
X112451747Y-137770536D01*
X112518927Y-137698052D01*
X112613419Y-137600046D01*
X112728306Y-137483702D01*
X112856672Y-137356205D01*
X112989831Y-137226821D01*
X113120269Y-137105209D01*
X113216119Y-137023156D01*
X113279866Y-136978560D01*
X113313996Y-136969317D01*
X113318456Y-136971393D01*
X113365421Y-136999385D01*
X113450685Y-137054084D01*
X113566259Y-137130237D01*
X113704154Y-137222592D01*
X113856381Y-137325897D01*
X114352610Y-137664765D01*
X114576707Y-137563056D01*
X114583219Y-137560109D01*
X114720804Y-137500504D01*
X114866767Y-137441222D01*
X114990575Y-137394685D01*
X114991122Y-137394493D01*
X115089414Y-137358497D01*
X115165081Y-137328095D01*
X115201780Y-137309852D01*
X115202374Y-137309190D01*
X115214833Y-137271831D01*
X115235336Y-137186871D01*
X115261907Y-137063469D01*
X115292567Y-136910782D01*
X115325336Y-136737967D01*
X115326478Y-136731774D01*
X115359193Y-136555431D01*
X115389155Y-136395743D01*
X115414425Y-136262905D01*
X115433065Y-136167113D01*
X115443135Y-136118563D01*
X115443779Y-136115873D01*
X115450408Y-136095088D01*
X115463841Y-136079466D01*
X115491446Y-136068270D01*
X115540593Y-136060762D01*
X115618653Y-136056205D01*
X115732994Y-136053863D01*
X115890986Y-136052998D01*
X116100000Y-136052874D01*
X116126262Y-136052874D01*
X116329175Y-136053045D01*
G37*
D15*
%TO.C,J6*%
X88198600Y-140193000D02*
X98663400Y-140193000D01*
X88198600Y-146289000D02*
X88198600Y-140193000D01*
X93861825Y-146289000D02*
X88198600Y-146289000D01*
X98663400Y-140193000D02*
X98663400Y-146289000D01*
X98663400Y-146289000D02*
X95540175Y-146289000D01*
%TO.C,J4*%
X85875000Y-48850000D02*
X85875000Y-49520000D01*
X85875000Y-49520000D02*
X84665000Y-49520000D01*
X85875000Y-51040000D02*
X85875000Y-54600000D01*
X85875000Y-56120000D02*
X85875000Y-59330000D01*
X88535000Y-48850000D02*
X85875000Y-48850000D01*
X88535000Y-48850000D02*
X88535000Y-52060000D01*
X88535000Y-53580000D02*
X88535000Y-57140000D01*
X88535000Y-58660000D02*
X88535000Y-59330000D01*
X88535000Y-59330000D02*
X85875000Y-59330000D01*
%TO.C,R19*%
X111220000Y-61043641D02*
X111220000Y-60736359D01*
X111980000Y-61043641D02*
X111980000Y-60736359D01*
%TO.C,J2*%
X82740000Y-60480000D02*
X81040000Y-60480000D01*
X82740000Y-69820000D02*
X81040000Y-69820000D01*
D16*
%TO.C,C52*%
X105825000Y-55230000D02*
G75*
G02*
X105725000Y-55230000I-50000J0D01*
G01*
X105725000Y-55230000D02*
G75*
G02*
X105825000Y-55230000I50000J0D01*
G01*
D15*
%TO.C,J1*%
X81670000Y-75210000D02*
X81670000Y-76540000D01*
X83000000Y-75210000D02*
X81670000Y-75210000D01*
X84270000Y-75210000D02*
X84270000Y-77870000D01*
X84270000Y-75210000D02*
X86870000Y-75210000D01*
X84270000Y-77870000D02*
X86870000Y-77870000D01*
X86870000Y-75210000D02*
X86870000Y-77870000D01*
D17*
%TO.C,C53*%
X109600000Y-55570000D02*
X109600000Y-49570000D01*
X112800000Y-49570000D02*
X112800000Y-55570000D01*
D16*
X111250000Y-56640000D02*
G75*
G02*
X111150000Y-56640000I-50000J0D01*
G01*
X111150000Y-56640000D02*
G75*
G02*
X111250000Y-56640000I50000J0D01*
G01*
D15*
%TO.C,J5*%
X130048000Y-87786000D02*
X128248000Y-87786000D01*
X130048000Y-97126000D02*
X128248000Y-97126000D01*
X132148000Y-87786000D02*
X133298000Y-87786000D01*
X132148000Y-97126000D02*
X133298000Y-97126000D01*
%TO.C,U7*%
X107680000Y-63610000D02*
X107680000Y-64610000D01*
X107680000Y-81610000D02*
X107680000Y-80610000D01*
X108430000Y-63610000D02*
X107680000Y-63610000D01*
X108430000Y-81610000D02*
X107680000Y-81610000D01*
%TO.C,J3*%
X129400000Y-59000000D02*
X130035000Y-59000000D01*
X130035000Y-59000000D02*
X130035000Y-58365000D01*
%TO.C,D2*%
X109040000Y-58090000D02*
X109040000Y-60950000D01*
X110960000Y-58090000D02*
X109040000Y-58090000D01*
X110960000Y-60950000D02*
X110960000Y-58090000D01*
%TO.C,U9*%
D18*
X108612000Y-112568000D02*
X102612000Y-112568000D01*
X102612000Y-119568000D01*
X108612000Y-119568000D01*
X108612000Y-112568000D01*
D19*
X109045742Y-112258000D02*
G75*
G02*
X108818258Y-112258000I-113742J0D01*
G01*
X108818258Y-112258000D02*
G75*
G02*
X109045742Y-112258000I113742J0D01*
G01*
D15*
%TO.C,C49*%
X100080000Y-139074437D02*
X100080000Y-144830000D01*
X100080000Y-144830000D02*
X102430000Y-144830000D01*
X101144437Y-138010000D02*
X100080000Y-139074437D01*
X101144437Y-138010000D02*
X102430000Y-138010000D01*
X101248750Y-137376250D02*
X102036250Y-137376250D01*
X101642500Y-136982500D02*
X101642500Y-137770000D01*
X105835563Y-138010000D02*
X104550000Y-138010000D01*
X105835563Y-138010000D02*
X106900000Y-139074437D01*
X106900000Y-139074437D02*
X106900000Y-144830000D01*
X106900000Y-144830000D02*
X104550000Y-144830000D01*
D20*
%TO.C,SW1*%
X128154000Y-102924000D02*
X132218000Y-102924000D01*
X128154000Y-103353260D02*
X128154000Y-102924000D01*
X128154000Y-105972000D02*
X128154000Y-105542740D01*
X132218000Y-102924000D02*
X132218000Y-103353260D01*
X132218000Y-105542740D02*
X132218000Y-105972000D01*
X132218000Y-105972000D02*
X128154000Y-105972000D01*
%TO.C,SW2*%
X128050000Y-111631000D02*
X132114000Y-111631000D01*
X128050000Y-112060260D02*
X128050000Y-111631000D01*
X128050000Y-114679000D02*
X128050000Y-114249740D01*
X132114000Y-111631000D02*
X132114000Y-112060260D01*
X132114000Y-114249740D02*
X132114000Y-114679000D01*
X132114000Y-114679000D02*
X128050000Y-114679000D01*
%TD*%
%LPC*%
D15*
%TO.C,U7*%
X133180000Y-81610000D02*
X133180000Y-63610000D01*
%TD*%
D21*
%TO.C,H6*%
X84764000Y-94984000D03*
%TD*%
%TO.C,H5*%
X126130000Y-136350000D03*
%TD*%
D22*
%TO.C,H1*%
X127985010Y-51120990D03*
X128644020Y-49530000D03*
X128644020Y-52711980D03*
X130235010Y-48870990D03*
D23*
X130235010Y-51120990D03*
D22*
X130235010Y-53370990D03*
X131826000Y-49530000D03*
X131826000Y-52711980D03*
X132485010Y-51120990D03*
%TD*%
%TO.C,H3*%
X128052000Y-143728000D03*
X128711010Y-142137010D03*
X128711010Y-145318990D03*
X130302000Y-141478000D03*
D23*
X130302000Y-143728000D03*
D22*
X130302000Y-145978000D03*
X131892990Y-142137010D03*
X131892990Y-145318990D03*
X132552000Y-143728000D03*
%TD*%
%TO.C,H4*%
X78455010Y-143830990D03*
X79114020Y-142240000D03*
X79114020Y-145421980D03*
X80705010Y-141580990D03*
D23*
X80705010Y-143830990D03*
D22*
X80705010Y-146080990D03*
X82296000Y-142240000D03*
X82296000Y-145421980D03*
X82955010Y-143830990D03*
%TD*%
D24*
%TO.C,U4*%
X98201691Y-68847200D03*
X99151691Y-69422200D03*
X97251691Y-69422200D03*
X98201691Y-69997200D03*
%TD*%
D22*
%TO.C,H2*%
X78558000Y-51054000D03*
X79217010Y-49463010D03*
X79217010Y-52644990D03*
X80808000Y-48804000D03*
D23*
X80808000Y-51054000D03*
D22*
X80808000Y-53304000D03*
X82398990Y-49463010D03*
X82398990Y-52644990D03*
X83058000Y-51054000D03*
%TD*%
D25*
%TO.C,J6*%
X94701000Y-145782001D03*
D26*
X89621000Y-143622000D03*
X92161000Y-143622000D03*
X94701000Y-143622000D03*
X97241000Y-143622000D03*
%TD*%
D27*
%TO.C,J4*%
X85555000Y-50280000D03*
X88855000Y-52820000D03*
X85555000Y-55360000D03*
X88855000Y-57900000D03*
%TD*%
D28*
%TO.C,R19*%
X111600000Y-60380000D03*
X111600000Y-61400000D03*
%TD*%
D29*
%TO.C,J2*%
X83545000Y-68040000D03*
X83545000Y-62260000D03*
D30*
X84620000Y-68350000D03*
X84620000Y-67550000D03*
D31*
X84620000Y-66400000D03*
X84620000Y-65400000D03*
X84620000Y-64900000D03*
X84620000Y-63900000D03*
D30*
X84620000Y-62750000D03*
X84620000Y-61950000D03*
X84620000Y-61950000D03*
X84620000Y-62750000D03*
D31*
X84620000Y-63400000D03*
X84620000Y-64400000D03*
X84620000Y-65900000D03*
X84620000Y-66900000D03*
D30*
X84620000Y-67550000D03*
X84620000Y-68350000D03*
D32*
X79865000Y-69470000D03*
D33*
X84045000Y-69470000D03*
D32*
X79865000Y-60830000D03*
D33*
X84045000Y-60830000D03*
%TD*%
D34*
%TO.C,C52*%
X105775000Y-53880000D03*
X105775000Y-51260000D03*
%TD*%
D35*
%TO.C,FID7*%
X132260000Y-139060000D03*
%TD*%
D36*
%TO.C,J1*%
X83000000Y-76540000D03*
D37*
X85540000Y-76540000D03*
%TD*%
D38*
%TO.C,C53*%
X111200000Y-55040000D03*
X111200000Y-50100000D03*
%TD*%
D29*
%TO.C,J5*%
X127443000Y-89566000D03*
X127443000Y-95346000D03*
D39*
X126368000Y-89256000D03*
X126368000Y-90056000D03*
D40*
X126368000Y-91206000D03*
X126368000Y-92206000D03*
X126368000Y-92706000D03*
X126368000Y-93706000D03*
D39*
X126368000Y-94856000D03*
X126368000Y-95656000D03*
X126368000Y-95656000D03*
X126368000Y-94856000D03*
D40*
X126368000Y-94206000D03*
X126368000Y-93206000D03*
X126368000Y-91706000D03*
X126368000Y-90706000D03*
D39*
X126368000Y-90056000D03*
X126368000Y-89256000D03*
D32*
X131123000Y-88136000D03*
D33*
X126943000Y-88136000D03*
D32*
X131123000Y-96776000D03*
D33*
X126943000Y-96776000D03*
%TD*%
D41*
%TO.C,U7*%
X125690000Y-81360000D03*
X124420000Y-81360000D03*
X123150000Y-81360000D03*
X121880000Y-81360000D03*
X120610000Y-81360000D03*
X119340000Y-81360000D03*
X118070000Y-81360000D03*
X116800000Y-81360000D03*
X115530000Y-81360000D03*
X114260000Y-81360000D03*
X112990000Y-81360000D03*
X111720000Y-81360000D03*
X110450000Y-81360000D03*
X109180000Y-81360000D03*
D42*
X107930000Y-79595000D03*
X107930000Y-78325000D03*
X107930000Y-77055000D03*
X107930000Y-75785000D03*
X107930000Y-74515000D03*
X107930000Y-73245000D03*
X107930000Y-71975000D03*
X107930000Y-70705000D03*
X107930000Y-69435000D03*
X107930000Y-68165000D03*
X107930000Y-66895000D03*
X107930000Y-65625000D03*
D41*
X109180000Y-63860000D03*
X110450000Y-63860000D03*
X111720000Y-63860000D03*
X112990000Y-63860000D03*
X114260000Y-63860000D03*
X115530000Y-63860000D03*
X116800000Y-63860000D03*
X118070000Y-63860000D03*
X119340000Y-63860000D03*
X120610000Y-63860000D03*
X121880000Y-63860000D03*
X123150000Y-63860000D03*
X124420000Y-63860000D03*
X125690000Y-63860000D03*
D43*
X116570000Y-75510000D03*
X117970000Y-75510000D03*
X119370000Y-75510000D03*
X116570000Y-74110000D03*
X117970000Y-74110000D03*
X119370000Y-74110000D03*
X116570000Y-72710000D03*
X117970000Y-72710000D03*
X119370000Y-72710000D03*
%TD*%
D44*
%TO.C,J3*%
X130670000Y-57730000D03*
X125590000Y-58746000D03*
X125590000Y-56714000D03*
D45*
X129400000Y-58365000D03*
X129400000Y-57095000D03*
X128130000Y-58365000D03*
X128130000Y-57095000D03*
X126860000Y-58365000D03*
X126860000Y-57095000D03*
%TD*%
D35*
%TO.C,FID8*%
X78850000Y-139070000D03*
%TD*%
D46*
%TO.C,D2*%
X110000000Y-58925000D03*
X110000000Y-60975000D03*
%TD*%
D47*
%TO.C,U9*%
X108528000Y-112805000D03*
X108528000Y-113307000D03*
X108528000Y-113809000D03*
X108528000Y-114311000D03*
X108528000Y-114813000D03*
X108528000Y-115315000D03*
X108528000Y-115817000D03*
X108528000Y-116319000D03*
X108528000Y-116821000D03*
X108528000Y-117323000D03*
X108528000Y-117825000D03*
X108528000Y-118327000D03*
X108528000Y-118829000D03*
X108528000Y-119331000D03*
X102696000Y-119318000D03*
X102696000Y-118818000D03*
X102696000Y-118318000D03*
X102696000Y-117818000D03*
X102696000Y-117318000D03*
X102696000Y-116821000D03*
X102696000Y-116318000D03*
X102696000Y-115817000D03*
X102696000Y-115315000D03*
X102696000Y-114813000D03*
X102696000Y-114311000D03*
X102696000Y-113818000D03*
X102696000Y-113307000D03*
X102696000Y-112818000D03*
D48*
X105612000Y-113600000D03*
D49*
X105612000Y-117176000D03*
%TD*%
D50*
%TO.C,C49*%
X103490000Y-138720000D03*
X103490000Y-144120000D03*
%TD*%
D51*
%TO.C,SW1*%
X132246000Y-104448000D03*
X128136000Y-104448000D03*
%TD*%
D35*
%TO.C,FID5*%
X125270000Y-50310000D03*
%TD*%
D51*
%TO.C,SW2*%
X132142000Y-113155000D03*
X128032000Y-113155000D03*
%TD*%
D35*
%TO.C,FID6*%
X78750000Y-55900000D03*
%TD*%
%LPD*%
M02*
