%TF.GenerationSoftware,KiCad,Pcbnew,8.0.5*%
%TF.CreationDate,2024-12-18T19:41:23+01:00*%
%TF.ProjectId,makeraxe-lite,6d616b65-7261-4786-952d-6c6974652e6b,rev?*%
%TF.SameCoordinates,Original*%
%TF.FileFunction,Legend,Bot*%
%TF.FilePolarity,Positive*%
%FSLAX46Y46*%
G04 Gerber Fmt 4.6, Leading zero omitted, Abs format (unit mm)*
G04 Created by KiCad (PCBNEW 8.0.5) date 2024-12-18 19:41:23*
%MOMM*%
%LPD*%
G01*
G04 APERTURE LIST*
G04 Aperture macros list*
%AMRoundRect*
0 Rectangle with rounded corners*
0 $1 Rounding radius*
0 $2 $3 $4 $5 $6 $7 $8 $9 X,Y pos of 4 corners*
0 Add a 4 corners polygon primitive as box body*
4,1,4,$2,$3,$4,$5,$6,$7,$8,$9,$2,$3,0*
0 Add four circle primitives for the rounded corners*
1,1,$1+$1,$2,$3*
1,1,$1+$1,$4,$5*
1,1,$1+$1,$6,$7*
1,1,$1+$1,$8,$9*
0 Add four rect primitives between the rounded corners*
20,1,$1+$1,$2,$3,$4,$5,0*
20,1,$1+$1,$4,$5,$6,$7,0*
20,1,$1+$1,$6,$7,$8,$9,0*
20,1,$1+$1,$8,$9,$2,$3,0*%
G04 Aperture macros list end*
%ADD10C,0.150000*%
%ADD11C,0.800000*%
%ADD12C,0.250000*%
%ADD13C,0.010000*%
%ADD14C,0.120000*%
%ADD15C,0.050000*%
%ADD16C,0.227485*%
%ADD17C,0.152400*%
%ADD18C,3.000000*%
%ADD19C,0.800000*%
%ADD20C,6.000000*%
%ADD21C,0.400000*%
%ADD22C,1.295400*%
%ADD23C,1.574800*%
%ADD24R,1.900000X1.000000*%
%ADD25RoundRect,0.135000X-0.185000X0.135000X-0.185000X-0.135000X0.185000X-0.135000X0.185000X0.135000X0*%
%ADD26C,0.650000*%
%ADD27RoundRect,0.150000X0.425000X-0.150000X0.425000X0.150000X-0.425000X0.150000X-0.425000X-0.150000X0*%
%ADD28RoundRect,0.075000X0.500000X-0.075000X0.500000X0.075000X-0.500000X0.075000X-0.500000X-0.075000X0*%
%ADD29O,1.800000X1.000000*%
%ADD30O,2.100000X1.000000*%
%ADD31C,2.000000*%
%ADD32R,1.700000X1.700000*%
%ADD33O,1.700000X1.700000*%
%ADD34R,1.150000X0.600000*%
%ADD35R,1.150000X0.300000*%
%ADD36R,0.900000X1.500000*%
%ADD37R,1.500000X0.900000*%
%ADD38R,0.900000X0.900000*%
%ADD39C,0.990600*%
%ADD40C,0.787400*%
%ADD41RoundRect,0.135000X0.135000X0.185000X-0.135000X0.185000X-0.135000X-0.185000X0.135000X-0.185000X0*%
%ADD42RoundRect,0.250000X-0.450000X0.325000X-0.450000X-0.325000X0.450000X-0.325000X0.450000X0.325000X0*%
%ADD43R,0.792000X0.221000*%
%ADD44R,4.277000X1.810000*%
%ADD45R,4.277000X4.530000*%
%ADD46RoundRect,0.250000X-0.550000X1.500000X-0.550000X-1.500000X0.550000X-1.500000X0.550000X1.500000X0*%
%ADD47R,0.900000X1.800000*%
G04 APERTURE END LIST*
D10*
X85450000Y-95700000D02*
X125430000Y-95700000D01*
X125430000Y-135690000D01*
X85450000Y-135690000D01*
X85450000Y-95700000D01*
D11*
G36*
X97944870Y-93996127D02*
G01*
X98032798Y-94108478D01*
X98228192Y-94150000D01*
X98382065Y-93950942D01*
X98435188Y-93699066D01*
X98451789Y-93442439D01*
X98452896Y-93343998D01*
X98452896Y-93088300D01*
X98452896Y-92816562D01*
X98452896Y-92528784D01*
X98452896Y-92224965D01*
X98452896Y-91970361D01*
X98452896Y-91705491D01*
X98452896Y-91430355D01*
X98452896Y-91158731D01*
X98452896Y-90904394D01*
X98452896Y-90610783D01*
X98452896Y-90344186D01*
X98452896Y-90059924D01*
X98452896Y-89814560D01*
X98452896Y-89741416D01*
X98423796Y-89497937D01*
X98378401Y-89362840D01*
X98191522Y-89195400D01*
X98114619Y-89186985D01*
X98041346Y-89246824D01*
X98023028Y-89473970D01*
X98026692Y-89520376D01*
X98030355Y-89657152D01*
X98052835Y-90001885D01*
X98073103Y-90345030D01*
X98091160Y-90686586D01*
X98107006Y-91026553D01*
X98120641Y-91364932D01*
X98132064Y-91701723D01*
X98141277Y-92036924D01*
X98148279Y-92370538D01*
X98153070Y-92702562D01*
X98155649Y-93032999D01*
X98156140Y-93252407D01*
X98126500Y-93499082D01*
X98051116Y-93729902D01*
X97957425Y-93958057D01*
X97944870Y-93996127D01*
G37*
G36*
X96782274Y-89747522D02*
G01*
X97010642Y-89851325D01*
X97240006Y-89760785D01*
X97247557Y-89754849D01*
X97368457Y-89594870D01*
X97296406Y-89451988D01*
X97147418Y-89382379D01*
X97096127Y-89399476D01*
X96975226Y-89492288D01*
X96851884Y-89637613D01*
X96782274Y-89747522D01*
G37*
G36*
X96586880Y-94170760D02*
G01*
X96651605Y-94279448D01*
X96793265Y-94311200D01*
X96920745Y-94085285D01*
X96936147Y-93996127D01*
X96964746Y-93748115D01*
X96988140Y-93471739D01*
X97005986Y-93218976D01*
X97024089Y-92927230D01*
X97030181Y-92821318D01*
X97042177Y-92573036D01*
X97053589Y-92327208D01*
X97065916Y-92049268D01*
X97077479Y-91774533D01*
X97080251Y-91706350D01*
X97089715Y-91449590D01*
X97098173Y-91197957D01*
X97105362Y-90943931D01*
X97107117Y-90866154D01*
X97082693Y-90750139D01*
X96988660Y-90711060D01*
X96785938Y-90845394D01*
X96750250Y-91090431D01*
X96743237Y-91334807D01*
X96743196Y-91358304D01*
X96743196Y-92187508D01*
X96741693Y-92444121D01*
X96736141Y-92718432D01*
X96726499Y-92965746D01*
X96710471Y-93215332D01*
X96700453Y-93326901D01*
X96664733Y-93588623D01*
X96636950Y-93777529D01*
X96599398Y-94023604D01*
X96586880Y-94170760D01*
G37*
G36*
X92600837Y-91211758D02*
G01*
X92700976Y-91393719D01*
X92938655Y-91472029D01*
X93057571Y-91491416D01*
X93305778Y-91535419D01*
X93547278Y-91578428D01*
X93760990Y-91617201D01*
X94203070Y-91694138D01*
X94203070Y-91950198D01*
X94203070Y-92214628D01*
X94203070Y-92462281D01*
X94203070Y-92726121D01*
X94203070Y-92987613D01*
X94203070Y-93165701D01*
X94194845Y-93423755D01*
X94163915Y-93671055D01*
X94133461Y-93792184D01*
X94060013Y-94025440D01*
X94056524Y-94038869D01*
X94137124Y-94168318D01*
X94258025Y-94228157D01*
X94330076Y-94203733D01*
X94381367Y-94124354D01*
X94444107Y-93882554D01*
X94464410Y-93760432D01*
X94492460Y-93499648D01*
X94502878Y-93253666D01*
X94503489Y-93174249D01*
X94531163Y-92923369D01*
X94544186Y-92663880D01*
X94546231Y-92500139D01*
X94546231Y-92237861D01*
X94546231Y-91981643D01*
X94546231Y-91753977D01*
X94796318Y-91798938D01*
X95050459Y-91849862D01*
X95308655Y-91906748D01*
X95360781Y-91918841D01*
X95615212Y-91971817D01*
X95806524Y-92000662D01*
X95966503Y-91949371D01*
X96039776Y-91806489D01*
X95978715Y-91679483D01*
X95772330Y-91648953D01*
X95518680Y-91619968D01*
X95470690Y-91611095D01*
X95228248Y-91561327D01*
X95216678Y-91558583D01*
X94958553Y-91508184D01*
X94709285Y-91460851D01*
X94593859Y-91440125D01*
X94593859Y-91195334D01*
X94593859Y-91055443D01*
X94593859Y-90803028D01*
X94593859Y-90565736D01*
X94589378Y-90310850D01*
X94577983Y-90143196D01*
X94523753Y-89903704D01*
X94512037Y-89873307D01*
X94305652Y-89734089D01*
X94223831Y-89754849D01*
X94203070Y-89833007D01*
X94227494Y-90076029D01*
X94245599Y-90328988D01*
X94250675Y-90593725D01*
X94250697Y-90614584D01*
X94250697Y-90870986D01*
X94250697Y-91115339D01*
X94250697Y-91194661D01*
X94250697Y-91383949D01*
X93995435Y-91337796D01*
X93745508Y-91286897D01*
X93484588Y-91231084D01*
X93234227Y-91175980D01*
X93012386Y-91126273D01*
X92918353Y-91028576D01*
X92837752Y-90945533D01*
X92681437Y-91033461D01*
X92600837Y-91211758D01*
G37*
G36*
X90713727Y-90723124D02*
G01*
X90953316Y-90786462D01*
X91188655Y-90904088D01*
X91394277Y-91054221D01*
X91444657Y-91097894D01*
X91634060Y-91288136D01*
X91804076Y-91503261D01*
X91936936Y-91711906D01*
X92054954Y-91939602D01*
X92085566Y-92007417D01*
X92177153Y-92245373D01*
X92244548Y-92484263D01*
X92291946Y-92758426D01*
X92307745Y-93033810D01*
X92300351Y-93210301D01*
X92257762Y-93461681D01*
X92164596Y-93698866D01*
X92004884Y-93905757D01*
X91966302Y-93940065D01*
X91756215Y-94078406D01*
X91517505Y-94161410D01*
X91250174Y-94189078D01*
X90986163Y-94166333D01*
X90743675Y-94098098D01*
X90522712Y-93984372D01*
X90323272Y-93825157D01*
X90188462Y-93686496D01*
X90029551Y-93494804D01*
X89879242Y-93269844D01*
X89759071Y-93035031D01*
X89736446Y-92982929D01*
X89638096Y-92738321D01*
X89572226Y-92483042D01*
X89622295Y-92378018D01*
X89687020Y-92459839D01*
X89737090Y-92568527D01*
X89858524Y-92806664D01*
X89994460Y-93032588D01*
X90144899Y-93246301D01*
X90309839Y-93447801D01*
X90470023Y-93599596D01*
X90705512Y-93739977D01*
X90942733Y-93813021D01*
X91206210Y-93837369D01*
X91316203Y-93831793D01*
X91563673Y-93765112D01*
X91767969Y-93609002D01*
X91863012Y-93465272D01*
X91941351Y-93228251D01*
X91964584Y-92965422D01*
X91960494Y-92827886D01*
X91931192Y-92568432D01*
X91879099Y-92324284D01*
X91730186Y-92297415D01*
X91465599Y-92236729D01*
X91205455Y-92160200D01*
X90949755Y-92067829D01*
X90893937Y-92045175D01*
X90659167Y-91937917D01*
X90429808Y-91808544D01*
X90215806Y-91653838D01*
X90165173Y-91609516D01*
X90003314Y-91414480D01*
X89960185Y-91264270D01*
X90275645Y-91264270D01*
X90329312Y-91385575D01*
X90519888Y-91556140D01*
X90666451Y-91653524D01*
X90890420Y-91776456D01*
X91124389Y-91882205D01*
X91324233Y-91957027D01*
X91560878Y-92024075D01*
X91809490Y-92066608D01*
X91724501Y-91847993D01*
X91594556Y-91628192D01*
X91551757Y-91567036D01*
X91381822Y-91370721D01*
X91180565Y-91201988D01*
X91133911Y-91170125D01*
X90911650Y-91062868D01*
X90665212Y-91023691D01*
X90636465Y-91024249D01*
X90392882Y-91087194D01*
X90275645Y-91264270D01*
X89960185Y-91264270D01*
X89932484Y-91167794D01*
X89953696Y-91028095D01*
X90112002Y-90829518D01*
X90298011Y-90744492D01*
X90551639Y-90711060D01*
X90713727Y-90723124D01*
G37*
D12*
X124803428Y-90521615D02*
X123303428Y-90521615D01*
X123303428Y-90521615D02*
X123303428Y-90878758D01*
X123303428Y-90878758D02*
X123374857Y-91093044D01*
X123374857Y-91093044D02*
X123517714Y-91235901D01*
X123517714Y-91235901D02*
X123660571Y-91307330D01*
X123660571Y-91307330D02*
X123946285Y-91378758D01*
X123946285Y-91378758D02*
X124160571Y-91378758D01*
X124160571Y-91378758D02*
X124446285Y-91307330D01*
X124446285Y-91307330D02*
X124589142Y-91235901D01*
X124589142Y-91235901D02*
X124732000Y-91093044D01*
X124732000Y-91093044D02*
X124803428Y-90878758D01*
X124803428Y-90878758D02*
X124803428Y-90521615D01*
X124803428Y-92664473D02*
X124017714Y-92664473D01*
X124017714Y-92664473D02*
X123874857Y-92593044D01*
X123874857Y-92593044D02*
X123803428Y-92450187D01*
X123803428Y-92450187D02*
X123803428Y-92164473D01*
X123803428Y-92164473D02*
X123874857Y-92021615D01*
X124732000Y-92664473D02*
X124803428Y-92521615D01*
X124803428Y-92521615D02*
X124803428Y-92164473D01*
X124803428Y-92164473D02*
X124732000Y-92021615D01*
X124732000Y-92021615D02*
X124589142Y-91950187D01*
X124589142Y-91950187D02*
X124446285Y-91950187D01*
X124446285Y-91950187D02*
X124303428Y-92021615D01*
X124303428Y-92021615D02*
X124232000Y-92164473D01*
X124232000Y-92164473D02*
X124232000Y-92521615D01*
X124232000Y-92521615D02*
X124160571Y-92664473D01*
X123803428Y-93164473D02*
X123803428Y-93735901D01*
X123303428Y-93378758D02*
X124589142Y-93378758D01*
X124589142Y-93378758D02*
X124732000Y-93450187D01*
X124732000Y-93450187D02*
X124803428Y-93593044D01*
X124803428Y-93593044D02*
X124803428Y-93735901D01*
X124803428Y-94878759D02*
X124017714Y-94878759D01*
X124017714Y-94878759D02*
X123874857Y-94807330D01*
X123874857Y-94807330D02*
X123803428Y-94664473D01*
X123803428Y-94664473D02*
X123803428Y-94378759D01*
X123803428Y-94378759D02*
X123874857Y-94235901D01*
X124732000Y-94878759D02*
X124803428Y-94735901D01*
X124803428Y-94735901D02*
X124803428Y-94378759D01*
X124803428Y-94378759D02*
X124732000Y-94235901D01*
X124732000Y-94235901D02*
X124589142Y-94164473D01*
X124589142Y-94164473D02*
X124446285Y-94164473D01*
X124446285Y-94164473D02*
X124303428Y-94235901D01*
X124303428Y-94235901D02*
X124232000Y-94378759D01*
X124232000Y-94378759D02*
X124232000Y-94735901D01*
X124232000Y-94735901D02*
X124160571Y-94878759D01*
X86803428Y-62521615D02*
X85303428Y-62521615D01*
X85303428Y-62521615D02*
X85303428Y-63093044D01*
X85303428Y-63093044D02*
X85374857Y-63235901D01*
X85374857Y-63235901D02*
X85446285Y-63307330D01*
X85446285Y-63307330D02*
X85589142Y-63378758D01*
X85589142Y-63378758D02*
X85803428Y-63378758D01*
X85803428Y-63378758D02*
X85946285Y-63307330D01*
X85946285Y-63307330D02*
X86017714Y-63235901D01*
X86017714Y-63235901D02*
X86089142Y-63093044D01*
X86089142Y-63093044D02*
X86089142Y-62521615D01*
X86803428Y-64235901D02*
X86732000Y-64093044D01*
X86732000Y-64093044D02*
X86660571Y-64021615D01*
X86660571Y-64021615D02*
X86517714Y-63950187D01*
X86517714Y-63950187D02*
X86089142Y-63950187D01*
X86089142Y-63950187D02*
X85946285Y-64021615D01*
X85946285Y-64021615D02*
X85874857Y-64093044D01*
X85874857Y-64093044D02*
X85803428Y-64235901D01*
X85803428Y-64235901D02*
X85803428Y-64450187D01*
X85803428Y-64450187D02*
X85874857Y-64593044D01*
X85874857Y-64593044D02*
X85946285Y-64664473D01*
X85946285Y-64664473D02*
X86089142Y-64735901D01*
X86089142Y-64735901D02*
X86517714Y-64735901D01*
X86517714Y-64735901D02*
X86660571Y-64664473D01*
X86660571Y-64664473D02*
X86732000Y-64593044D01*
X86732000Y-64593044D02*
X86803428Y-64450187D01*
X86803428Y-64450187D02*
X86803428Y-64235901D01*
X85803428Y-65235901D02*
X86803428Y-65521616D01*
X86803428Y-65521616D02*
X86089142Y-65807330D01*
X86089142Y-65807330D02*
X86803428Y-66093044D01*
X86803428Y-66093044D02*
X85803428Y-66378758D01*
X86732000Y-67521616D02*
X86803428Y-67378759D01*
X86803428Y-67378759D02*
X86803428Y-67093045D01*
X86803428Y-67093045D02*
X86732000Y-66950187D01*
X86732000Y-66950187D02*
X86589142Y-66878759D01*
X86589142Y-66878759D02*
X86017714Y-66878759D01*
X86017714Y-66878759D02*
X85874857Y-66950187D01*
X85874857Y-66950187D02*
X85803428Y-67093045D01*
X85803428Y-67093045D02*
X85803428Y-67378759D01*
X85803428Y-67378759D02*
X85874857Y-67521616D01*
X85874857Y-67521616D02*
X86017714Y-67593045D01*
X86017714Y-67593045D02*
X86160571Y-67593045D01*
X86160571Y-67593045D02*
X86303428Y-66878759D01*
X86803428Y-68235901D02*
X85803428Y-68235901D01*
X86089142Y-68235901D02*
X85946285Y-68307330D01*
X85946285Y-68307330D02*
X85874857Y-68378759D01*
X85874857Y-68378759D02*
X85803428Y-68521616D01*
X85803428Y-68521616D02*
X85803428Y-68664473D01*
D11*
X121283208Y-88346495D02*
X121283208Y-83346495D01*
X121283208Y-83346495D02*
X119616542Y-86917923D01*
X119616542Y-86917923D02*
X117949875Y-83346495D01*
X117949875Y-83346495D02*
X117949875Y-88346495D01*
X113426065Y-88346495D02*
X113426065Y-85727447D01*
X113426065Y-85727447D02*
X113664160Y-85251257D01*
X113664160Y-85251257D02*
X114140351Y-85013161D01*
X114140351Y-85013161D02*
X115092732Y-85013161D01*
X115092732Y-85013161D02*
X115568922Y-85251257D01*
X113426065Y-88108400D02*
X113902256Y-88346495D01*
X113902256Y-88346495D02*
X115092732Y-88346495D01*
X115092732Y-88346495D02*
X115568922Y-88108400D01*
X115568922Y-88108400D02*
X115807018Y-87632209D01*
X115807018Y-87632209D02*
X115807018Y-87156019D01*
X115807018Y-87156019D02*
X115568922Y-86679828D01*
X115568922Y-86679828D02*
X115092732Y-86441733D01*
X115092732Y-86441733D02*
X113902256Y-86441733D01*
X113902256Y-86441733D02*
X113426065Y-86203638D01*
X111045112Y-88346495D02*
X111045112Y-83346495D01*
X110568922Y-86441733D02*
X109140350Y-88346495D01*
X109140350Y-85013161D02*
X111045112Y-86917923D01*
X105092731Y-88108400D02*
X105568922Y-88346495D01*
X105568922Y-88346495D02*
X106521303Y-88346495D01*
X106521303Y-88346495D02*
X106997493Y-88108400D01*
X106997493Y-88108400D02*
X107235589Y-87632209D01*
X107235589Y-87632209D02*
X107235589Y-85727447D01*
X107235589Y-85727447D02*
X106997493Y-85251257D01*
X106997493Y-85251257D02*
X106521303Y-85013161D01*
X106521303Y-85013161D02*
X105568922Y-85013161D01*
X105568922Y-85013161D02*
X105092731Y-85251257D01*
X105092731Y-85251257D02*
X104854636Y-85727447D01*
X104854636Y-85727447D02*
X104854636Y-86203638D01*
X104854636Y-86203638D02*
X107235589Y-86679828D01*
X102711779Y-88346495D02*
X102711779Y-85013161D01*
X102711779Y-85965542D02*
X102473684Y-85489352D01*
X102473684Y-85489352D02*
X102235589Y-85251257D01*
X102235589Y-85251257D02*
X101759398Y-85013161D01*
X101759398Y-85013161D02*
X101283208Y-85013161D01*
X99854637Y-86917923D02*
X97473684Y-86917923D01*
X100330827Y-88346495D02*
X98664160Y-83346495D01*
X98664160Y-83346495D02*
X96997494Y-88346495D01*
X95807018Y-88346495D02*
X93187970Y-85013161D01*
X95807018Y-85013161D02*
X93187970Y-88346495D01*
X89378446Y-88108400D02*
X89854637Y-88346495D01*
X89854637Y-88346495D02*
X90807018Y-88346495D01*
X90807018Y-88346495D02*
X91283208Y-88108400D01*
X91283208Y-88108400D02*
X91521304Y-87632209D01*
X91521304Y-87632209D02*
X91521304Y-85727447D01*
X91521304Y-85727447D02*
X91283208Y-85251257D01*
X91283208Y-85251257D02*
X90807018Y-85013161D01*
X90807018Y-85013161D02*
X89854637Y-85013161D01*
X89854637Y-85013161D02*
X89378446Y-85251257D01*
X89378446Y-85251257D02*
X89140351Y-85727447D01*
X89140351Y-85727447D02*
X89140351Y-86203638D01*
X89140351Y-86203638D02*
X91521304Y-86679828D01*
D10*
X91663819Y-138827523D02*
X91663819Y-138351333D01*
X91663819Y-138351333D02*
X92140009Y-138303714D01*
X92140009Y-138303714D02*
X92092390Y-138351333D01*
X92092390Y-138351333D02*
X92044771Y-138446571D01*
X92044771Y-138446571D02*
X92044771Y-138684666D01*
X92044771Y-138684666D02*
X92092390Y-138779904D01*
X92092390Y-138779904D02*
X92140009Y-138827523D01*
X92140009Y-138827523D02*
X92235247Y-138875142D01*
X92235247Y-138875142D02*
X92473342Y-138875142D01*
X92473342Y-138875142D02*
X92568580Y-138827523D01*
X92568580Y-138827523D02*
X92616200Y-138779904D01*
X92616200Y-138779904D02*
X92663819Y-138684666D01*
X92663819Y-138684666D02*
X92663819Y-138446571D01*
X92663819Y-138446571D02*
X92616200Y-138351333D01*
X92616200Y-138351333D02*
X92568580Y-138303714D01*
X91663819Y-139160857D02*
X92663819Y-139494190D01*
X92663819Y-139494190D02*
X91663819Y-139827523D01*
X106026190Y-110517200D02*
X106883332Y-111802914D01*
X104978570Y-110660057D02*
X104930951Y-110612438D01*
X104930951Y-110612438D02*
X104835713Y-110564819D01*
X104835713Y-110564819D02*
X104597618Y-110564819D01*
X104597618Y-110564819D02*
X104502380Y-110612438D01*
X104502380Y-110612438D02*
X104454761Y-110660057D01*
X104454761Y-110660057D02*
X104407142Y-110755295D01*
X104407142Y-110755295D02*
X104407142Y-110850533D01*
X104407142Y-110850533D02*
X104454761Y-110993390D01*
X104454761Y-110993390D02*
X105026189Y-111564819D01*
X105026189Y-111564819D02*
X104407142Y-111564819D01*
X103454761Y-111564819D02*
X104026189Y-111564819D01*
X103740475Y-111564819D02*
X103740475Y-110564819D01*
X103740475Y-110564819D02*
X103835713Y-110707676D01*
X103835713Y-110707676D02*
X103930951Y-110802914D01*
X103930951Y-110802914D02*
X104026189Y-110850533D01*
X103026189Y-111564819D02*
X103026189Y-110564819D01*
X103026189Y-110564819D02*
X102692856Y-111279104D01*
X102692856Y-111279104D02*
X102359523Y-110564819D01*
X102359523Y-110564819D02*
X102359523Y-111564819D01*
D12*
X78196571Y-125478384D02*
X79696571Y-125478384D01*
X78196571Y-124835527D02*
X78982285Y-124835527D01*
X78982285Y-124835527D02*
X79125142Y-124906955D01*
X79125142Y-124906955D02*
X79196571Y-125049812D01*
X79196571Y-125049812D02*
X79196571Y-125264098D01*
X79196571Y-125264098D02*
X79125142Y-125406955D01*
X79125142Y-125406955D02*
X79053714Y-125478384D01*
X79196571Y-124335526D02*
X79196571Y-123764098D01*
X79696571Y-124121241D02*
X78410857Y-124121241D01*
X78410857Y-124121241D02*
X78268000Y-124049812D01*
X78268000Y-124049812D02*
X78196571Y-123906955D01*
X78196571Y-123906955D02*
X78196571Y-123764098D01*
X79196571Y-123478383D02*
X79196571Y-122906955D01*
X79696571Y-123264098D02*
X78410857Y-123264098D01*
X78410857Y-123264098D02*
X78268000Y-123192669D01*
X78268000Y-123192669D02*
X78196571Y-123049812D01*
X78196571Y-123049812D02*
X78196571Y-122906955D01*
X79196571Y-122406955D02*
X77696571Y-122406955D01*
X79125142Y-122406955D02*
X79196571Y-122264098D01*
X79196571Y-122264098D02*
X79196571Y-121978383D01*
X79196571Y-121978383D02*
X79125142Y-121835526D01*
X79125142Y-121835526D02*
X79053714Y-121764098D01*
X79053714Y-121764098D02*
X78910857Y-121692669D01*
X78910857Y-121692669D02*
X78482285Y-121692669D01*
X78482285Y-121692669D02*
X78339428Y-121764098D01*
X78339428Y-121764098D02*
X78268000Y-121835526D01*
X78268000Y-121835526D02*
X78196571Y-121978383D01*
X78196571Y-121978383D02*
X78196571Y-122264098D01*
X78196571Y-122264098D02*
X78268000Y-122406955D01*
X78268000Y-121121240D02*
X78196571Y-120978383D01*
X78196571Y-120978383D02*
X78196571Y-120692669D01*
X78196571Y-120692669D02*
X78268000Y-120549812D01*
X78268000Y-120549812D02*
X78410857Y-120478383D01*
X78410857Y-120478383D02*
X78482285Y-120478383D01*
X78482285Y-120478383D02*
X78625142Y-120549812D01*
X78625142Y-120549812D02*
X78696571Y-120692669D01*
X78696571Y-120692669D02*
X78696571Y-120906955D01*
X78696571Y-120906955D02*
X78768000Y-121049812D01*
X78768000Y-121049812D02*
X78910857Y-121121240D01*
X78910857Y-121121240D02*
X78982285Y-121121240D01*
X78982285Y-121121240D02*
X79125142Y-121049812D01*
X79125142Y-121049812D02*
X79196571Y-120906955D01*
X79196571Y-120906955D02*
X79196571Y-120692669D01*
X79196571Y-120692669D02*
X79125142Y-120549812D01*
X78339428Y-119835526D02*
X78268000Y-119764097D01*
X78268000Y-119764097D02*
X78196571Y-119835526D01*
X78196571Y-119835526D02*
X78268000Y-119906954D01*
X78268000Y-119906954D02*
X78339428Y-119835526D01*
X78339428Y-119835526D02*
X78196571Y-119835526D01*
X79125142Y-119835526D02*
X79053714Y-119764097D01*
X79053714Y-119764097D02*
X78982285Y-119835526D01*
X78982285Y-119835526D02*
X79053714Y-119906954D01*
X79053714Y-119906954D02*
X79125142Y-119835526D01*
X79125142Y-119835526D02*
X78982285Y-119835526D01*
X79768000Y-118049811D02*
X77839428Y-119335525D01*
X79768000Y-116478382D02*
X77839428Y-117764096D01*
X78196571Y-115978382D02*
X79196571Y-115978382D01*
X79053714Y-115978382D02*
X79125142Y-115906953D01*
X79125142Y-115906953D02*
X79196571Y-115764096D01*
X79196571Y-115764096D02*
X79196571Y-115549810D01*
X79196571Y-115549810D02*
X79125142Y-115406953D01*
X79125142Y-115406953D02*
X78982285Y-115335525D01*
X78982285Y-115335525D02*
X78196571Y-115335525D01*
X78982285Y-115335525D02*
X79125142Y-115264096D01*
X79125142Y-115264096D02*
X79196571Y-115121239D01*
X79196571Y-115121239D02*
X79196571Y-114906953D01*
X79196571Y-114906953D02*
X79125142Y-114764096D01*
X79125142Y-114764096D02*
X78982285Y-114692667D01*
X78982285Y-114692667D02*
X78196571Y-114692667D01*
X78196571Y-113335525D02*
X78982285Y-113335525D01*
X78982285Y-113335525D02*
X79125142Y-113406953D01*
X79125142Y-113406953D02*
X79196571Y-113549810D01*
X79196571Y-113549810D02*
X79196571Y-113835525D01*
X79196571Y-113835525D02*
X79125142Y-113978382D01*
X78268000Y-113335525D02*
X78196571Y-113478382D01*
X78196571Y-113478382D02*
X78196571Y-113835525D01*
X78196571Y-113835525D02*
X78268000Y-113978382D01*
X78268000Y-113978382D02*
X78410857Y-114049810D01*
X78410857Y-114049810D02*
X78553714Y-114049810D01*
X78553714Y-114049810D02*
X78696571Y-113978382D01*
X78696571Y-113978382D02*
X78768000Y-113835525D01*
X78768000Y-113835525D02*
X78768000Y-113478382D01*
X78768000Y-113478382D02*
X78839428Y-113335525D01*
X78196571Y-112621239D02*
X79696571Y-112621239D01*
X78768000Y-112478382D02*
X78196571Y-112049810D01*
X79196571Y-112049810D02*
X78625142Y-112621239D01*
X78196571Y-111406953D02*
X79196571Y-111406953D01*
X79696571Y-111406953D02*
X79625142Y-111478381D01*
X79625142Y-111478381D02*
X79553714Y-111406953D01*
X79553714Y-111406953D02*
X79625142Y-111335524D01*
X79625142Y-111335524D02*
X79696571Y-111406953D01*
X79696571Y-111406953D02*
X79553714Y-111406953D01*
X79196571Y-110692667D02*
X78196571Y-110692667D01*
X79053714Y-110692667D02*
X79125142Y-110621238D01*
X79125142Y-110621238D02*
X79196571Y-110478381D01*
X79196571Y-110478381D02*
X79196571Y-110264095D01*
X79196571Y-110264095D02*
X79125142Y-110121238D01*
X79125142Y-110121238D02*
X78982285Y-110049810D01*
X78982285Y-110049810D02*
X78196571Y-110049810D01*
X79196571Y-108692667D02*
X77982285Y-108692667D01*
X77982285Y-108692667D02*
X77839428Y-108764095D01*
X77839428Y-108764095D02*
X77768000Y-108835524D01*
X77768000Y-108835524D02*
X77696571Y-108978381D01*
X77696571Y-108978381D02*
X77696571Y-109192667D01*
X77696571Y-109192667D02*
X77768000Y-109335524D01*
X78268000Y-108692667D02*
X78196571Y-108835524D01*
X78196571Y-108835524D02*
X78196571Y-109121238D01*
X78196571Y-109121238D02*
X78268000Y-109264095D01*
X78268000Y-109264095D02*
X78339428Y-109335524D01*
X78339428Y-109335524D02*
X78482285Y-109406952D01*
X78482285Y-109406952D02*
X78910857Y-109406952D01*
X78910857Y-109406952D02*
X79053714Y-109335524D01*
X79053714Y-109335524D02*
X79125142Y-109264095D01*
X79125142Y-109264095D02*
X79196571Y-109121238D01*
X79196571Y-109121238D02*
X79196571Y-108835524D01*
X79196571Y-108835524D02*
X79125142Y-108692667D01*
X78196571Y-107335524D02*
X79696571Y-107335524D01*
X78268000Y-107335524D02*
X78196571Y-107478381D01*
X78196571Y-107478381D02*
X78196571Y-107764095D01*
X78196571Y-107764095D02*
X78268000Y-107906952D01*
X78268000Y-107906952D02*
X78339428Y-107978381D01*
X78339428Y-107978381D02*
X78482285Y-108049809D01*
X78482285Y-108049809D02*
X78910857Y-108049809D01*
X78910857Y-108049809D02*
X79053714Y-107978381D01*
X79053714Y-107978381D02*
X79125142Y-107906952D01*
X79125142Y-107906952D02*
X79196571Y-107764095D01*
X79196571Y-107764095D02*
X79196571Y-107478381D01*
X79196571Y-107478381D02*
X79125142Y-107335524D01*
X78268000Y-106049809D02*
X78196571Y-106192666D01*
X78196571Y-106192666D02*
X78196571Y-106478381D01*
X78196571Y-106478381D02*
X78268000Y-106621238D01*
X78268000Y-106621238D02*
X78410857Y-106692666D01*
X78410857Y-106692666D02*
X78982285Y-106692666D01*
X78982285Y-106692666D02*
X79125142Y-106621238D01*
X79125142Y-106621238D02*
X79196571Y-106478381D01*
X79196571Y-106478381D02*
X79196571Y-106192666D01*
X79196571Y-106192666D02*
X79125142Y-106049809D01*
X79125142Y-106049809D02*
X78982285Y-105978381D01*
X78982285Y-105978381D02*
X78839428Y-105978381D01*
X78839428Y-105978381D02*
X78696571Y-106692666D01*
X79196571Y-105478381D02*
X78196571Y-105121238D01*
X78196571Y-105121238D02*
X79196571Y-104764095D01*
X78196571Y-104192667D02*
X79196571Y-104192667D01*
X79696571Y-104192667D02*
X79625142Y-104264095D01*
X79625142Y-104264095D02*
X79553714Y-104192667D01*
X79553714Y-104192667D02*
X79625142Y-104121238D01*
X79625142Y-104121238D02*
X79696571Y-104192667D01*
X79696571Y-104192667D02*
X79553714Y-104192667D01*
X78268000Y-102835524D02*
X78196571Y-102978381D01*
X78196571Y-102978381D02*
X78196571Y-103264095D01*
X78196571Y-103264095D02*
X78268000Y-103406952D01*
X78268000Y-103406952D02*
X78339428Y-103478381D01*
X78339428Y-103478381D02*
X78482285Y-103549809D01*
X78482285Y-103549809D02*
X78910857Y-103549809D01*
X78910857Y-103549809D02*
X79053714Y-103478381D01*
X79053714Y-103478381D02*
X79125142Y-103406952D01*
X79125142Y-103406952D02*
X79196571Y-103264095D01*
X79196571Y-103264095D02*
X79196571Y-102978381D01*
X79196571Y-102978381D02*
X79125142Y-102835524D01*
X78268000Y-101621238D02*
X78196571Y-101764095D01*
X78196571Y-101764095D02*
X78196571Y-102049810D01*
X78196571Y-102049810D02*
X78268000Y-102192667D01*
X78268000Y-102192667D02*
X78410857Y-102264095D01*
X78410857Y-102264095D02*
X78982285Y-102264095D01*
X78982285Y-102264095D02*
X79125142Y-102192667D01*
X79125142Y-102192667D02*
X79196571Y-102049810D01*
X79196571Y-102049810D02*
X79196571Y-101764095D01*
X79196571Y-101764095D02*
X79125142Y-101621238D01*
X79125142Y-101621238D02*
X78982285Y-101549810D01*
X78982285Y-101549810D02*
X78839428Y-101549810D01*
X78839428Y-101549810D02*
X78696571Y-102264095D01*
X78268000Y-100978381D02*
X78196571Y-100835524D01*
X78196571Y-100835524D02*
X78196571Y-100549810D01*
X78196571Y-100549810D02*
X78268000Y-100406953D01*
X78268000Y-100406953D02*
X78410857Y-100335524D01*
X78410857Y-100335524D02*
X78482285Y-100335524D01*
X78482285Y-100335524D02*
X78625142Y-100406953D01*
X78625142Y-100406953D02*
X78696571Y-100549810D01*
X78696571Y-100549810D02*
X78696571Y-100764096D01*
X78696571Y-100764096D02*
X78768000Y-100906953D01*
X78768000Y-100906953D02*
X78910857Y-100978381D01*
X78910857Y-100978381D02*
X78982285Y-100978381D01*
X78982285Y-100978381D02*
X79125142Y-100906953D01*
X79125142Y-100906953D02*
X79196571Y-100764096D01*
X79196571Y-100764096D02*
X79196571Y-100549810D01*
X79196571Y-100549810D02*
X79125142Y-100406953D01*
X78339428Y-99692667D02*
X78268000Y-99621238D01*
X78268000Y-99621238D02*
X78196571Y-99692667D01*
X78196571Y-99692667D02*
X78268000Y-99764095D01*
X78268000Y-99764095D02*
X78339428Y-99692667D01*
X78339428Y-99692667D02*
X78196571Y-99692667D01*
X78268000Y-98335524D02*
X78196571Y-98478381D01*
X78196571Y-98478381D02*
X78196571Y-98764095D01*
X78196571Y-98764095D02*
X78268000Y-98906952D01*
X78268000Y-98906952D02*
X78339428Y-98978381D01*
X78339428Y-98978381D02*
X78482285Y-99049809D01*
X78482285Y-99049809D02*
X78910857Y-99049809D01*
X78910857Y-99049809D02*
X79053714Y-98978381D01*
X79053714Y-98978381D02*
X79125142Y-98906952D01*
X79125142Y-98906952D02*
X79196571Y-98764095D01*
X79196571Y-98764095D02*
X79196571Y-98478381D01*
X79196571Y-98478381D02*
X79125142Y-98335524D01*
X78196571Y-97478381D02*
X78268000Y-97621238D01*
X78268000Y-97621238D02*
X78339428Y-97692667D01*
X78339428Y-97692667D02*
X78482285Y-97764095D01*
X78482285Y-97764095D02*
X78910857Y-97764095D01*
X78910857Y-97764095D02*
X79053714Y-97692667D01*
X79053714Y-97692667D02*
X79125142Y-97621238D01*
X79125142Y-97621238D02*
X79196571Y-97478381D01*
X79196571Y-97478381D02*
X79196571Y-97264095D01*
X79196571Y-97264095D02*
X79125142Y-97121238D01*
X79125142Y-97121238D02*
X79053714Y-97049810D01*
X79053714Y-97049810D02*
X78910857Y-96978381D01*
X78910857Y-96978381D02*
X78482285Y-96978381D01*
X78482285Y-96978381D02*
X78339428Y-97049810D01*
X78339428Y-97049810D02*
X78268000Y-97121238D01*
X78268000Y-97121238D02*
X78196571Y-97264095D01*
X78196571Y-97264095D02*
X78196571Y-97478381D01*
X78196571Y-96335524D02*
X79196571Y-96335524D01*
X79053714Y-96335524D02*
X79125142Y-96264095D01*
X79125142Y-96264095D02*
X79196571Y-96121238D01*
X79196571Y-96121238D02*
X79196571Y-95906952D01*
X79196571Y-95906952D02*
X79125142Y-95764095D01*
X79125142Y-95764095D02*
X78982285Y-95692667D01*
X78982285Y-95692667D02*
X78196571Y-95692667D01*
X78982285Y-95692667D02*
X79125142Y-95621238D01*
X79125142Y-95621238D02*
X79196571Y-95478381D01*
X79196571Y-95478381D02*
X79196571Y-95264095D01*
X79196571Y-95264095D02*
X79125142Y-95121238D01*
X79125142Y-95121238D02*
X78982285Y-95049809D01*
X78982285Y-95049809D02*
X78196571Y-95049809D01*
X79768000Y-93264095D02*
X77839428Y-94549809D01*
X78196571Y-92549809D02*
X78268000Y-92692666D01*
X78268000Y-92692666D02*
X78410857Y-92764095D01*
X78410857Y-92764095D02*
X79696571Y-92764095D01*
X78196571Y-91978381D02*
X79196571Y-91978381D01*
X79696571Y-91978381D02*
X79625142Y-92049809D01*
X79625142Y-92049809D02*
X79553714Y-91978381D01*
X79553714Y-91978381D02*
X79625142Y-91906952D01*
X79625142Y-91906952D02*
X79696571Y-91978381D01*
X79696571Y-91978381D02*
X79553714Y-91978381D01*
X79196571Y-91264095D02*
X78196571Y-91264095D01*
X79053714Y-91264095D02*
X79125142Y-91192666D01*
X79125142Y-91192666D02*
X79196571Y-91049809D01*
X79196571Y-91049809D02*
X79196571Y-90835523D01*
X79196571Y-90835523D02*
X79125142Y-90692666D01*
X79125142Y-90692666D02*
X78982285Y-90621238D01*
X78982285Y-90621238D02*
X78196571Y-90621238D01*
X78196571Y-89906952D02*
X79696571Y-89906952D01*
X78768000Y-89764095D02*
X78196571Y-89335523D01*
X79196571Y-89335523D02*
X78625142Y-89906952D01*
X78268000Y-88764094D02*
X78196571Y-88621237D01*
X78196571Y-88621237D02*
X78196571Y-88335523D01*
X78196571Y-88335523D02*
X78268000Y-88192666D01*
X78268000Y-88192666D02*
X78410857Y-88121237D01*
X78410857Y-88121237D02*
X78482285Y-88121237D01*
X78482285Y-88121237D02*
X78625142Y-88192666D01*
X78625142Y-88192666D02*
X78696571Y-88335523D01*
X78696571Y-88335523D02*
X78696571Y-88549809D01*
X78696571Y-88549809D02*
X78768000Y-88692666D01*
X78768000Y-88692666D02*
X78910857Y-88764094D01*
X78910857Y-88764094D02*
X78982285Y-88764094D01*
X78982285Y-88764094D02*
X79125142Y-88692666D01*
X79125142Y-88692666D02*
X79196571Y-88549809D01*
X79196571Y-88549809D02*
X79196571Y-88335523D01*
X79196571Y-88335523D02*
X79125142Y-88192666D01*
X108279523Y-110919857D02*
X108089047Y-110824619D01*
X108089047Y-110824619D02*
X107898571Y-110919857D01*
X107898571Y-110919857D02*
X107803333Y-111110333D01*
X107803333Y-111110333D02*
X107898571Y-111300809D01*
X107898571Y-111300809D02*
X108089047Y-111396047D01*
X108089047Y-111396047D02*
X108279523Y-111300809D01*
X108279523Y-111300809D02*
X108660475Y-110919857D01*
X108660475Y-110919857D02*
X108850952Y-110824619D01*
X108850952Y-110824619D02*
X109041428Y-110919857D01*
X109041428Y-110919857D02*
X109136666Y-111110333D01*
X109136666Y-111110333D02*
X109041428Y-111300809D01*
X109041428Y-111300809D02*
X108850952Y-111396047D01*
X108850952Y-111396047D02*
X108660475Y-111300809D01*
X108660475Y-111300809D02*
X108279523Y-110919857D01*
D10*
X97719819Y-136958238D02*
X96719819Y-136958238D01*
X96719819Y-136958238D02*
X96719819Y-137339190D01*
X96719819Y-137339190D02*
X96767438Y-137434428D01*
X96767438Y-137434428D02*
X96815057Y-137482047D01*
X96815057Y-137482047D02*
X96910295Y-137529666D01*
X96910295Y-137529666D02*
X97053152Y-137529666D01*
X97053152Y-137529666D02*
X97148390Y-137482047D01*
X97148390Y-137482047D02*
X97196009Y-137434428D01*
X97196009Y-137434428D02*
X97243628Y-137339190D01*
X97243628Y-137339190D02*
X97243628Y-136958238D01*
X96719819Y-137863000D02*
X97719819Y-138101095D01*
X97719819Y-138101095D02*
X97005533Y-138291571D01*
X97005533Y-138291571D02*
X97719819Y-138482047D01*
X97719819Y-138482047D02*
X96719819Y-138720143D01*
X97719819Y-139101095D02*
X96719819Y-139101095D01*
X96719819Y-139101095D02*
X97434104Y-139434428D01*
X97434104Y-139434428D02*
X96719819Y-139767761D01*
X96719819Y-139767761D02*
X97719819Y-139767761D01*
X90806077Y-82869819D02*
X90472744Y-83869819D01*
X90472744Y-83869819D02*
X90139411Y-82869819D01*
X89615601Y-82869819D02*
X89520363Y-82869819D01*
X89520363Y-82869819D02*
X89425125Y-82917438D01*
X89425125Y-82917438D02*
X89377506Y-82965057D01*
X89377506Y-82965057D02*
X89329887Y-83060295D01*
X89329887Y-83060295D02*
X89282268Y-83250771D01*
X89282268Y-83250771D02*
X89282268Y-83488866D01*
X89282268Y-83488866D02*
X89329887Y-83679342D01*
X89329887Y-83679342D02*
X89377506Y-83774580D01*
X89377506Y-83774580D02*
X89425125Y-83822200D01*
X89425125Y-83822200D02*
X89520363Y-83869819D01*
X89520363Y-83869819D02*
X89615601Y-83869819D01*
X89615601Y-83869819D02*
X89710839Y-83822200D01*
X89710839Y-83822200D02*
X89758458Y-83774580D01*
X89758458Y-83774580D02*
X89806077Y-83679342D01*
X89806077Y-83679342D02*
X89853696Y-83488866D01*
X89853696Y-83488866D02*
X89853696Y-83250771D01*
X89853696Y-83250771D02*
X89806077Y-83060295D01*
X89806077Y-83060295D02*
X89758458Y-82965057D01*
X89758458Y-82965057D02*
X89710839Y-82917438D01*
X89710839Y-82917438D02*
X89615601Y-82869819D01*
X88901315Y-82965057D02*
X88853696Y-82917438D01*
X88853696Y-82917438D02*
X88758458Y-82869819D01*
X88758458Y-82869819D02*
X88520363Y-82869819D01*
X88520363Y-82869819D02*
X88425125Y-82917438D01*
X88425125Y-82917438D02*
X88377506Y-82965057D01*
X88377506Y-82965057D02*
X88329887Y-83060295D01*
X88329887Y-83060295D02*
X88329887Y-83155533D01*
X88329887Y-83155533D02*
X88377506Y-83298390D01*
X88377506Y-83298390D02*
X88948934Y-83869819D01*
X88948934Y-83869819D02*
X88329887Y-83869819D01*
X87425125Y-82869819D02*
X87901315Y-82869819D01*
X87901315Y-82869819D02*
X87948934Y-83346009D01*
X87948934Y-83346009D02*
X87901315Y-83298390D01*
X87901315Y-83298390D02*
X87806077Y-83250771D01*
X87806077Y-83250771D02*
X87567982Y-83250771D01*
X87567982Y-83250771D02*
X87472744Y-83298390D01*
X87472744Y-83298390D02*
X87425125Y-83346009D01*
X87425125Y-83346009D02*
X87377506Y-83441247D01*
X87377506Y-83441247D02*
X87377506Y-83679342D01*
X87377506Y-83679342D02*
X87425125Y-83774580D01*
X87425125Y-83774580D02*
X87472744Y-83822200D01*
X87472744Y-83822200D02*
X87567982Y-83869819D01*
X87567982Y-83869819D02*
X87806077Y-83869819D01*
X87806077Y-83869819D02*
X87901315Y-83822200D01*
X87901315Y-83822200D02*
X87948934Y-83774580D01*
X94187319Y-137482047D02*
X94187319Y-138053475D01*
X95187319Y-137767761D02*
X94187319Y-137767761D01*
X94901604Y-138339190D02*
X94901604Y-138815380D01*
X95187319Y-138243952D02*
X94187319Y-138577285D01*
X94187319Y-138577285D02*
X95187319Y-138910618D01*
X95092080Y-139815380D02*
X95139700Y-139767761D01*
X95139700Y-139767761D02*
X95187319Y-139624904D01*
X95187319Y-139624904D02*
X95187319Y-139529666D01*
X95187319Y-139529666D02*
X95139700Y-139386809D01*
X95139700Y-139386809D02*
X95044461Y-139291571D01*
X95044461Y-139291571D02*
X94949223Y-139243952D01*
X94949223Y-139243952D02*
X94758747Y-139196333D01*
X94758747Y-139196333D02*
X94615890Y-139196333D01*
X94615890Y-139196333D02*
X94425414Y-139243952D01*
X94425414Y-139243952D02*
X94330176Y-139291571D01*
X94330176Y-139291571D02*
X94234938Y-139386809D01*
X94234938Y-139386809D02*
X94187319Y-139529666D01*
X94187319Y-139529666D02*
X94187319Y-139624904D01*
X94187319Y-139624904D02*
X94234938Y-139767761D01*
X94234938Y-139767761D02*
X94282557Y-139815380D01*
D12*
X107764098Y-60203428D02*
X108478384Y-60203428D01*
X108478384Y-60203428D02*
X108478384Y-58703428D01*
X107264098Y-60203428D02*
X107264098Y-59203428D01*
X107264098Y-58703428D02*
X107335526Y-58774857D01*
X107335526Y-58774857D02*
X107264098Y-58846285D01*
X107264098Y-58846285D02*
X107192669Y-58774857D01*
X107192669Y-58774857D02*
X107264098Y-58703428D01*
X107264098Y-58703428D02*
X107264098Y-58846285D01*
X106764097Y-59203428D02*
X106192669Y-59203428D01*
X106549812Y-60203428D02*
X106549812Y-58917714D01*
X106549812Y-58917714D02*
X106478383Y-58774857D01*
X106478383Y-58774857D02*
X106335526Y-58703428D01*
X106335526Y-58703428D02*
X106192669Y-58703428D01*
X105121240Y-60132000D02*
X105264097Y-60203428D01*
X105264097Y-60203428D02*
X105549812Y-60203428D01*
X105549812Y-60203428D02*
X105692669Y-60132000D01*
X105692669Y-60132000D02*
X105764097Y-59989142D01*
X105764097Y-59989142D02*
X105764097Y-59417714D01*
X105764097Y-59417714D02*
X105692669Y-59274857D01*
X105692669Y-59274857D02*
X105549812Y-59203428D01*
X105549812Y-59203428D02*
X105264097Y-59203428D01*
X105264097Y-59203428D02*
X105121240Y-59274857D01*
X105121240Y-59274857D02*
X105049812Y-59417714D01*
X105049812Y-59417714D02*
X105049812Y-59560571D01*
X105049812Y-59560571D02*
X105764097Y-59703428D01*
D10*
X89169938Y-137720143D02*
X89122319Y-137624905D01*
X89122319Y-137624905D02*
X89122319Y-137482048D01*
X89122319Y-137482048D02*
X89169938Y-137339191D01*
X89169938Y-137339191D02*
X89265176Y-137243953D01*
X89265176Y-137243953D02*
X89360414Y-137196334D01*
X89360414Y-137196334D02*
X89550890Y-137148715D01*
X89550890Y-137148715D02*
X89693747Y-137148715D01*
X89693747Y-137148715D02*
X89884223Y-137196334D01*
X89884223Y-137196334D02*
X89979461Y-137243953D01*
X89979461Y-137243953D02*
X90074700Y-137339191D01*
X90074700Y-137339191D02*
X90122319Y-137482048D01*
X90122319Y-137482048D02*
X90122319Y-137577286D01*
X90122319Y-137577286D02*
X90074700Y-137720143D01*
X90074700Y-137720143D02*
X90027080Y-137767762D01*
X90027080Y-137767762D02*
X89693747Y-137767762D01*
X89693747Y-137767762D02*
X89693747Y-137577286D01*
X90122319Y-138196334D02*
X89122319Y-138196334D01*
X89122319Y-138196334D02*
X90122319Y-138767762D01*
X90122319Y-138767762D02*
X89122319Y-138767762D01*
X90122319Y-139243953D02*
X89122319Y-139243953D01*
X89122319Y-139243953D02*
X89122319Y-139482048D01*
X89122319Y-139482048D02*
X89169938Y-139624905D01*
X89169938Y-139624905D02*
X89265176Y-139720143D01*
X89265176Y-139720143D02*
X89360414Y-139767762D01*
X89360414Y-139767762D02*
X89550890Y-139815381D01*
X89550890Y-139815381D02*
X89693747Y-139815381D01*
X89693747Y-139815381D02*
X89884223Y-139767762D01*
X89884223Y-139767762D02*
X89979461Y-139720143D01*
X89979461Y-139720143D02*
X90074700Y-139624905D01*
X90074700Y-139624905D02*
X90122319Y-139482048D01*
X90122319Y-139482048D02*
X90122319Y-139243953D01*
X87423333Y-142934819D02*
X87423333Y-143649104D01*
X87423333Y-143649104D02*
X87470952Y-143791961D01*
X87470952Y-143791961D02*
X87566190Y-143887200D01*
X87566190Y-143887200D02*
X87709047Y-143934819D01*
X87709047Y-143934819D02*
X87804285Y-143934819D01*
X86518571Y-142934819D02*
X86709047Y-142934819D01*
X86709047Y-142934819D02*
X86804285Y-142982438D01*
X86804285Y-142982438D02*
X86851904Y-143030057D01*
X86851904Y-143030057D02*
X86947142Y-143172914D01*
X86947142Y-143172914D02*
X86994761Y-143363390D01*
X86994761Y-143363390D02*
X86994761Y-143744342D01*
X86994761Y-143744342D02*
X86947142Y-143839580D01*
X86947142Y-143839580D02*
X86899523Y-143887200D01*
X86899523Y-143887200D02*
X86804285Y-143934819D01*
X86804285Y-143934819D02*
X86613809Y-143934819D01*
X86613809Y-143934819D02*
X86518571Y-143887200D01*
X86518571Y-143887200D02*
X86470952Y-143839580D01*
X86470952Y-143839580D02*
X86423333Y-143744342D01*
X86423333Y-143744342D02*
X86423333Y-143506247D01*
X86423333Y-143506247D02*
X86470952Y-143411009D01*
X86470952Y-143411009D02*
X86518571Y-143363390D01*
X86518571Y-143363390D02*
X86613809Y-143315771D01*
X86613809Y-143315771D02*
X86804285Y-143315771D01*
X86804285Y-143315771D02*
X86899523Y-143363390D01*
X86899523Y-143363390D02*
X86947142Y-143411009D01*
X86947142Y-143411009D02*
X86994761Y-143506247D01*
X90013333Y-48834819D02*
X90013333Y-49549104D01*
X90013333Y-49549104D02*
X90060952Y-49691961D01*
X90060952Y-49691961D02*
X90156190Y-49787200D01*
X90156190Y-49787200D02*
X90299047Y-49834819D01*
X90299047Y-49834819D02*
X90394285Y-49834819D01*
X89108571Y-49168152D02*
X89108571Y-49834819D01*
X89346666Y-48787200D02*
X89584761Y-49501485D01*
X89584761Y-49501485D02*
X88965714Y-49501485D01*
X113254819Y-58757142D02*
X112778628Y-58423809D01*
X113254819Y-58185714D02*
X112254819Y-58185714D01*
X112254819Y-58185714D02*
X112254819Y-58566666D01*
X112254819Y-58566666D02*
X112302438Y-58661904D01*
X112302438Y-58661904D02*
X112350057Y-58709523D01*
X112350057Y-58709523D02*
X112445295Y-58757142D01*
X112445295Y-58757142D02*
X112588152Y-58757142D01*
X112588152Y-58757142D02*
X112683390Y-58709523D01*
X112683390Y-58709523D02*
X112731009Y-58661904D01*
X112731009Y-58661904D02*
X112778628Y-58566666D01*
X112778628Y-58566666D02*
X112778628Y-58185714D01*
X113254819Y-59709523D02*
X113254819Y-59138095D01*
X113254819Y-59423809D02*
X112254819Y-59423809D01*
X112254819Y-59423809D02*
X112397676Y-59328571D01*
X112397676Y-59328571D02*
X112492914Y-59233333D01*
X112492914Y-59233333D02*
X112540533Y-59138095D01*
X113254819Y-60185714D02*
X113254819Y-60376190D01*
X113254819Y-60376190D02*
X113207200Y-60471428D01*
X113207200Y-60471428D02*
X113159580Y-60519047D01*
X113159580Y-60519047D02*
X113016723Y-60614285D01*
X113016723Y-60614285D02*
X112826247Y-60661904D01*
X112826247Y-60661904D02*
X112445295Y-60661904D01*
X112445295Y-60661904D02*
X112350057Y-60614285D01*
X112350057Y-60614285D02*
X112302438Y-60566666D01*
X112302438Y-60566666D02*
X112254819Y-60471428D01*
X112254819Y-60471428D02*
X112254819Y-60280952D01*
X112254819Y-60280952D02*
X112302438Y-60185714D01*
X112302438Y-60185714D02*
X112350057Y-60138095D01*
X112350057Y-60138095D02*
X112445295Y-60090476D01*
X112445295Y-60090476D02*
X112683390Y-60090476D01*
X112683390Y-60090476D02*
X112778628Y-60138095D01*
X112778628Y-60138095D02*
X112826247Y-60185714D01*
X112826247Y-60185714D02*
X112873866Y-60280952D01*
X112873866Y-60280952D02*
X112873866Y-60471428D01*
X112873866Y-60471428D02*
X112826247Y-60566666D01*
X112826247Y-60566666D02*
X112778628Y-60614285D01*
X112778628Y-60614285D02*
X112683390Y-60661904D01*
X81545180Y-65483333D02*
X80830895Y-65483333D01*
X80830895Y-65483333D02*
X80688038Y-65530952D01*
X80688038Y-65530952D02*
X80592800Y-65626190D01*
X80592800Y-65626190D02*
X80545180Y-65769047D01*
X80545180Y-65769047D02*
X80545180Y-65864285D01*
X81449942Y-65054761D02*
X81497561Y-65007142D01*
X81497561Y-65007142D02*
X81545180Y-64911904D01*
X81545180Y-64911904D02*
X81545180Y-64673809D01*
X81545180Y-64673809D02*
X81497561Y-64578571D01*
X81497561Y-64578571D02*
X81449942Y-64530952D01*
X81449942Y-64530952D02*
X81354704Y-64483333D01*
X81354704Y-64483333D02*
X81259466Y-64483333D01*
X81259466Y-64483333D02*
X81116609Y-64530952D01*
X81116609Y-64530952D02*
X80545180Y-65102380D01*
X80545180Y-65102380D02*
X80545180Y-64483333D01*
X88483333Y-76224819D02*
X88483333Y-76939104D01*
X88483333Y-76939104D02*
X88530952Y-77081961D01*
X88530952Y-77081961D02*
X88626190Y-77177200D01*
X88626190Y-77177200D02*
X88769047Y-77224819D01*
X88769047Y-77224819D02*
X88864285Y-77224819D01*
X87483333Y-77224819D02*
X88054761Y-77224819D01*
X87769047Y-77224819D02*
X87769047Y-76224819D01*
X87769047Y-76224819D02*
X87864285Y-76367676D01*
X87864285Y-76367676D02*
X87959523Y-76462914D01*
X87959523Y-76462914D02*
X88054761Y-76510533D01*
X105122857Y-71914819D02*
X105456190Y-71438628D01*
X105694285Y-71914819D02*
X105694285Y-70914819D01*
X105694285Y-70914819D02*
X105313333Y-70914819D01*
X105313333Y-70914819D02*
X105218095Y-70962438D01*
X105218095Y-70962438D02*
X105170476Y-71010057D01*
X105170476Y-71010057D02*
X105122857Y-71105295D01*
X105122857Y-71105295D02*
X105122857Y-71248152D01*
X105122857Y-71248152D02*
X105170476Y-71343390D01*
X105170476Y-71343390D02*
X105218095Y-71391009D01*
X105218095Y-71391009D02*
X105313333Y-71438628D01*
X105313333Y-71438628D02*
X105694285Y-71438628D01*
X104170476Y-71914819D02*
X104741904Y-71914819D01*
X104456190Y-71914819D02*
X104456190Y-70914819D01*
X104456190Y-70914819D02*
X104551428Y-71057676D01*
X104551428Y-71057676D02*
X104646666Y-71152914D01*
X104646666Y-71152914D02*
X104741904Y-71200533D01*
X103551428Y-70914819D02*
X103456190Y-70914819D01*
X103456190Y-70914819D02*
X103360952Y-70962438D01*
X103360952Y-70962438D02*
X103313333Y-71010057D01*
X103313333Y-71010057D02*
X103265714Y-71105295D01*
X103265714Y-71105295D02*
X103218095Y-71295771D01*
X103218095Y-71295771D02*
X103218095Y-71533866D01*
X103218095Y-71533866D02*
X103265714Y-71724342D01*
X103265714Y-71724342D02*
X103313333Y-71819580D01*
X103313333Y-71819580D02*
X103360952Y-71867200D01*
X103360952Y-71867200D02*
X103456190Y-71914819D01*
X103456190Y-71914819D02*
X103551428Y-71914819D01*
X103551428Y-71914819D02*
X103646666Y-71867200D01*
X103646666Y-71867200D02*
X103694285Y-71819580D01*
X103694285Y-71819580D02*
X103741904Y-71724342D01*
X103741904Y-71724342D02*
X103789523Y-71533866D01*
X103789523Y-71533866D02*
X103789523Y-71295771D01*
X103789523Y-71295771D02*
X103741904Y-71105295D01*
X103741904Y-71105295D02*
X103694285Y-71010057D01*
X103694285Y-71010057D02*
X103646666Y-70962438D01*
X103646666Y-70962438D02*
X103551428Y-70914819D01*
X110454819Y-56261905D02*
X109454819Y-56261905D01*
X109454819Y-56261905D02*
X109454819Y-56500000D01*
X109454819Y-56500000D02*
X109502438Y-56642857D01*
X109502438Y-56642857D02*
X109597676Y-56738095D01*
X109597676Y-56738095D02*
X109692914Y-56785714D01*
X109692914Y-56785714D02*
X109883390Y-56833333D01*
X109883390Y-56833333D02*
X110026247Y-56833333D01*
X110026247Y-56833333D02*
X110216723Y-56785714D01*
X110216723Y-56785714D02*
X110311961Y-56738095D01*
X110311961Y-56738095D02*
X110407200Y-56642857D01*
X110407200Y-56642857D02*
X110454819Y-56500000D01*
X110454819Y-56500000D02*
X110454819Y-56261905D01*
X109550057Y-57214286D02*
X109502438Y-57261905D01*
X109502438Y-57261905D02*
X109454819Y-57357143D01*
X109454819Y-57357143D02*
X109454819Y-57595238D01*
X109454819Y-57595238D02*
X109502438Y-57690476D01*
X109502438Y-57690476D02*
X109550057Y-57738095D01*
X109550057Y-57738095D02*
X109645295Y-57785714D01*
X109645295Y-57785714D02*
X109740533Y-57785714D01*
X109740533Y-57785714D02*
X109883390Y-57738095D01*
X109883390Y-57738095D02*
X110454819Y-57166667D01*
X110454819Y-57166667D02*
X110454819Y-57785714D01*
X106790857Y-137434580D02*
X106838476Y-137482200D01*
X106838476Y-137482200D02*
X106981333Y-137529819D01*
X106981333Y-137529819D02*
X107076571Y-137529819D01*
X107076571Y-137529819D02*
X107219428Y-137482200D01*
X107219428Y-137482200D02*
X107314666Y-137386961D01*
X107314666Y-137386961D02*
X107362285Y-137291723D01*
X107362285Y-137291723D02*
X107409904Y-137101247D01*
X107409904Y-137101247D02*
X107409904Y-136958390D01*
X107409904Y-136958390D02*
X107362285Y-136767914D01*
X107362285Y-136767914D02*
X107314666Y-136672676D01*
X107314666Y-136672676D02*
X107219428Y-136577438D01*
X107219428Y-136577438D02*
X107076571Y-136529819D01*
X107076571Y-136529819D02*
X106981333Y-136529819D01*
X106981333Y-136529819D02*
X106838476Y-136577438D01*
X106838476Y-136577438D02*
X106790857Y-136625057D01*
X105933714Y-136863152D02*
X105933714Y-137529819D01*
X106171809Y-136482200D02*
X106409904Y-137196485D01*
X106409904Y-137196485D02*
X105790857Y-137196485D01*
X105362285Y-137529819D02*
X105171809Y-137529819D01*
X105171809Y-137529819D02*
X105076571Y-137482200D01*
X105076571Y-137482200D02*
X105028952Y-137434580D01*
X105028952Y-137434580D02*
X104933714Y-137291723D01*
X104933714Y-137291723D02*
X104886095Y-137101247D01*
X104886095Y-137101247D02*
X104886095Y-136720295D01*
X104886095Y-136720295D02*
X104933714Y-136625057D01*
X104933714Y-136625057D02*
X104981333Y-136577438D01*
X104981333Y-136577438D02*
X105076571Y-136529819D01*
X105076571Y-136529819D02*
X105267047Y-136529819D01*
X105267047Y-136529819D02*
X105362285Y-136577438D01*
X105362285Y-136577438D02*
X105409904Y-136625057D01*
X105409904Y-136625057D02*
X105457523Y-136720295D01*
X105457523Y-136720295D02*
X105457523Y-136958390D01*
X105457523Y-136958390D02*
X105409904Y-137053628D01*
X105409904Y-137053628D02*
X105362285Y-137101247D01*
X105362285Y-137101247D02*
X105267047Y-137148866D01*
X105267047Y-137148866D02*
X105076571Y-137148866D01*
X105076571Y-137148866D02*
X104981333Y-137101247D01*
X104981333Y-137101247D02*
X104933714Y-137053628D01*
X104933714Y-137053628D02*
X104886095Y-136958390D01*
X131608381Y-107530819D02*
X131941714Y-107054628D01*
X132179809Y-107530819D02*
X132179809Y-106530819D01*
X132179809Y-106530819D02*
X131798857Y-106530819D01*
X131798857Y-106530819D02*
X131703619Y-106578438D01*
X131703619Y-106578438D02*
X131656000Y-106626057D01*
X131656000Y-106626057D02*
X131608381Y-106721295D01*
X131608381Y-106721295D02*
X131608381Y-106864152D01*
X131608381Y-106864152D02*
X131656000Y-106959390D01*
X131656000Y-106959390D02*
X131703619Y-107007009D01*
X131703619Y-107007009D02*
X131798857Y-107054628D01*
X131798857Y-107054628D02*
X132179809Y-107054628D01*
X131179809Y-107007009D02*
X130846476Y-107007009D01*
X130703619Y-107530819D02*
X131179809Y-107530819D01*
X131179809Y-107530819D02*
X131179809Y-106530819D01*
X131179809Y-106530819D02*
X130703619Y-106530819D01*
X130322666Y-107483200D02*
X130179809Y-107530819D01*
X130179809Y-107530819D02*
X129941714Y-107530819D01*
X129941714Y-107530819D02*
X129846476Y-107483200D01*
X129846476Y-107483200D02*
X129798857Y-107435580D01*
X129798857Y-107435580D02*
X129751238Y-107340342D01*
X129751238Y-107340342D02*
X129751238Y-107245104D01*
X129751238Y-107245104D02*
X129798857Y-107149866D01*
X129798857Y-107149866D02*
X129846476Y-107102247D01*
X129846476Y-107102247D02*
X129941714Y-107054628D01*
X129941714Y-107054628D02*
X130132190Y-107007009D01*
X130132190Y-107007009D02*
X130227428Y-106959390D01*
X130227428Y-106959390D02*
X130275047Y-106911771D01*
X130275047Y-106911771D02*
X130322666Y-106816533D01*
X130322666Y-106816533D02*
X130322666Y-106721295D01*
X130322666Y-106721295D02*
X130275047Y-106626057D01*
X130275047Y-106626057D02*
X130227428Y-106578438D01*
X130227428Y-106578438D02*
X130132190Y-106530819D01*
X130132190Y-106530819D02*
X129894095Y-106530819D01*
X129894095Y-106530819D02*
X129751238Y-106578438D01*
X129322666Y-107007009D02*
X128989333Y-107007009D01*
X128846476Y-107530819D02*
X129322666Y-107530819D01*
X129322666Y-107530819D02*
X129322666Y-106530819D01*
X129322666Y-106530819D02*
X128846476Y-106530819D01*
X128560761Y-106530819D02*
X127989333Y-106530819D01*
X128275047Y-107530819D02*
X128275047Y-106530819D01*
X131514142Y-115659009D02*
X131371285Y-115706628D01*
X131371285Y-115706628D02*
X131323666Y-115754247D01*
X131323666Y-115754247D02*
X131276047Y-115849485D01*
X131276047Y-115849485D02*
X131276047Y-115992342D01*
X131276047Y-115992342D02*
X131323666Y-116087580D01*
X131323666Y-116087580D02*
X131371285Y-116135200D01*
X131371285Y-116135200D02*
X131466523Y-116182819D01*
X131466523Y-116182819D02*
X131847475Y-116182819D01*
X131847475Y-116182819D02*
X131847475Y-115182819D01*
X131847475Y-115182819D02*
X131514142Y-115182819D01*
X131514142Y-115182819D02*
X131418904Y-115230438D01*
X131418904Y-115230438D02*
X131371285Y-115278057D01*
X131371285Y-115278057D02*
X131323666Y-115373295D01*
X131323666Y-115373295D02*
X131323666Y-115468533D01*
X131323666Y-115468533D02*
X131371285Y-115563771D01*
X131371285Y-115563771D02*
X131418904Y-115611390D01*
X131418904Y-115611390D02*
X131514142Y-115659009D01*
X131514142Y-115659009D02*
X131847475Y-115659009D01*
X130656999Y-115182819D02*
X130466523Y-115182819D01*
X130466523Y-115182819D02*
X130371285Y-115230438D01*
X130371285Y-115230438D02*
X130276047Y-115325676D01*
X130276047Y-115325676D02*
X130228428Y-115516152D01*
X130228428Y-115516152D02*
X130228428Y-115849485D01*
X130228428Y-115849485D02*
X130276047Y-116039961D01*
X130276047Y-116039961D02*
X130371285Y-116135200D01*
X130371285Y-116135200D02*
X130466523Y-116182819D01*
X130466523Y-116182819D02*
X130656999Y-116182819D01*
X130656999Y-116182819D02*
X130752237Y-116135200D01*
X130752237Y-116135200D02*
X130847475Y-116039961D01*
X130847475Y-116039961D02*
X130895094Y-115849485D01*
X130895094Y-115849485D02*
X130895094Y-115516152D01*
X130895094Y-115516152D02*
X130847475Y-115325676D01*
X130847475Y-115325676D02*
X130752237Y-115230438D01*
X130752237Y-115230438D02*
X130656999Y-115182819D01*
X129609380Y-115182819D02*
X129418904Y-115182819D01*
X129418904Y-115182819D02*
X129323666Y-115230438D01*
X129323666Y-115230438D02*
X129228428Y-115325676D01*
X129228428Y-115325676D02*
X129180809Y-115516152D01*
X129180809Y-115516152D02*
X129180809Y-115849485D01*
X129180809Y-115849485D02*
X129228428Y-116039961D01*
X129228428Y-116039961D02*
X129323666Y-116135200D01*
X129323666Y-116135200D02*
X129418904Y-116182819D01*
X129418904Y-116182819D02*
X129609380Y-116182819D01*
X129609380Y-116182819D02*
X129704618Y-116135200D01*
X129704618Y-116135200D02*
X129799856Y-116039961D01*
X129799856Y-116039961D02*
X129847475Y-115849485D01*
X129847475Y-115849485D02*
X129847475Y-115516152D01*
X129847475Y-115516152D02*
X129799856Y-115325676D01*
X129799856Y-115325676D02*
X129704618Y-115230438D01*
X129704618Y-115230438D02*
X129609380Y-115182819D01*
X128895094Y-115182819D02*
X128323666Y-115182819D01*
X128609380Y-116182819D02*
X128609380Y-115182819D01*
D13*
%TO.C,REF\u002A\u002A*%
X112211501Y-145326476D02*
X112292167Y-145356440D01*
X112325714Y-145378954D01*
X112359687Y-145411212D01*
X112383919Y-145452246D01*
X112400001Y-145508108D01*
X112409521Y-145584851D01*
X112414068Y-145688525D01*
X112415231Y-145825184D01*
X112415003Y-145895805D01*
X112413860Y-145992308D01*
X112411919Y-146069323D01*
X112409365Y-146120319D01*
X112406381Y-146138769D01*
X112386962Y-146132667D01*
X112347766Y-146116095D01*
X112346589Y-146115558D01*
X112326235Y-146104903D01*
X112312546Y-146090282D01*
X112304199Y-146064673D01*
X112299874Y-146021054D01*
X112298248Y-145952403D01*
X112298000Y-145851698D01*
X112297500Y-145787813D01*
X112292164Y-145667751D01*
X112279945Y-145579809D01*
X112259552Y-145519375D01*
X112229695Y-145481836D01*
X112189082Y-145462581D01*
X112183448Y-145461239D01*
X112107378Y-145460191D01*
X112048052Y-145494271D01*
X112007077Y-145562598D01*
X111999770Y-145582351D01*
X111983114Y-145626066D01*
X111974679Y-145646155D01*
X111957356Y-145643387D01*
X111919525Y-145628365D01*
X111884240Y-145603556D01*
X111868154Y-145556670D01*
X111872952Y-145523087D01*
X111902431Y-145454967D01*
X111950098Y-145391134D01*
X112005839Y-145346988D01*
X112029193Y-145336782D01*
X112117619Y-145319718D01*
X112211501Y-145326476D01*
G36*
X112211501Y-145326476D02*
G01*
X112292167Y-145356440D01*
X112325714Y-145378954D01*
X112359687Y-145411212D01*
X112383919Y-145452246D01*
X112400001Y-145508108D01*
X112409521Y-145584851D01*
X112414068Y-145688525D01*
X112415231Y-145825184D01*
X112415003Y-145895805D01*
X112413860Y-145992308D01*
X112411919Y-146069323D01*
X112409365Y-146120319D01*
X112406381Y-146138769D01*
X112386962Y-146132667D01*
X112347766Y-146116095D01*
X112346589Y-146115558D01*
X112326235Y-146104903D01*
X112312546Y-146090282D01*
X112304199Y-146064673D01*
X112299874Y-146021054D01*
X112298248Y-145952403D01*
X112298000Y-145851698D01*
X112297500Y-145787813D01*
X112292164Y-145667751D01*
X112279945Y-145579809D01*
X112259552Y-145519375D01*
X112229695Y-145481836D01*
X112189082Y-145462581D01*
X112183448Y-145461239D01*
X112107378Y-145460191D01*
X112048052Y-145494271D01*
X112007077Y-145562598D01*
X111999770Y-145582351D01*
X111983114Y-145626066D01*
X111974679Y-145646155D01*
X111957356Y-145643387D01*
X111919525Y-145628365D01*
X111884240Y-145603556D01*
X111868154Y-145556670D01*
X111872952Y-145523087D01*
X111902431Y-145454967D01*
X111950098Y-145391134D01*
X112005839Y-145346988D01*
X112029193Y-145336782D01*
X112117619Y-145319718D01*
X112211501Y-145326476D01*
G37*
X117526372Y-145281684D02*
X117617629Y-145324569D01*
X117692416Y-145398729D01*
X117707917Y-145421944D01*
X117720774Y-145448256D01*
X117729893Y-145481420D01*
X117736102Y-145527881D01*
X117740233Y-145594082D01*
X117743116Y-145686468D01*
X117745579Y-145811485D01*
X117751697Y-146158278D01*
X117700303Y-146138738D01*
X117653246Y-146120787D01*
X117618015Y-146103511D01*
X117595017Y-146081242D01*
X117581655Y-146047165D01*
X117575328Y-145994463D01*
X117573437Y-145916323D01*
X117573385Y-145805928D01*
X117573117Y-145717935D01*
X117571521Y-145633502D01*
X117567712Y-145575834D01*
X117560820Y-145537988D01*
X117549975Y-145513024D01*
X117534308Y-145494000D01*
X117495792Y-145467153D01*
X117431091Y-145457034D01*
X117367081Y-145482606D01*
X117362856Y-145485880D01*
X117349689Y-145501007D01*
X117339975Y-145525268D01*
X117332903Y-145564650D01*
X117327656Y-145625141D01*
X117323421Y-145712729D01*
X117319385Y-145833402D01*
X117309615Y-146156515D01*
X117143539Y-146082065D01*
X117143539Y-145787062D01*
X117143883Y-145706919D01*
X117146847Y-145595431D01*
X117154351Y-145512421D01*
X117168190Y-145451199D01*
X117190155Y-145405075D01*
X117222039Y-145367358D01*
X117265633Y-145331358D01*
X117328336Y-145295089D01*
X117427117Y-145271412D01*
X117526372Y-145281684D01*
G36*
X117526372Y-145281684D02*
G01*
X117617629Y-145324569D01*
X117692416Y-145398729D01*
X117707917Y-145421944D01*
X117720774Y-145448256D01*
X117729893Y-145481420D01*
X117736102Y-145527881D01*
X117740233Y-145594082D01*
X117743116Y-145686468D01*
X117745579Y-145811485D01*
X117751697Y-146158278D01*
X117700303Y-146138738D01*
X117653246Y-146120787D01*
X117618015Y-146103511D01*
X117595017Y-146081242D01*
X117581655Y-146047165D01*
X117575328Y-145994463D01*
X117573437Y-145916323D01*
X117573385Y-145805928D01*
X117573117Y-145717935D01*
X117571521Y-145633502D01*
X117567712Y-145575834D01*
X117560820Y-145537988D01*
X117549975Y-145513024D01*
X117534308Y-145494000D01*
X117495792Y-145467153D01*
X117431091Y-145457034D01*
X117367081Y-145482606D01*
X117362856Y-145485880D01*
X117349689Y-145501007D01*
X117339975Y-145525268D01*
X117332903Y-145564650D01*
X117327656Y-145625141D01*
X117323421Y-145712729D01*
X117319385Y-145833402D01*
X117309615Y-146156515D01*
X117143539Y-146082065D01*
X117143539Y-145787062D01*
X117143883Y-145706919D01*
X117146847Y-145595431D01*
X117154351Y-145512421D01*
X117168190Y-145451199D01*
X117190155Y-145405075D01*
X117222039Y-145367358D01*
X117265633Y-145331358D01*
X117328336Y-145295089D01*
X117427117Y-145271412D01*
X117526372Y-145281684D01*
G37*
X115071892Y-145347167D02*
X115078060Y-145350581D01*
X115128447Y-145389692D01*
X115173498Y-145439975D01*
X115181355Y-145451339D01*
X115196376Y-145477860D01*
X115207107Y-145509336D01*
X115214486Y-145552591D01*
X115219452Y-145614449D01*
X115222942Y-145701733D01*
X115225893Y-145821269D01*
X115226311Y-145841478D01*
X115227654Y-145972499D01*
X115225761Y-146065296D01*
X115220605Y-146120507D01*
X115212158Y-146138769D01*
X115186594Y-146133301D01*
X115143166Y-146116733D01*
X115132940Y-146111888D01*
X115116967Y-146100920D01*
X115105954Y-146082890D01*
X115098750Y-146051396D01*
X115094208Y-146000036D01*
X115091180Y-145922410D01*
X115088516Y-145812115D01*
X115087785Y-145779875D01*
X115084965Y-145678050D01*
X115081304Y-145606788D01*
X115075694Y-145559332D01*
X115067029Y-145528925D01*
X115054202Y-145508810D01*
X115036105Y-145492229D01*
X114982525Y-145463161D01*
X114916612Y-145457564D01*
X114857635Y-145479807D01*
X114815203Y-145525859D01*
X114798923Y-145591692D01*
X114798470Y-145609587D01*
X114789578Y-145641982D01*
X114763325Y-145646925D01*
X114711919Y-145627633D01*
X114700013Y-145621446D01*
X114667835Y-145585058D01*
X114667198Y-145530954D01*
X114697856Y-145456128D01*
X114725978Y-145415350D01*
X114797883Y-145357421D01*
X114886638Y-145324670D01*
X114981542Y-145320212D01*
X115071892Y-145347167D01*
G36*
X115071892Y-145347167D02*
G01*
X115078060Y-145350581D01*
X115128447Y-145389692D01*
X115173498Y-145439975D01*
X115181355Y-145451339D01*
X115196376Y-145477860D01*
X115207107Y-145509336D01*
X115214486Y-145552591D01*
X115219452Y-145614449D01*
X115222942Y-145701733D01*
X115225893Y-145821269D01*
X115226311Y-145841478D01*
X115227654Y-145972499D01*
X115225761Y-146065296D01*
X115220605Y-146120507D01*
X115212158Y-146138769D01*
X115186594Y-146133301D01*
X115143166Y-146116733D01*
X115132940Y-146111888D01*
X115116967Y-146100920D01*
X115105954Y-146082890D01*
X115098750Y-146051396D01*
X115094208Y-146000036D01*
X115091180Y-145922410D01*
X115088516Y-145812115D01*
X115087785Y-145779875D01*
X115084965Y-145678050D01*
X115081304Y-145606788D01*
X115075694Y-145559332D01*
X115067029Y-145528925D01*
X115054202Y-145508810D01*
X115036105Y-145492229D01*
X114982525Y-145463161D01*
X114916612Y-145457564D01*
X114857635Y-145479807D01*
X114815203Y-145525859D01*
X114798923Y-145591692D01*
X114798470Y-145609587D01*
X114789578Y-145641982D01*
X114763325Y-145646925D01*
X114711919Y-145627633D01*
X114700013Y-145621446D01*
X114667835Y-145585058D01*
X114667198Y-145530954D01*
X114697856Y-145456128D01*
X114725978Y-145415350D01*
X114797883Y-145357421D01*
X114886638Y-145324670D01*
X114981542Y-145320212D01*
X115071892Y-145347167D01*
G37*
X116576923Y-145081806D02*
X116576923Y-145616455D01*
X116576660Y-145755094D01*
X116575958Y-145879805D01*
X116574883Y-145985557D01*
X116573500Y-146067322D01*
X116571874Y-146120069D01*
X116570070Y-146138769D01*
X116569364Y-146138706D01*
X116545387Y-146131912D01*
X116501685Y-146117320D01*
X116440154Y-146095870D01*
X116440154Y-145820617D01*
X116439763Y-145712466D01*
X116437946Y-145634026D01*
X116433767Y-145580647D01*
X116426286Y-145545256D01*
X116414567Y-145520779D01*
X116397671Y-145500144D01*
X116386152Y-145489170D01*
X116323864Y-145458775D01*
X116255211Y-145461466D01*
X116192298Y-145497406D01*
X116183139Y-145506325D01*
X116168471Y-145524844D01*
X116158433Y-145549326D01*
X116152151Y-145586393D01*
X116148748Y-145642667D01*
X116147349Y-145724771D01*
X116147077Y-145839329D01*
X116146947Y-145897430D01*
X116146099Y-145992993D01*
X116144594Y-146069526D01*
X116142585Y-146120345D01*
X116140223Y-146138769D01*
X116139518Y-146138706D01*
X116115541Y-146131912D01*
X116071839Y-146117320D01*
X116010308Y-146095870D01*
X116010338Y-145819358D01*
X116010384Y-145794742D01*
X116012970Y-145666419D01*
X116020913Y-145569384D01*
X116036155Y-145497057D01*
X116060636Y-145442855D01*
X116096298Y-145400198D01*
X116145082Y-145362505D01*
X116192661Y-145338910D01*
X116268732Y-145320672D01*
X116343556Y-145319636D01*
X116401077Y-145337378D01*
X116405402Y-145339829D01*
X116418738Y-145339566D01*
X116427851Y-145319039D01*
X116434428Y-145271980D01*
X116440154Y-145192120D01*
X116449923Y-145028236D01*
X116576923Y-145081806D01*
G36*
X116576923Y-145081806D02*
G01*
X116576923Y-145616455D01*
X116576660Y-145755094D01*
X116575958Y-145879805D01*
X116574883Y-145985557D01*
X116573500Y-146067322D01*
X116571874Y-146120069D01*
X116570070Y-146138769D01*
X116569364Y-146138706D01*
X116545387Y-146131912D01*
X116501685Y-146117320D01*
X116440154Y-146095870D01*
X116440154Y-145820617D01*
X116439763Y-145712466D01*
X116437946Y-145634026D01*
X116433767Y-145580647D01*
X116426286Y-145545256D01*
X116414567Y-145520779D01*
X116397671Y-145500144D01*
X116386152Y-145489170D01*
X116323864Y-145458775D01*
X116255211Y-145461466D01*
X116192298Y-145497406D01*
X116183139Y-145506325D01*
X116168471Y-145524844D01*
X116158433Y-145549326D01*
X116152151Y-145586393D01*
X116148748Y-145642667D01*
X116147349Y-145724771D01*
X116147077Y-145839329D01*
X116146947Y-145897430D01*
X116146099Y-145992993D01*
X116144594Y-146069526D01*
X116142585Y-146120345D01*
X116140223Y-146138769D01*
X116139518Y-146138706D01*
X116115541Y-146131912D01*
X116071839Y-146117320D01*
X116010308Y-146095870D01*
X116010338Y-145819358D01*
X116010384Y-145794742D01*
X116012970Y-145666419D01*
X116020913Y-145569384D01*
X116036155Y-145497057D01*
X116060636Y-145442855D01*
X116096298Y-145400198D01*
X116145082Y-145362505D01*
X116192661Y-145338910D01*
X116268732Y-145320672D01*
X116343556Y-145319636D01*
X116401077Y-145337378D01*
X116405402Y-145339829D01*
X116418738Y-145339566D01*
X116427851Y-145319039D01*
X116434428Y-145271980D01*
X116440154Y-145192120D01*
X116449923Y-145028236D01*
X116576923Y-145081806D01*
G37*
X113787998Y-145324034D02*
X113830850Y-145340829D01*
X113880615Y-145363503D01*
X113880615Y-146018533D01*
X113818785Y-146080363D01*
X113804662Y-146094228D01*
X113765536Y-146125046D01*
X113726078Y-146135028D01*
X113667362Y-146130433D01*
X113643456Y-146127462D01*
X113581801Y-146121176D01*
X113538692Y-146118672D01*
X113525905Y-146119055D01*
X113473446Y-146123200D01*
X113410022Y-146130433D01*
X113389730Y-146132918D01*
X113338610Y-146133895D01*
X113301207Y-146118462D01*
X113258599Y-146080363D01*
X113196769Y-146018533D01*
X113196769Y-145668343D01*
X113197251Y-145564857D01*
X113198753Y-145466192D01*
X113201089Y-145388068D01*
X113204071Y-145336662D01*
X113207509Y-145318154D01*
X113208230Y-145318204D01*
X113233203Y-145327413D01*
X113275399Y-145347707D01*
X113332549Y-145377261D01*
X113337928Y-145684746D01*
X113343308Y-145992231D01*
X113460539Y-145992231D01*
X113465885Y-145655192D01*
X113467579Y-145563574D01*
X113470005Y-145465649D01*
X113472634Y-145387906D01*
X113475246Y-145336642D01*
X113477623Y-145318154D01*
X113478306Y-145318219D01*
X113501996Y-145325020D01*
X113545546Y-145339604D01*
X113607077Y-145361054D01*
X113607376Y-145657104D01*
X113607676Y-145708532D01*
X113609754Y-145808466D01*
X113613470Y-145891925D01*
X113618430Y-145951377D01*
X113624240Y-145979287D01*
X113645024Y-145994214D01*
X113687440Y-145998825D01*
X113734077Y-145992231D01*
X113739423Y-145655192D01*
X113741336Y-145569546D01*
X113745303Y-145468172D01*
X113750491Y-145388655D01*
X113756499Y-145336736D01*
X113762927Y-145318154D01*
X113787998Y-145324034D01*
G36*
X113787998Y-145324034D02*
G01*
X113830850Y-145340829D01*
X113880615Y-145363503D01*
X113880615Y-146018533D01*
X113818785Y-146080363D01*
X113804662Y-146094228D01*
X113765536Y-146125046D01*
X113726078Y-146135028D01*
X113667362Y-146130433D01*
X113643456Y-146127462D01*
X113581801Y-146121176D01*
X113538692Y-146118672D01*
X113525905Y-146119055D01*
X113473446Y-146123200D01*
X113410022Y-146130433D01*
X113389730Y-146132918D01*
X113338610Y-146133895D01*
X113301207Y-146118462D01*
X113258599Y-146080363D01*
X113196769Y-146018533D01*
X113196769Y-145668343D01*
X113197251Y-145564857D01*
X113198753Y-145466192D01*
X113201089Y-145388068D01*
X113204071Y-145336662D01*
X113207509Y-145318154D01*
X113208230Y-145318204D01*
X113233203Y-145327413D01*
X113275399Y-145347707D01*
X113332549Y-145377261D01*
X113337928Y-145684746D01*
X113343308Y-145992231D01*
X113460539Y-145992231D01*
X113465885Y-145655192D01*
X113467579Y-145563574D01*
X113470005Y-145465649D01*
X113472634Y-145387906D01*
X113475246Y-145336642D01*
X113477623Y-145318154D01*
X113478306Y-145318219D01*
X113501996Y-145325020D01*
X113545546Y-145339604D01*
X113607077Y-145361054D01*
X113607376Y-145657104D01*
X113607676Y-145708532D01*
X113609754Y-145808466D01*
X113613470Y-145891925D01*
X113618430Y-145951377D01*
X113624240Y-145979287D01*
X113645024Y-145994214D01*
X113687440Y-145998825D01*
X113734077Y-145992231D01*
X113739423Y-145655192D01*
X113741336Y-145569546D01*
X113745303Y-145468172D01*
X113750491Y-145388655D01*
X113756499Y-145336736D01*
X113762927Y-145318154D01*
X113787998Y-145324034D01*
G37*
X119996154Y-145708923D02*
X119996135Y-145730105D01*
X119995076Y-145824584D01*
X119991436Y-145890414D01*
X119983892Y-145936394D01*
X119971122Y-145971321D01*
X119951803Y-146003995D01*
X119947050Y-146010775D01*
X119896759Y-146064231D01*
X119839457Y-146104547D01*
X119810032Y-146117629D01*
X119704299Y-146139450D01*
X119599734Y-146125336D01*
X119503368Y-146077105D01*
X119422235Y-145996579D01*
X119415385Y-145985791D01*
X119393097Y-145923153D01*
X119378079Y-145835935D01*
X119370792Y-145735210D01*
X119371611Y-145642037D01*
X119568796Y-145642037D01*
X119570349Y-145771114D01*
X119570974Y-145779420D01*
X119580077Y-145850643D01*
X119596288Y-145895809D01*
X119623660Y-145926752D01*
X119669553Y-145955737D01*
X119714942Y-145957261D01*
X119761692Y-145923846D01*
X119769824Y-145915053D01*
X119785754Y-145888741D01*
X119795159Y-145850520D01*
X119799632Y-145791349D01*
X119800769Y-145702182D01*
X119798822Y-145618664D01*
X119789105Y-145539095D01*
X119769047Y-145488808D01*
X119736240Y-145462513D01*
X119688280Y-145454923D01*
X119670016Y-145456432D01*
X119618848Y-145484107D01*
X119585035Y-145546172D01*
X119568796Y-145642037D01*
X119371611Y-145642037D01*
X119371699Y-145632052D01*
X119381262Y-145537533D01*
X119399943Y-145462727D01*
X119423951Y-145412905D01*
X119491536Y-145335409D01*
X119583114Y-145287256D01*
X119695213Y-145270703D01*
X119725151Y-145271599D01*
X119813315Y-145289929D01*
X119885733Y-145336104D01*
X119952192Y-145415648D01*
X119956147Y-145421548D01*
X119974040Y-145453288D01*
X119985678Y-145489163D01*
X119992371Y-145537906D01*
X119995426Y-145608249D01*
X119996106Y-145702182D01*
X119996154Y-145708923D01*
G36*
X119996154Y-145708923D02*
G01*
X119996135Y-145730105D01*
X119995076Y-145824584D01*
X119991436Y-145890414D01*
X119983892Y-145936394D01*
X119971122Y-145971321D01*
X119951803Y-146003995D01*
X119947050Y-146010775D01*
X119896759Y-146064231D01*
X119839457Y-146104547D01*
X119810032Y-146117629D01*
X119704299Y-146139450D01*
X119599734Y-146125336D01*
X119503368Y-146077105D01*
X119422235Y-145996579D01*
X119415385Y-145985791D01*
X119393097Y-145923153D01*
X119378079Y-145835935D01*
X119370792Y-145735210D01*
X119371611Y-145642037D01*
X119568796Y-145642037D01*
X119570349Y-145771114D01*
X119570974Y-145779420D01*
X119580077Y-145850643D01*
X119596288Y-145895809D01*
X119623660Y-145926752D01*
X119669553Y-145955737D01*
X119714942Y-145957261D01*
X119761692Y-145923846D01*
X119769824Y-145915053D01*
X119785754Y-145888741D01*
X119795159Y-145850520D01*
X119799632Y-145791349D01*
X119800769Y-145702182D01*
X119798822Y-145618664D01*
X119789105Y-145539095D01*
X119769047Y-145488808D01*
X119736240Y-145462513D01*
X119688280Y-145454923D01*
X119670016Y-145456432D01*
X119618848Y-145484107D01*
X119585035Y-145546172D01*
X119568796Y-145642037D01*
X119371611Y-145642037D01*
X119371699Y-145632052D01*
X119381262Y-145537533D01*
X119399943Y-145462727D01*
X119423951Y-145412905D01*
X119491536Y-145335409D01*
X119583114Y-145287256D01*
X119695213Y-145270703D01*
X119725151Y-145271599D01*
X119813315Y-145289929D01*
X119885733Y-145336104D01*
X119952192Y-145415648D01*
X119956147Y-145421548D01*
X119974040Y-145453288D01*
X119985678Y-145489163D01*
X119992371Y-145537906D01*
X119995426Y-145608249D01*
X119996106Y-145702182D01*
X119996154Y-145708923D01*
G37*
X111750794Y-145732376D02*
X111750413Y-145784449D01*
X111745641Y-145887047D01*
X111733150Y-145962126D01*
X111710121Y-146017748D01*
X111673732Y-146061975D01*
X111621162Y-146102869D01*
X111587714Y-146121466D01*
X111534098Y-146133991D01*
X111458780Y-146133003D01*
X111416672Y-146129035D01*
X111365879Y-146116920D01*
X111325280Y-146090585D01*
X111278049Y-146041514D01*
X111271738Y-146034346D01*
X111229277Y-145979189D01*
X111209018Y-145931150D01*
X111203846Y-145874184D01*
X111203846Y-145790471D01*
X111262346Y-145812552D01*
X111304994Y-145838364D01*
X111342064Y-145898928D01*
X111349803Y-145918320D01*
X111393074Y-145973235D01*
X111451976Y-146000879D01*
X111516111Y-145998393D01*
X111575077Y-145962923D01*
X111595342Y-145940805D01*
X111613720Y-145907436D01*
X111607971Y-145877117D01*
X111574887Y-145845913D01*
X111511261Y-145809887D01*
X111413885Y-145765103D01*
X111213615Y-145677445D01*
X111208301Y-145590607D01*
X111210299Y-145535296D01*
X111340783Y-145535296D01*
X111350688Y-145569538D01*
X111395756Y-145606096D01*
X111477557Y-145647692D01*
X111491092Y-145653718D01*
X111555818Y-145681753D01*
X111604247Y-145701472D01*
X111626751Y-145708923D01*
X111630161Y-145703438D01*
X111631529Y-145669948D01*
X111626651Y-145616116D01*
X111614364Y-145563473D01*
X111576041Y-145497151D01*
X111520720Y-145459780D01*
X111454640Y-145454721D01*
X111384040Y-145485339D01*
X111364474Y-145500648D01*
X111340783Y-145535296D01*
X111210299Y-145535296D01*
X111210647Y-145525663D01*
X111240186Y-145443590D01*
X111277472Y-145398361D01*
X111354776Y-145347838D01*
X111446478Y-145322316D01*
X111541274Y-145324336D01*
X111627859Y-145356440D01*
X111646920Y-145368767D01*
X111690640Y-145406912D01*
X111720540Y-145455167D01*
X111738968Y-145520710D01*
X111748270Y-145610720D01*
X111749499Y-145669948D01*
X111750794Y-145732376D01*
G36*
X111750794Y-145732376D02*
G01*
X111750413Y-145784449D01*
X111745641Y-145887047D01*
X111733150Y-145962126D01*
X111710121Y-146017748D01*
X111673732Y-146061975D01*
X111621162Y-146102869D01*
X111587714Y-146121466D01*
X111534098Y-146133991D01*
X111458780Y-146133003D01*
X111416672Y-146129035D01*
X111365879Y-146116920D01*
X111325280Y-146090585D01*
X111278049Y-146041514D01*
X111271738Y-146034346D01*
X111229277Y-145979189D01*
X111209018Y-145931150D01*
X111203846Y-145874184D01*
X111203846Y-145790471D01*
X111262346Y-145812552D01*
X111304994Y-145838364D01*
X111342064Y-145898928D01*
X111349803Y-145918320D01*
X111393074Y-145973235D01*
X111451976Y-146000879D01*
X111516111Y-145998393D01*
X111575077Y-145962923D01*
X111595342Y-145940805D01*
X111613720Y-145907436D01*
X111607971Y-145877117D01*
X111574887Y-145845913D01*
X111511261Y-145809887D01*
X111413885Y-145765103D01*
X111213615Y-145677445D01*
X111208301Y-145590607D01*
X111210299Y-145535296D01*
X111340783Y-145535296D01*
X111350688Y-145569538D01*
X111395756Y-145606096D01*
X111477557Y-145647692D01*
X111491092Y-145653718D01*
X111555818Y-145681753D01*
X111604247Y-145701472D01*
X111626751Y-145708923D01*
X111630161Y-145703438D01*
X111631529Y-145669948D01*
X111626651Y-145616116D01*
X111614364Y-145563473D01*
X111576041Y-145497151D01*
X111520720Y-145459780D01*
X111454640Y-145454721D01*
X111384040Y-145485339D01*
X111364474Y-145500648D01*
X111340783Y-145535296D01*
X111210299Y-145535296D01*
X111210647Y-145525663D01*
X111240186Y-145443590D01*
X111277472Y-145398361D01*
X111354776Y-145347838D01*
X111446478Y-145322316D01*
X111541274Y-145324336D01*
X111627859Y-145356440D01*
X111646920Y-145368767D01*
X111690640Y-145406912D01*
X111720540Y-145455167D01*
X111738968Y-145520710D01*
X111748270Y-145610720D01*
X111749499Y-145669948D01*
X111750794Y-145732376D01*
G37*
X114564401Y-145728462D02*
X114562839Y-145804652D01*
X114551810Y-145908507D01*
X114527814Y-145986333D01*
X114488043Y-146045760D01*
X114429688Y-146094418D01*
X114374100Y-146122546D01*
X114280751Y-146138199D01*
X114187530Y-146121084D01*
X114103272Y-146073388D01*
X114036818Y-145997294D01*
X114028793Y-145983262D01*
X114018196Y-145958679D01*
X114010335Y-145927309D01*
X114004807Y-145883769D01*
X114001206Y-145822678D01*
X113999128Y-145738655D01*
X113999064Y-145731200D01*
X114134615Y-145731200D01*
X114135077Y-145802316D01*
X114137999Y-145866641D01*
X114145221Y-145908166D01*
X114158561Y-145936067D01*
X114179836Y-145959517D01*
X114184821Y-145964025D01*
X114248863Y-145997295D01*
X114316625Y-145993890D01*
X114379734Y-145954042D01*
X114398526Y-145933398D01*
X114414254Y-145906029D01*
X114423039Y-145868192D01*
X114426859Y-145810355D01*
X114427692Y-145722986D01*
X114427281Y-145656319D01*
X114424434Y-145591245D01*
X114417256Y-145549251D01*
X114403889Y-145521063D01*
X114382472Y-145497406D01*
X114369890Y-145486753D01*
X114304699Y-145458057D01*
X114236400Y-145462575D01*
X114177098Y-145500144D01*
X114164333Y-145515040D01*
X114148764Y-145543089D01*
X114139762Y-145582258D01*
X114135617Y-145641858D01*
X114134615Y-145731200D01*
X113999064Y-145731200D01*
X113998167Y-145626320D01*
X113997919Y-145480289D01*
X113997846Y-145026963D01*
X114061346Y-145053564D01*
X114078136Y-145060845D01*
X114104859Y-145077287D01*
X114120156Y-145102187D01*
X114128563Y-145145732D01*
X114134615Y-145218106D01*
X114140144Y-145283089D01*
X114147450Y-145325750D01*
X114157918Y-145341670D01*
X114173692Y-145337400D01*
X114213890Y-145322397D01*
X114285728Y-145318678D01*
X114363010Y-145332572D01*
X114429688Y-145362505D01*
X114466371Y-145390211D01*
X114513472Y-145444269D01*
X114543638Y-145513577D01*
X114559678Y-145605765D01*
X114564191Y-145722986D01*
X114564401Y-145728462D01*
G36*
X114564401Y-145728462D02*
G01*
X114562839Y-145804652D01*
X114551810Y-145908507D01*
X114527814Y-145986333D01*
X114488043Y-146045760D01*
X114429688Y-146094418D01*
X114374100Y-146122546D01*
X114280751Y-146138199D01*
X114187530Y-146121084D01*
X114103272Y-146073388D01*
X114036818Y-145997294D01*
X114028793Y-145983262D01*
X114018196Y-145958679D01*
X114010335Y-145927309D01*
X114004807Y-145883769D01*
X114001206Y-145822678D01*
X113999128Y-145738655D01*
X113999064Y-145731200D01*
X114134615Y-145731200D01*
X114135077Y-145802316D01*
X114137999Y-145866641D01*
X114145221Y-145908166D01*
X114158561Y-145936067D01*
X114179836Y-145959517D01*
X114184821Y-145964025D01*
X114248863Y-145997295D01*
X114316625Y-145993890D01*
X114379734Y-145954042D01*
X114398526Y-145933398D01*
X114414254Y-145906029D01*
X114423039Y-145868192D01*
X114426859Y-145810355D01*
X114427692Y-145722986D01*
X114427281Y-145656319D01*
X114424434Y-145591245D01*
X114417256Y-145549251D01*
X114403889Y-145521063D01*
X114382472Y-145497406D01*
X114369890Y-145486753D01*
X114304699Y-145458057D01*
X114236400Y-145462575D01*
X114177098Y-145500144D01*
X114164333Y-145515040D01*
X114148764Y-145543089D01*
X114139762Y-145582258D01*
X114135617Y-145641858D01*
X114134615Y-145731200D01*
X113999064Y-145731200D01*
X113998167Y-145626320D01*
X113997919Y-145480289D01*
X113997846Y-145026963D01*
X114061346Y-145053564D01*
X114078136Y-145060845D01*
X114104859Y-145077287D01*
X114120156Y-145102187D01*
X114128563Y-145145732D01*
X114134615Y-145218106D01*
X114140144Y-145283089D01*
X114147450Y-145325750D01*
X114157918Y-145341670D01*
X114173692Y-145337400D01*
X114213890Y-145322397D01*
X114285728Y-145318678D01*
X114363010Y-145332572D01*
X114429688Y-145362505D01*
X114466371Y-145390211D01*
X114513472Y-145444269D01*
X114543638Y-145513577D01*
X114559678Y-145605765D01*
X114564191Y-145722986D01*
X114564401Y-145728462D01*
G37*
X118510787Y-145653536D02*
X118504574Y-145801643D01*
X118501066Y-145833021D01*
X118474927Y-145944705D01*
X118427694Y-146029642D01*
X118355862Y-146094741D01*
X118351802Y-146097428D01*
X118260487Y-146135634D01*
X118165144Y-146139034D01*
X118073274Y-146109939D01*
X117992379Y-146050660D01*
X117929962Y-145963510D01*
X117928914Y-145961409D01*
X117908173Y-145907289D01*
X117892980Y-145845781D01*
X117884921Y-145788039D01*
X117885582Y-145745215D01*
X117896548Y-145728462D01*
X117906290Y-145729480D01*
X117952877Y-145748009D01*
X118005682Y-145782081D01*
X118050603Y-145821522D01*
X118073535Y-145856155D01*
X118097373Y-145903133D01*
X118146230Y-145945862D01*
X118202963Y-145962923D01*
X118223758Y-145957990D01*
X118264804Y-145933157D01*
X118300557Y-145898685D01*
X118315846Y-145867411D01*
X118315842Y-145867295D01*
X118298495Y-145852933D01*
X118252247Y-145827025D01*
X118184067Y-145793210D01*
X118100923Y-145755129D01*
X118100466Y-145754927D01*
X118010138Y-145714709D01*
X117949592Y-145685733D01*
X117912888Y-145663474D01*
X117894086Y-145643407D01*
X117887246Y-145621009D01*
X117886429Y-145591756D01*
X117892113Y-145536363D01*
X118085000Y-145536363D01*
X118104911Y-145553777D01*
X118154521Y-145579872D01*
X118155976Y-145580610D01*
X118214506Y-145608483D01*
X118266868Y-145630719D01*
X118300086Y-145640126D01*
X118313410Y-145627552D01*
X118315846Y-145584468D01*
X118305724Y-145530847D01*
X118270631Y-145482119D01*
X118219823Y-145456856D01*
X118163181Y-145459406D01*
X118110584Y-145494120D01*
X118089910Y-145518107D01*
X118085000Y-145536363D01*
X117892113Y-145536363D01*
X117893622Y-145521654D01*
X117929184Y-145426412D01*
X117988714Y-145351567D01*
X118065746Y-145299745D01*
X118153815Y-145273573D01*
X118246454Y-145275676D01*
X118337198Y-145308681D01*
X118419579Y-145375215D01*
X118465222Y-145441055D01*
X118498008Y-145535036D01*
X118503339Y-145584468D01*
X118510787Y-145653536D01*
G36*
X118510787Y-145653536D02*
G01*
X118504574Y-145801643D01*
X118501066Y-145833021D01*
X118474927Y-145944705D01*
X118427694Y-146029642D01*
X118355862Y-146094741D01*
X118351802Y-146097428D01*
X118260487Y-146135634D01*
X118165144Y-146139034D01*
X118073274Y-146109939D01*
X117992379Y-146050660D01*
X117929962Y-145963510D01*
X117928914Y-145961409D01*
X117908173Y-145907289D01*
X117892980Y-145845781D01*
X117884921Y-145788039D01*
X117885582Y-145745215D01*
X117896548Y-145728462D01*
X117906290Y-145729480D01*
X117952877Y-145748009D01*
X118005682Y-145782081D01*
X118050603Y-145821522D01*
X118073535Y-145856155D01*
X118097373Y-145903133D01*
X118146230Y-145945862D01*
X118202963Y-145962923D01*
X118223758Y-145957990D01*
X118264804Y-145933157D01*
X118300557Y-145898685D01*
X118315846Y-145867411D01*
X118315842Y-145867295D01*
X118298495Y-145852933D01*
X118252247Y-145827025D01*
X118184067Y-145793210D01*
X118100923Y-145755129D01*
X118100466Y-145754927D01*
X118010138Y-145714709D01*
X117949592Y-145685733D01*
X117912888Y-145663474D01*
X117894086Y-145643407D01*
X117887246Y-145621009D01*
X117886429Y-145591756D01*
X117892113Y-145536363D01*
X118085000Y-145536363D01*
X118104911Y-145553777D01*
X118154521Y-145579872D01*
X118155976Y-145580610D01*
X118214506Y-145608483D01*
X118266868Y-145630719D01*
X118300086Y-145640126D01*
X118313410Y-145627552D01*
X118315846Y-145584468D01*
X118305724Y-145530847D01*
X118270631Y-145482119D01*
X118219823Y-145456856D01*
X118163181Y-145459406D01*
X118110584Y-145494120D01*
X118089910Y-145518107D01*
X118085000Y-145536363D01*
X117892113Y-145536363D01*
X117893622Y-145521654D01*
X117929184Y-145426412D01*
X117988714Y-145351567D01*
X118065746Y-145299745D01*
X118153815Y-145273573D01*
X118246454Y-145275676D01*
X118337198Y-145308681D01*
X118419579Y-145375215D01*
X118465222Y-145441055D01*
X118498008Y-145535036D01*
X118503339Y-145584468D01*
X118510787Y-145653536D01*
G37*
X115720458Y-145339228D02*
X115787622Y-145378389D01*
X115817169Y-145408902D01*
X115873948Y-145500110D01*
X115893077Y-145599548D01*
X115893077Y-145667960D01*
X115830191Y-145641518D01*
X115786700Y-145614837D01*
X115752426Y-145559446D01*
X115748907Y-145548024D01*
X115711028Y-145489838D01*
X115653936Y-145458407D01*
X115588383Y-145457058D01*
X115525117Y-145489116D01*
X115515672Y-145497383D01*
X115484087Y-145533311D01*
X115478871Y-145564635D01*
X115502765Y-145595391D01*
X115558510Y-145629617D01*
X115648846Y-145671350D01*
X115654956Y-145673993D01*
X115755241Y-145720755D01*
X115823735Y-145762181D01*
X115865899Y-145803542D01*
X115887193Y-145850111D01*
X115893077Y-145907160D01*
X115885366Y-145970408D01*
X115846430Y-146051364D01*
X115777932Y-146109522D01*
X115728388Y-146126983D01*
X115658469Y-146136537D01*
X115590575Y-146134496D01*
X115542093Y-146120082D01*
X115536943Y-146116493D01*
X115523267Y-146091416D01*
X115532757Y-146047218D01*
X115549246Y-146012527D01*
X115575687Y-145998084D01*
X115625834Y-145998803D01*
X115695453Y-145994660D01*
X115740943Y-145966054D01*
X115756308Y-145913104D01*
X115756294Y-145911582D01*
X115746983Y-145880845D01*
X115715311Y-145852643D01*
X115653731Y-145820136D01*
X115569986Y-145780998D01*
X115514518Y-145759706D01*
X115482497Y-145761079D01*
X115467534Y-145789203D01*
X115463242Y-145848170D01*
X115463231Y-145942068D01*
X115462752Y-146000031D01*
X115460556Y-146071612D01*
X115456986Y-146120606D01*
X115452491Y-146138769D01*
X115451290Y-146138646D01*
X115425319Y-146128802D01*
X115382305Y-146108028D01*
X115322859Y-146077287D01*
X115329923Y-145800298D01*
X115330414Y-145781928D01*
X115336025Y-145652992D01*
X115345938Y-145555814D01*
X115362175Y-145483925D01*
X115386759Y-145430852D01*
X115421715Y-145390127D01*
X115469064Y-145355279D01*
X115469940Y-145354733D01*
X115546499Y-145326303D01*
X115635044Y-145321500D01*
X115720458Y-145339228D01*
G36*
X115720458Y-145339228D02*
G01*
X115787622Y-145378389D01*
X115817169Y-145408902D01*
X115873948Y-145500110D01*
X115893077Y-145599548D01*
X115893077Y-145667960D01*
X115830191Y-145641518D01*
X115786700Y-145614837D01*
X115752426Y-145559446D01*
X115748907Y-145548024D01*
X115711028Y-145489838D01*
X115653936Y-145458407D01*
X115588383Y-145457058D01*
X115525117Y-145489116D01*
X115515672Y-145497383D01*
X115484087Y-145533311D01*
X115478871Y-145564635D01*
X115502765Y-145595391D01*
X115558510Y-145629617D01*
X115648846Y-145671350D01*
X115654956Y-145673993D01*
X115755241Y-145720755D01*
X115823735Y-145762181D01*
X115865899Y-145803542D01*
X115887193Y-145850111D01*
X115893077Y-145907160D01*
X115885366Y-145970408D01*
X115846430Y-146051364D01*
X115777932Y-146109522D01*
X115728388Y-146126983D01*
X115658469Y-146136537D01*
X115590575Y-146134496D01*
X115542093Y-146120082D01*
X115536943Y-146116493D01*
X115523267Y-146091416D01*
X115532757Y-146047218D01*
X115549246Y-146012527D01*
X115575687Y-145998084D01*
X115625834Y-145998803D01*
X115695453Y-145994660D01*
X115740943Y-145966054D01*
X115756308Y-145913104D01*
X115756294Y-145911582D01*
X115746983Y-145880845D01*
X115715311Y-145852643D01*
X115653731Y-145820136D01*
X115569986Y-145780998D01*
X115514518Y-145759706D01*
X115482497Y-145761079D01*
X115467534Y-145789203D01*
X115463242Y-145848170D01*
X115463231Y-145942068D01*
X115462752Y-146000031D01*
X115460556Y-146071612D01*
X115456986Y-146120606D01*
X115452491Y-146138769D01*
X115451290Y-146138646D01*
X115425319Y-146128802D01*
X115382305Y-146108028D01*
X115322859Y-146077287D01*
X115329923Y-145800298D01*
X115330414Y-145781928D01*
X115336025Y-145652992D01*
X115345938Y-145555814D01*
X115362175Y-145483925D01*
X115386759Y-145430852D01*
X115421715Y-145390127D01*
X115469064Y-145355279D01*
X115469940Y-145354733D01*
X115546499Y-145326303D01*
X115635044Y-145321500D01*
X115720458Y-145339228D01*
G37*
X119247828Y-145798205D02*
X119249763Y-145948269D01*
X119250300Y-145991802D01*
X119252019Y-146137344D01*
X119252365Y-146248711D01*
X119250277Y-146329804D01*
X119244698Y-146384522D01*
X119234567Y-146416761D01*
X119218826Y-146430422D01*
X119196417Y-146429403D01*
X119166280Y-146417603D01*
X119127355Y-146398920D01*
X119119038Y-146394933D01*
X119084402Y-146375419D01*
X119066314Y-146352202D01*
X119059392Y-146313492D01*
X119058256Y-146247497D01*
X119058205Y-146129000D01*
X118936141Y-146129000D01*
X118861055Y-146125712D01*
X118802015Y-146112377D01*
X118752986Y-146085423D01*
X118749330Y-146082788D01*
X118699581Y-146038286D01*
X118664959Y-145984523D01*
X118643123Y-145914154D01*
X118631737Y-145819830D01*
X118628959Y-145713271D01*
X118823846Y-145713271D01*
X118823880Y-145731131D01*
X118825735Y-145811748D01*
X118831693Y-145864447D01*
X118843506Y-145898668D01*
X118862923Y-145923846D01*
X118864133Y-145925049D01*
X118911858Y-145957628D01*
X118958110Y-145954417D01*
X119010350Y-145914965D01*
X119023128Y-145901482D01*
X119041949Y-145873837D01*
X119052562Y-145837880D01*
X119057252Y-145783364D01*
X119058308Y-145700042D01*
X119057394Y-145649598D01*
X119047477Y-145557857D01*
X119024842Y-145497752D01*
X118987238Y-145464900D01*
X118932416Y-145454923D01*
X118909317Y-145457050D01*
X118869350Y-145478147D01*
X118842926Y-145525161D01*
X118828330Y-145602175D01*
X118823846Y-145713271D01*
X118628959Y-145713271D01*
X118628462Y-145694206D01*
X118629187Y-145602536D01*
X118632490Y-145533098D01*
X118639828Y-145484945D01*
X118652655Y-145448866D01*
X118672423Y-145415648D01*
X118690569Y-145390261D01*
X118756461Y-145321727D01*
X118831114Y-145284505D01*
X118924904Y-145272722D01*
X119032240Y-145284467D01*
X119125031Y-145326595D01*
X119198421Y-145400898D01*
X119203954Y-145408764D01*
X119216857Y-145429668D01*
X119226742Y-145453555D01*
X119234093Y-145485582D01*
X119239394Y-145530905D01*
X119243127Y-145594679D01*
X119245778Y-145682060D01*
X119246096Y-145700042D01*
X119247828Y-145798205D01*
G36*
X119247828Y-145798205D02*
G01*
X119249763Y-145948269D01*
X119250300Y-145991802D01*
X119252019Y-146137344D01*
X119252365Y-146248711D01*
X119250277Y-146329804D01*
X119244698Y-146384522D01*
X119234567Y-146416761D01*
X119218826Y-146430422D01*
X119196417Y-146429403D01*
X119166280Y-146417603D01*
X119127355Y-146398920D01*
X119119038Y-146394933D01*
X119084402Y-146375419D01*
X119066314Y-146352202D01*
X119059392Y-146313492D01*
X119058256Y-146247497D01*
X119058205Y-146129000D01*
X118936141Y-146129000D01*
X118861055Y-146125712D01*
X118802015Y-146112377D01*
X118752986Y-146085423D01*
X118749330Y-146082788D01*
X118699581Y-146038286D01*
X118664959Y-145984523D01*
X118643123Y-145914154D01*
X118631737Y-145819830D01*
X118628959Y-145713271D01*
X118823846Y-145713271D01*
X118823880Y-145731131D01*
X118825735Y-145811748D01*
X118831693Y-145864447D01*
X118843506Y-145898668D01*
X118862923Y-145923846D01*
X118864133Y-145925049D01*
X118911858Y-145957628D01*
X118958110Y-145954417D01*
X119010350Y-145914965D01*
X119023128Y-145901482D01*
X119041949Y-145873837D01*
X119052562Y-145837880D01*
X119057252Y-145783364D01*
X119058308Y-145700042D01*
X119057394Y-145649598D01*
X119047477Y-145557857D01*
X119024842Y-145497752D01*
X118987238Y-145464900D01*
X118932416Y-145454923D01*
X118909317Y-145457050D01*
X118869350Y-145478147D01*
X118842926Y-145525161D01*
X118828330Y-145602175D01*
X118823846Y-145713271D01*
X118628959Y-145713271D01*
X118628462Y-145694206D01*
X118629187Y-145602536D01*
X118632490Y-145533098D01*
X118639828Y-145484945D01*
X118652655Y-145448866D01*
X118672423Y-145415648D01*
X118690569Y-145390261D01*
X118756461Y-145321727D01*
X118831114Y-145284505D01*
X118924904Y-145272722D01*
X119032240Y-145284467D01*
X119125031Y-145326595D01*
X119198421Y-145400898D01*
X119203954Y-145408764D01*
X119216857Y-145429668D01*
X119226742Y-145453555D01*
X119234093Y-145485582D01*
X119239394Y-145530905D01*
X119243127Y-145594679D01*
X119245778Y-145682060D01*
X119246096Y-145700042D01*
X119247828Y-145798205D01*
G37*
X112863936Y-145319911D02*
X112905807Y-145330547D01*
X112944791Y-145357062D01*
X112994965Y-145406420D01*
X113027232Y-145441279D01*
X113060844Y-145486534D01*
X113076003Y-145528951D01*
X113079539Y-145582768D01*
X113079539Y-145670850D01*
X113019470Y-145639787D01*
X112971867Y-145601936D01*
X112939261Y-145550950D01*
X112933661Y-145537088D01*
X112890992Y-145483358D01*
X112831707Y-145456417D01*
X112767061Y-145459039D01*
X112708308Y-145494000D01*
X112683450Y-145522394D01*
X112668970Y-145558718D01*
X112684470Y-145591046D01*
X112732667Y-145623565D01*
X112816274Y-145660461D01*
X112828962Y-145665557D01*
X112905078Y-145698907D01*
X112970396Y-145731793D01*
X113011953Y-145757769D01*
X113053576Y-145804167D01*
X113081247Y-145878211D01*
X113078310Y-145957670D01*
X113045571Y-146032868D01*
X112983841Y-146094131D01*
X112933858Y-146120210D01*
X112837303Y-146138470D01*
X112783647Y-146136007D01*
X112733976Y-146122687D01*
X112714919Y-146094739D01*
X112722045Y-146048710D01*
X112724118Y-146042624D01*
X112740556Y-146010349D01*
X112767926Y-145998133D01*
X112820068Y-145998950D01*
X112856884Y-146000061D01*
X112899961Y-145990528D01*
X112929475Y-145962026D01*
X112946286Y-145926935D01*
X112948161Y-145890175D01*
X112948074Y-145889961D01*
X112926279Y-145870098D01*
X112879632Y-145841192D01*
X112819278Y-145808886D01*
X112756360Y-145778823D01*
X112702023Y-145756646D01*
X112667410Y-145748000D01*
X112662260Y-145756467D01*
X112655778Y-145796309D01*
X112651339Y-145861371D01*
X112649692Y-145943385D01*
X112649309Y-146000153D01*
X112647505Y-146071648D01*
X112644558Y-146120610D01*
X112640843Y-146138769D01*
X112621424Y-146132667D01*
X112582227Y-146116095D01*
X112532462Y-146093420D01*
X112532462Y-145802509D01*
X112532780Y-145727940D01*
X112535789Y-145614701D01*
X112543454Y-145530692D01*
X112557562Y-145469520D01*
X112579899Y-145424795D01*
X112612253Y-145390124D01*
X112656410Y-145359117D01*
X112712667Y-145333528D01*
X112816540Y-145318154D01*
X112863936Y-145319911D01*
G36*
X112863936Y-145319911D02*
G01*
X112905807Y-145330547D01*
X112944791Y-145357062D01*
X112994965Y-145406420D01*
X113027232Y-145441279D01*
X113060844Y-145486534D01*
X113076003Y-145528951D01*
X113079539Y-145582768D01*
X113079539Y-145670850D01*
X113019470Y-145639787D01*
X112971867Y-145601936D01*
X112939261Y-145550950D01*
X112933661Y-145537088D01*
X112890992Y-145483358D01*
X112831707Y-145456417D01*
X112767061Y-145459039D01*
X112708308Y-145494000D01*
X112683450Y-145522394D01*
X112668970Y-145558718D01*
X112684470Y-145591046D01*
X112732667Y-145623565D01*
X112816274Y-145660461D01*
X112828962Y-145665557D01*
X112905078Y-145698907D01*
X112970396Y-145731793D01*
X113011953Y-145757769D01*
X113053576Y-145804167D01*
X113081247Y-145878211D01*
X113078310Y-145957670D01*
X113045571Y-146032868D01*
X112983841Y-146094131D01*
X112933858Y-146120210D01*
X112837303Y-146138470D01*
X112783647Y-146136007D01*
X112733976Y-146122687D01*
X112714919Y-146094739D01*
X112722045Y-146048710D01*
X112724118Y-146042624D01*
X112740556Y-146010349D01*
X112767926Y-145998133D01*
X112820068Y-145998950D01*
X112856884Y-146000061D01*
X112899961Y-145990528D01*
X112929475Y-145962026D01*
X112946286Y-145926935D01*
X112948161Y-145890175D01*
X112948074Y-145889961D01*
X112926279Y-145870098D01*
X112879632Y-145841192D01*
X112819278Y-145808886D01*
X112756360Y-145778823D01*
X112702023Y-145756646D01*
X112667410Y-145748000D01*
X112662260Y-145756467D01*
X112655778Y-145796309D01*
X112651339Y-145861371D01*
X112649692Y-145943385D01*
X112649309Y-146000153D01*
X112647505Y-146071648D01*
X112644558Y-146120610D01*
X112640843Y-146138769D01*
X112621424Y-146132667D01*
X112582227Y-146116095D01*
X112532462Y-146093420D01*
X112532462Y-145802509D01*
X112532780Y-145727940D01*
X112535789Y-145614701D01*
X112543454Y-145530692D01*
X112557562Y-145469520D01*
X112579899Y-145424795D01*
X112612253Y-145390124D01*
X112656410Y-145359117D01*
X112712667Y-145333528D01*
X112816540Y-145318154D01*
X112863936Y-145319911D01*
G37*
X115617575Y-138987693D02*
X115753371Y-138987807D01*
X115855576Y-138988472D01*
X115929122Y-138990182D01*
X115978942Y-138993429D01*
X116009967Y-138998706D01*
X116027129Y-139006507D01*
X116035361Y-139017325D01*
X116039594Y-139031654D01*
X116039716Y-139032168D01*
X116046672Y-139065851D01*
X116059320Y-139130917D01*
X116076360Y-139220542D01*
X116096496Y-139327904D01*
X116118429Y-139446178D01*
X116120218Y-139455856D01*
X116142083Y-139570650D01*
X116162430Y-139671480D01*
X116179934Y-139752217D01*
X116193271Y-139806734D01*
X116201116Y-139828901D01*
X116201158Y-139828936D01*
X116225884Y-139841200D01*
X116276631Y-139861576D01*
X116342462Y-139885674D01*
X116346169Y-139886983D01*
X116430331Y-139918791D01*
X116528230Y-139958685D01*
X116619435Y-139998353D01*
X116769407Y-140066420D01*
X117101499Y-139839639D01*
X117124889Y-139823688D01*
X117225080Y-139755890D01*
X117314480Y-139696208D01*
X117387745Y-139648156D01*
X117439527Y-139615250D01*
X117464480Y-139601004D01*
X117481577Y-139604270D01*
X117520395Y-139629571D01*
X117580385Y-139679675D01*
X117663210Y-139755989D01*
X117770535Y-139859922D01*
X117780139Y-139869382D01*
X117865302Y-139954145D01*
X117940949Y-140030937D01*
X118002449Y-140094947D01*
X118045173Y-140141361D01*
X118064489Y-140165369D01*
X118064552Y-140165485D01*
X118067006Y-140183763D01*
X118057956Y-140213411D01*
X118035119Y-140258486D01*
X117996213Y-140323044D01*
X117938954Y-140411140D01*
X117861059Y-140526830D01*
X117847785Y-140546357D01*
X117780652Y-140645278D01*
X117721410Y-140732848D01*
X117673588Y-140803831D01*
X117640715Y-140852991D01*
X117626318Y-140875095D01*
X117625232Y-140879777D01*
X117632044Y-140914710D01*
X117652450Y-140971753D01*
X117683123Y-141041172D01*
X117724808Y-141131959D01*
X117771352Y-141239686D01*
X117810877Y-141337192D01*
X117820676Y-141362430D01*
X117846340Y-141426870D01*
X117865193Y-141471763D01*
X117873710Y-141488616D01*
X117883111Y-141489875D01*
X117925363Y-141497159D01*
X117994521Y-141509739D01*
X118083387Y-141526246D01*
X118184768Y-141545312D01*
X118291467Y-141565569D01*
X118396288Y-141585647D01*
X118492036Y-141604179D01*
X118571516Y-141619795D01*
X118627530Y-141631127D01*
X118652885Y-141636807D01*
X118657088Y-141638408D01*
X118667334Y-141647045D01*
X118674957Y-141665433D01*
X118680338Y-141698460D01*
X118683859Y-141751013D01*
X118685901Y-141827979D01*
X118686847Y-141934246D01*
X118687077Y-142074701D01*
X118687077Y-142501845D01*
X118584500Y-142522091D01*
X118572092Y-142524518D01*
X118506199Y-142537088D01*
X118415084Y-142554170D01*
X118309104Y-142573829D01*
X118198615Y-142594132D01*
X118155105Y-142602299D01*
X118057882Y-142622167D01*
X117976858Y-142640954D01*
X117919477Y-142656859D01*
X117893187Y-142668079D01*
X117881273Y-142686411D01*
X117859583Y-142734916D01*
X117837395Y-142797692D01*
X117829585Y-142821200D01*
X117800835Y-142898366D01*
X117763752Y-142989694D01*
X117724375Y-143080093D01*
X117703315Y-143127310D01*
X117673311Y-143197837D01*
X117652692Y-143250655D01*
X117645026Y-143276912D01*
X117645452Y-143278894D01*
X117659993Y-143306751D01*
X117692783Y-143360510D01*
X117740493Y-143434963D01*
X117799798Y-143524897D01*
X117867369Y-143625104D01*
X118089713Y-143951416D01*
X117797601Y-144244016D01*
X117769349Y-144272171D01*
X117682961Y-144356449D01*
X117605756Y-144429128D01*
X117542258Y-144486112D01*
X117496990Y-144523307D01*
X117474474Y-144536616D01*
X117450023Y-144526490D01*
X117398819Y-144497421D01*
X117326747Y-144452896D01*
X117239460Y-144396411D01*
X117142612Y-144331462D01*
X117047486Y-144267314D01*
X116961669Y-144210827D01*
X116891652Y-144166184D01*
X116842876Y-144136855D01*
X116820783Y-144126308D01*
X116819488Y-144126404D01*
X116790139Y-144136802D01*
X116738093Y-144161012D01*
X116673708Y-144194249D01*
X116673032Y-144194613D01*
X116587521Y-144237441D01*
X116528926Y-144258365D01*
X116492571Y-144258423D01*
X116473775Y-144238654D01*
X116465819Y-144219195D01*
X116444347Y-144167080D01*
X116411273Y-144086964D01*
X116368356Y-143983107D01*
X116317356Y-143859767D01*
X116260033Y-143721201D01*
X116198146Y-143571670D01*
X116142052Y-143435636D01*
X116084977Y-143296050D01*
X116034479Y-143171315D01*
X115992254Y-143065672D01*
X115959995Y-142983365D01*
X115939397Y-142928635D01*
X115932154Y-142905726D01*
X115945986Y-142884718D01*
X115984412Y-142849642D01*
X116038807Y-142808887D01*
X116169395Y-142702267D01*
X116286260Y-142566025D01*
X116371780Y-142416118D01*
X116425431Y-142256971D01*
X116446684Y-142093012D01*
X116435014Y-141928667D01*
X116389894Y-141768361D01*
X116310797Y-141616520D01*
X116197197Y-141477572D01*
X116137965Y-141423460D01*
X115996054Y-141327782D01*
X115844206Y-141265405D01*
X115686861Y-141234844D01*
X115528456Y-141234615D01*
X115373429Y-141263232D01*
X115226220Y-141319210D01*
X115091266Y-141401064D01*
X114973005Y-141507309D01*
X114875877Y-141636459D01*
X114804318Y-141787031D01*
X114762769Y-141957539D01*
X114755143Y-142039722D01*
X114765634Y-142217775D01*
X114812882Y-142386704D01*
X114895489Y-142543522D01*
X115012059Y-142685245D01*
X115161193Y-142808887D01*
X115213561Y-142847982D01*
X115252832Y-142883443D01*
X115267846Y-142905692D01*
X115261859Y-142925088D01*
X115242432Y-142977059D01*
X115211194Y-143057002D01*
X115169839Y-143160673D01*
X115120061Y-143283832D01*
X115063553Y-143422234D01*
X115002009Y-143571637D01*
X114946008Y-143707020D01*
X114888184Y-143846852D01*
X114836500Y-143971872D01*
X114792718Y-144077822D01*
X114758597Y-144160441D01*
X114735898Y-144215472D01*
X114726380Y-144238654D01*
X114726269Y-144238928D01*
X114707228Y-144258503D01*
X114670694Y-144258279D01*
X114611954Y-144237210D01*
X114526292Y-144194249D01*
X114519549Y-144190631D01*
X114455938Y-144158087D01*
X114405707Y-144135050D01*
X114379218Y-144126308D01*
X114357506Y-144136639D01*
X114308984Y-144165788D01*
X114239163Y-144210287D01*
X114153484Y-144266668D01*
X114057388Y-144331462D01*
X113962706Y-144394984D01*
X113875132Y-144451705D01*
X113802642Y-144496547D01*
X113750889Y-144526016D01*
X113725526Y-144536616D01*
X113721206Y-144535270D01*
X113691092Y-144514056D01*
X113639640Y-144470237D01*
X113571375Y-144407909D01*
X113490820Y-144331170D01*
X113402500Y-144244116D01*
X113110488Y-143951617D01*
X113565360Y-143282525D01*
X113496208Y-143132916D01*
X113496003Y-143132473D01*
X113454477Y-143037101D01*
X113412044Y-142930896D01*
X113377858Y-142836769D01*
X113372684Y-142821588D01*
X113346601Y-142751109D01*
X113323081Y-142696342D01*
X113306677Y-142668079D01*
X113299996Y-142664088D01*
X113259892Y-142650697D01*
X113191795Y-142633373D01*
X113103145Y-142613917D01*
X113001385Y-142594132D01*
X112970904Y-142588551D01*
X112860628Y-142568233D01*
X112757731Y-142549095D01*
X112672569Y-142533070D01*
X112615500Y-142522091D01*
X112512923Y-142501845D01*
X112512923Y-142074701D01*
X112512946Y-142022180D01*
X112513379Y-141894047D01*
X112514659Y-141798420D01*
X112517168Y-141730411D01*
X112521286Y-141685133D01*
X112527395Y-141657697D01*
X112535878Y-141643218D01*
X112547115Y-141636807D01*
X112557994Y-141634209D01*
X112602347Y-141625022D01*
X112673106Y-141610991D01*
X112763074Y-141593486D01*
X112865056Y-141573874D01*
X112971857Y-141553525D01*
X113076281Y-141533807D01*
X113171132Y-141516089D01*
X113249214Y-141501738D01*
X113303332Y-141492124D01*
X113326291Y-141488616D01*
X113327842Y-141486497D01*
X113340325Y-141459006D01*
X113361927Y-141406406D01*
X113389123Y-141337192D01*
X113426866Y-141243937D01*
X113473328Y-141136159D01*
X113516878Y-141041172D01*
X113526858Y-141019851D01*
X113554862Y-140953086D01*
X113571641Y-140901590D01*
X113573854Y-140875095D01*
X113572713Y-140873218D01*
X113554584Y-140845565D01*
X113518644Y-140791849D01*
X113468418Y-140717303D01*
X113407430Y-140627162D01*
X113339205Y-140526657D01*
X113262330Y-140412470D01*
X113204663Y-140323770D01*
X113165426Y-140258721D01*
X113142350Y-140213295D01*
X113133166Y-140183463D01*
X113135604Y-140165195D01*
X113136424Y-140163825D01*
X113158477Y-140137205D01*
X113203436Y-140088697D01*
X113266673Y-140023108D01*
X113343559Y-139945247D01*
X113429465Y-139859922D01*
X113518579Y-139773334D01*
X113605872Y-139691947D01*
X113670018Y-139637035D01*
X113712679Y-139607190D01*
X113735521Y-139601004D01*
X113738505Y-139602394D01*
X113769936Y-139621127D01*
X113826997Y-139657733D01*
X113904343Y-139708697D01*
X113996626Y-139770504D01*
X114098502Y-139839639D01*
X114430593Y-140066420D01*
X114580566Y-139998353D01*
X114584923Y-139996381D01*
X114677000Y-139956491D01*
X114774683Y-139916818D01*
X114857539Y-139885674D01*
X114857905Y-139885545D01*
X114923685Y-139861456D01*
X114974323Y-139841110D01*
X114998884Y-139828901D01*
X114999282Y-139828458D01*
X115007619Y-139803456D01*
X115021341Y-139746598D01*
X115039123Y-139664014D01*
X115059641Y-139561831D01*
X115081571Y-139446178D01*
X115082336Y-139442033D01*
X115104229Y-139324019D01*
X115124281Y-139217151D01*
X115141192Y-139128252D01*
X115153667Y-139064145D01*
X115160406Y-139031654D01*
X115160837Y-139029853D01*
X115165273Y-139015944D01*
X115174263Y-139005489D01*
X115192737Y-138997996D01*
X115225628Y-138992972D01*
X115277868Y-138989922D01*
X115354388Y-138988355D01*
X115460122Y-138987776D01*
X115600000Y-138987692D01*
X115617575Y-138987693D01*
G36*
X115617575Y-138987693D02*
G01*
X115753371Y-138987807D01*
X115855576Y-138988472D01*
X115929122Y-138990182D01*
X115978942Y-138993429D01*
X116009967Y-138998706D01*
X116027129Y-139006507D01*
X116035361Y-139017325D01*
X116039594Y-139031654D01*
X116039716Y-139032168D01*
X116046672Y-139065851D01*
X116059320Y-139130917D01*
X116076360Y-139220542D01*
X116096496Y-139327904D01*
X116118429Y-139446178D01*
X116120218Y-139455856D01*
X116142083Y-139570650D01*
X116162430Y-139671480D01*
X116179934Y-139752217D01*
X116193271Y-139806734D01*
X116201116Y-139828901D01*
X116201158Y-139828936D01*
X116225884Y-139841200D01*
X116276631Y-139861576D01*
X116342462Y-139885674D01*
X116346169Y-139886983D01*
X116430331Y-139918791D01*
X116528230Y-139958685D01*
X116619435Y-139998353D01*
X116769407Y-140066420D01*
X117101499Y-139839639D01*
X117124889Y-139823688D01*
X117225080Y-139755890D01*
X117314480Y-139696208D01*
X117387745Y-139648156D01*
X117439527Y-139615250D01*
X117464480Y-139601004D01*
X117481577Y-139604270D01*
X117520395Y-139629571D01*
X117580385Y-139679675D01*
X117663210Y-139755989D01*
X117770535Y-139859922D01*
X117780139Y-139869382D01*
X117865302Y-139954145D01*
X117940949Y-140030937D01*
X118002449Y-140094947D01*
X118045173Y-140141361D01*
X118064489Y-140165369D01*
X118064552Y-140165485D01*
X118067006Y-140183763D01*
X118057956Y-140213411D01*
X118035119Y-140258486D01*
X117996213Y-140323044D01*
X117938954Y-140411140D01*
X117861059Y-140526830D01*
X117847785Y-140546357D01*
X117780652Y-140645278D01*
X117721410Y-140732848D01*
X117673588Y-140803831D01*
X117640715Y-140852991D01*
X117626318Y-140875095D01*
X117625232Y-140879777D01*
X117632044Y-140914710D01*
X117652450Y-140971753D01*
X117683123Y-141041172D01*
X117724808Y-141131959D01*
X117771352Y-141239686D01*
X117810877Y-141337192D01*
X117820676Y-141362430D01*
X117846340Y-141426870D01*
X117865193Y-141471763D01*
X117873710Y-141488616D01*
X117883111Y-141489875D01*
X117925363Y-141497159D01*
X117994521Y-141509739D01*
X118083387Y-141526246D01*
X118184768Y-141545312D01*
X118291467Y-141565569D01*
X118396288Y-141585647D01*
X118492036Y-141604179D01*
X118571516Y-141619795D01*
X118627530Y-141631127D01*
X118652885Y-141636807D01*
X118657088Y-141638408D01*
X118667334Y-141647045D01*
X118674957Y-141665433D01*
X118680338Y-141698460D01*
X118683859Y-141751013D01*
X118685901Y-141827979D01*
X118686847Y-141934246D01*
X118687077Y-142074701D01*
X118687077Y-142501845D01*
X118584500Y-142522091D01*
X118572092Y-142524518D01*
X118506199Y-142537088D01*
X118415084Y-142554170D01*
X118309104Y-142573829D01*
X118198615Y-142594132D01*
X118155105Y-142602299D01*
X118057882Y-142622167D01*
X117976858Y-142640954D01*
X117919477Y-142656859D01*
X117893187Y-142668079D01*
X117881273Y-142686411D01*
X117859583Y-142734916D01*
X117837395Y-142797692D01*
X117829585Y-142821200D01*
X117800835Y-142898366D01*
X117763752Y-142989694D01*
X117724375Y-143080093D01*
X117703315Y-143127310D01*
X117673311Y-143197837D01*
X117652692Y-143250655D01*
X117645026Y-143276912D01*
X117645452Y-143278894D01*
X117659993Y-143306751D01*
X117692783Y-143360510D01*
X117740493Y-143434963D01*
X117799798Y-143524897D01*
X117867369Y-143625104D01*
X118089713Y-143951416D01*
X117797601Y-144244016D01*
X117769349Y-144272171D01*
X117682961Y-144356449D01*
X117605756Y-144429128D01*
X117542258Y-144486112D01*
X117496990Y-144523307D01*
X117474474Y-144536616D01*
X117450023Y-144526490D01*
X117398819Y-144497421D01*
X117326747Y-144452896D01*
X117239460Y-144396411D01*
X117142612Y-144331462D01*
X117047486Y-144267314D01*
X116961669Y-144210827D01*
X116891652Y-144166184D01*
X116842876Y-144136855D01*
X116820783Y-144126308D01*
X116819488Y-144126404D01*
X116790139Y-144136802D01*
X116738093Y-144161012D01*
X116673708Y-144194249D01*
X116673032Y-144194613D01*
X116587521Y-144237441D01*
X116528926Y-144258365D01*
X116492571Y-144258423D01*
X116473775Y-144238654D01*
X116465819Y-144219195D01*
X116444347Y-144167080D01*
X116411273Y-144086964D01*
X116368356Y-143983107D01*
X116317356Y-143859767D01*
X116260033Y-143721201D01*
X116198146Y-143571670D01*
X116142052Y-143435636D01*
X116084977Y-143296050D01*
X116034479Y-143171315D01*
X115992254Y-143065672D01*
X115959995Y-142983365D01*
X115939397Y-142928635D01*
X115932154Y-142905726D01*
X115945986Y-142884718D01*
X115984412Y-142849642D01*
X116038807Y-142808887D01*
X116169395Y-142702267D01*
X116286260Y-142566025D01*
X116371780Y-142416118D01*
X116425431Y-142256971D01*
X116446684Y-142093012D01*
X116435014Y-141928667D01*
X116389894Y-141768361D01*
X116310797Y-141616520D01*
X116197197Y-141477572D01*
X116137965Y-141423460D01*
X115996054Y-141327782D01*
X115844206Y-141265405D01*
X115686861Y-141234844D01*
X115528456Y-141234615D01*
X115373429Y-141263232D01*
X115226220Y-141319210D01*
X115091266Y-141401064D01*
X114973005Y-141507309D01*
X114875877Y-141636459D01*
X114804318Y-141787031D01*
X114762769Y-141957539D01*
X114755143Y-142039722D01*
X114765634Y-142217775D01*
X114812882Y-142386704D01*
X114895489Y-142543522D01*
X115012059Y-142685245D01*
X115161193Y-142808887D01*
X115213561Y-142847982D01*
X115252832Y-142883443D01*
X115267846Y-142905692D01*
X115261859Y-142925088D01*
X115242432Y-142977059D01*
X115211194Y-143057002D01*
X115169839Y-143160673D01*
X115120061Y-143283832D01*
X115063553Y-143422234D01*
X115002009Y-143571637D01*
X114946008Y-143707020D01*
X114888184Y-143846852D01*
X114836500Y-143971872D01*
X114792718Y-144077822D01*
X114758597Y-144160441D01*
X114735898Y-144215472D01*
X114726380Y-144238654D01*
X114726269Y-144238928D01*
X114707228Y-144258503D01*
X114670694Y-144258279D01*
X114611954Y-144237210D01*
X114526292Y-144194249D01*
X114519549Y-144190631D01*
X114455938Y-144158087D01*
X114405707Y-144135050D01*
X114379218Y-144126308D01*
X114357506Y-144136639D01*
X114308984Y-144165788D01*
X114239163Y-144210287D01*
X114153484Y-144266668D01*
X114057388Y-144331462D01*
X113962706Y-144394984D01*
X113875132Y-144451705D01*
X113802642Y-144496547D01*
X113750889Y-144526016D01*
X113725526Y-144536616D01*
X113721206Y-144535270D01*
X113691092Y-144514056D01*
X113639640Y-144470237D01*
X113571375Y-144407909D01*
X113490820Y-144331170D01*
X113402500Y-144244116D01*
X113110488Y-143951617D01*
X113565360Y-143282525D01*
X113496208Y-143132916D01*
X113496003Y-143132473D01*
X113454477Y-143037101D01*
X113412044Y-142930896D01*
X113377858Y-142836769D01*
X113372684Y-142821588D01*
X113346601Y-142751109D01*
X113323081Y-142696342D01*
X113306677Y-142668079D01*
X113299996Y-142664088D01*
X113259892Y-142650697D01*
X113191795Y-142633373D01*
X113103145Y-142613917D01*
X113001385Y-142594132D01*
X112970904Y-142588551D01*
X112860628Y-142568233D01*
X112757731Y-142549095D01*
X112672569Y-142533070D01*
X112615500Y-142522091D01*
X112512923Y-142501845D01*
X112512923Y-142074701D01*
X112512946Y-142022180D01*
X112513379Y-141894047D01*
X112514659Y-141798420D01*
X112517168Y-141730411D01*
X112521286Y-141685133D01*
X112527395Y-141657697D01*
X112535878Y-141643218D01*
X112547115Y-141636807D01*
X112557994Y-141634209D01*
X112602347Y-141625022D01*
X112673106Y-141610991D01*
X112763074Y-141593486D01*
X112865056Y-141573874D01*
X112971857Y-141553525D01*
X113076281Y-141533807D01*
X113171132Y-141516089D01*
X113249214Y-141501738D01*
X113303332Y-141492124D01*
X113326291Y-141488616D01*
X113327842Y-141486497D01*
X113340325Y-141459006D01*
X113361927Y-141406406D01*
X113389123Y-141337192D01*
X113426866Y-141243937D01*
X113473328Y-141136159D01*
X113516878Y-141041172D01*
X113526858Y-141019851D01*
X113554862Y-140953086D01*
X113571641Y-140901590D01*
X113573854Y-140875095D01*
X113572713Y-140873218D01*
X113554584Y-140845565D01*
X113518644Y-140791849D01*
X113468418Y-140717303D01*
X113407430Y-140627162D01*
X113339205Y-140526657D01*
X113262330Y-140412470D01*
X113204663Y-140323770D01*
X113165426Y-140258721D01*
X113142350Y-140213295D01*
X113133166Y-140183463D01*
X113135604Y-140165195D01*
X113136424Y-140163825D01*
X113158477Y-140137205D01*
X113203436Y-140088697D01*
X113266673Y-140023108D01*
X113343559Y-139945247D01*
X113429465Y-139859922D01*
X113518579Y-139773334D01*
X113605872Y-139691947D01*
X113670018Y-139637035D01*
X113712679Y-139607190D01*
X113735521Y-139601004D01*
X113738505Y-139602394D01*
X113769936Y-139621127D01*
X113826997Y-139657733D01*
X113904343Y-139708697D01*
X113996626Y-139770504D01*
X114098502Y-139839639D01*
X114430593Y-140066420D01*
X114580566Y-139998353D01*
X114584923Y-139996381D01*
X114677000Y-139956491D01*
X114774683Y-139916818D01*
X114857539Y-139885674D01*
X114857905Y-139885545D01*
X114923685Y-139861456D01*
X114974323Y-139841110D01*
X114998884Y-139828901D01*
X114999282Y-139828458D01*
X115007619Y-139803456D01*
X115021341Y-139746598D01*
X115039123Y-139664014D01*
X115059641Y-139561831D01*
X115081571Y-139446178D01*
X115082336Y-139442033D01*
X115104229Y-139324019D01*
X115124281Y-139217151D01*
X115141192Y-139128252D01*
X115153667Y-139064145D01*
X115160406Y-139031654D01*
X115160837Y-139029853D01*
X115165273Y-139015944D01*
X115174263Y-139005489D01*
X115192737Y-138997996D01*
X115225628Y-138992972D01*
X115277868Y-138989922D01*
X115354388Y-138988355D01*
X115460122Y-138987776D01*
X115600000Y-138987692D01*
X115617575Y-138987693D01*
G37*
D14*
%TO.C,J6*%
X88198600Y-140193000D02*
X98663400Y-140193000D01*
X88198600Y-146289000D02*
X88198600Y-140193000D01*
X93861825Y-146289000D02*
X88198600Y-146289000D01*
X98663400Y-140193000D02*
X98663400Y-146289000D01*
X98663400Y-146289000D02*
X95540175Y-146289000D01*
%TO.C,J4*%
X85875000Y-48850000D02*
X85875000Y-49520000D01*
X85875000Y-49520000D02*
X84665000Y-49520000D01*
X85875000Y-51040000D02*
X85875000Y-54600000D01*
X85875000Y-56120000D02*
X85875000Y-59330000D01*
X88535000Y-48850000D02*
X85875000Y-48850000D01*
X88535000Y-48850000D02*
X88535000Y-52060000D01*
X88535000Y-53580000D02*
X88535000Y-57140000D01*
X88535000Y-58660000D02*
X88535000Y-59330000D01*
X88535000Y-59330000D02*
X85875000Y-59330000D01*
%TO.C,R19*%
X111220000Y-61043641D02*
X111220000Y-60736359D01*
X111980000Y-61043641D02*
X111980000Y-60736359D01*
%TO.C,J2*%
X82740000Y-60480000D02*
X81040000Y-60480000D01*
X82740000Y-69820000D02*
X81040000Y-69820000D01*
%TO.C,J1*%
X81670000Y-75210000D02*
X81670000Y-76540000D01*
X83000000Y-75210000D02*
X81670000Y-75210000D01*
X84270000Y-75210000D02*
X84270000Y-77870000D01*
X84270000Y-75210000D02*
X86870000Y-75210000D01*
X84270000Y-77870000D02*
X86870000Y-77870000D01*
X86870000Y-75210000D02*
X86870000Y-77870000D01*
%TO.C,J5*%
X130048000Y-87786000D02*
X128248000Y-87786000D01*
X130048000Y-97126000D02*
X128248000Y-97126000D01*
X132148000Y-87786000D02*
X133298000Y-87786000D01*
X132148000Y-97126000D02*
X133298000Y-97126000D01*
%TO.C,U7*%
X107680000Y-63610000D02*
X107680000Y-64610000D01*
X107680000Y-81610000D02*
X107680000Y-80610000D01*
X108430000Y-63610000D02*
X107680000Y-63610000D01*
X108430000Y-81610000D02*
X107680000Y-81610000D01*
%TO.C,J3*%
X129400000Y-59000000D02*
X130035000Y-59000000D01*
X130035000Y-59000000D02*
X130035000Y-58365000D01*
%TO.C,R10*%
X104326359Y-72250000D02*
X104633641Y-72250000D01*
X104326359Y-73010000D02*
X104633641Y-73010000D01*
%TO.C,D2*%
X109040000Y-58090000D02*
X109040000Y-60950000D01*
X110960000Y-58090000D02*
X109040000Y-58090000D01*
X110960000Y-60950000D02*
X110960000Y-58090000D01*
%TO.C,U9*%
D15*
X108612000Y-112568000D02*
X102612000Y-112568000D01*
X102612000Y-119568000D01*
X108612000Y-119568000D01*
X108612000Y-112568000D01*
D16*
X109045742Y-112258000D02*
G75*
G02*
X108818258Y-112258000I-113742J0D01*
G01*
X108818258Y-112258000D02*
G75*
G02*
X109045742Y-112258000I113742J0D01*
G01*
D14*
%TO.C,C49*%
X100080000Y-139074437D02*
X100080000Y-144830000D01*
X100080000Y-144830000D02*
X102430000Y-144830000D01*
X101144437Y-138010000D02*
X100080000Y-139074437D01*
X101144437Y-138010000D02*
X102430000Y-138010000D01*
X101248750Y-137376250D02*
X102036250Y-137376250D01*
X101642500Y-136982500D02*
X101642500Y-137770000D01*
X105835563Y-138010000D02*
X104550000Y-138010000D01*
X105835563Y-138010000D02*
X106900000Y-139074437D01*
X106900000Y-139074437D02*
X106900000Y-144830000D01*
X106900000Y-144830000D02*
X104550000Y-144830000D01*
D17*
%TO.C,SW1*%
X128154000Y-102924000D02*
X132218000Y-102924000D01*
X128154000Y-103353260D02*
X128154000Y-102924000D01*
X128154000Y-105972000D02*
X128154000Y-105542740D01*
X132218000Y-102924000D02*
X132218000Y-103353260D01*
X132218000Y-105542740D02*
X132218000Y-105972000D01*
X132218000Y-105972000D02*
X128154000Y-105972000D01*
%TO.C,SW2*%
X128050000Y-111631000D02*
X132114000Y-111631000D01*
X128050000Y-112060260D02*
X128050000Y-111631000D01*
X128050000Y-114679000D02*
X128050000Y-114249740D01*
X132114000Y-111631000D02*
X132114000Y-112060260D01*
X132114000Y-114249740D02*
X132114000Y-114679000D01*
X132114000Y-114679000D02*
X128050000Y-114679000D01*
%TD*%
%LPC*%
D14*
%TO.C,U7*%
X133180000Y-81610000D02*
X133180000Y-63610000D01*
%TD*%
D18*
%TO.C,H6*%
X84764000Y-94984000D03*
%TD*%
%TO.C,H5*%
X126130000Y-136350000D03*
%TD*%
D19*
%TO.C,H1*%
X127985010Y-51120990D03*
X128644020Y-49530000D03*
X128644020Y-52711980D03*
X130235010Y-48870990D03*
D20*
X130235010Y-51120990D03*
D19*
X130235010Y-53370990D03*
X131826000Y-49530000D03*
X131826000Y-52711980D03*
X132485010Y-51120990D03*
%TD*%
%TO.C,H3*%
X128052000Y-143728000D03*
X128711010Y-142137010D03*
X128711010Y-145318990D03*
X130302000Y-141478000D03*
D20*
X130302000Y-143728000D03*
D19*
X130302000Y-145978000D03*
X131892990Y-142137010D03*
X131892990Y-145318990D03*
X132552000Y-143728000D03*
%TD*%
%TO.C,H4*%
X78455010Y-143830990D03*
X79114020Y-142240000D03*
X79114020Y-145421980D03*
X80705010Y-141580990D03*
D20*
X80705010Y-143830990D03*
D19*
X80705010Y-146080990D03*
X82296000Y-142240000D03*
X82296000Y-145421980D03*
X82955010Y-143830990D03*
%TD*%
D21*
%TO.C,U4*%
X98201691Y-68847200D03*
X99151691Y-69422200D03*
X97251691Y-69422200D03*
X98201691Y-69997200D03*
%TD*%
D19*
%TO.C,H2*%
X78558000Y-51054000D03*
X79217010Y-49463010D03*
X79217010Y-52644990D03*
X80808000Y-48804000D03*
D20*
X80808000Y-51054000D03*
D19*
X80808000Y-53304000D03*
X82398990Y-49463010D03*
X82398990Y-52644990D03*
X83058000Y-51054000D03*
%TD*%
D22*
%TO.C,J6*%
X94701000Y-145782001D03*
D23*
X89621000Y-143622000D03*
X92161000Y-143622000D03*
X94701000Y-143622000D03*
X97241000Y-143622000D03*
%TD*%
D24*
%TO.C,J4*%
X85555000Y-50280000D03*
X88855000Y-52820000D03*
X85555000Y-55360000D03*
X88855000Y-57900000D03*
%TD*%
D25*
%TO.C,R19*%
X111600000Y-60380000D03*
X111600000Y-61400000D03*
%TD*%
D26*
%TO.C,J2*%
X83545000Y-68040000D03*
X83545000Y-62260000D03*
D27*
X84620000Y-68350000D03*
X84620000Y-67550000D03*
D28*
X84620000Y-66400000D03*
X84620000Y-65400000D03*
X84620000Y-64900000D03*
X84620000Y-63900000D03*
D27*
X84620000Y-62750000D03*
X84620000Y-61950000D03*
X84620000Y-61950000D03*
X84620000Y-62750000D03*
D28*
X84620000Y-63400000D03*
X84620000Y-64400000D03*
X84620000Y-65900000D03*
X84620000Y-66900000D03*
D27*
X84620000Y-67550000D03*
X84620000Y-68350000D03*
D29*
X79865000Y-69470000D03*
D30*
X84045000Y-69470000D03*
D29*
X79865000Y-60830000D03*
D30*
X84045000Y-60830000D03*
%TD*%
D31*
%TO.C,FID7*%
X132260000Y-139060000D03*
%TD*%
D32*
%TO.C,J1*%
X83000000Y-76540000D03*
D33*
X85540000Y-76540000D03*
%TD*%
D26*
%TO.C,J5*%
X127443000Y-89566000D03*
X127443000Y-95346000D03*
D34*
X126368000Y-89256000D03*
X126368000Y-90056000D03*
D35*
X126368000Y-91206000D03*
X126368000Y-92206000D03*
X126368000Y-92706000D03*
X126368000Y-93706000D03*
D34*
X126368000Y-94856000D03*
X126368000Y-95656000D03*
X126368000Y-95656000D03*
X126368000Y-94856000D03*
D35*
X126368000Y-94206000D03*
X126368000Y-93206000D03*
X126368000Y-91706000D03*
X126368000Y-90706000D03*
D34*
X126368000Y-90056000D03*
X126368000Y-89256000D03*
D29*
X131123000Y-88136000D03*
D30*
X126943000Y-88136000D03*
D29*
X131123000Y-96776000D03*
D30*
X126943000Y-96776000D03*
%TD*%
D36*
%TO.C,U7*%
X125690000Y-81360000D03*
X124420000Y-81360000D03*
X123150000Y-81360000D03*
X121880000Y-81360000D03*
X120610000Y-81360000D03*
X119340000Y-81360000D03*
X118070000Y-81360000D03*
X116800000Y-81360000D03*
X115530000Y-81360000D03*
X114260000Y-81360000D03*
X112990000Y-81360000D03*
X111720000Y-81360000D03*
X110450000Y-81360000D03*
X109180000Y-81360000D03*
D37*
X107930000Y-79595000D03*
X107930000Y-78325000D03*
X107930000Y-77055000D03*
X107930000Y-75785000D03*
X107930000Y-74515000D03*
X107930000Y-73245000D03*
X107930000Y-71975000D03*
X107930000Y-70705000D03*
X107930000Y-69435000D03*
X107930000Y-68165000D03*
X107930000Y-66895000D03*
X107930000Y-65625000D03*
D36*
X109180000Y-63860000D03*
X110450000Y-63860000D03*
X111720000Y-63860000D03*
X112990000Y-63860000D03*
X114260000Y-63860000D03*
X115530000Y-63860000D03*
X116800000Y-63860000D03*
X118070000Y-63860000D03*
X119340000Y-63860000D03*
X120610000Y-63860000D03*
X121880000Y-63860000D03*
X123150000Y-63860000D03*
X124420000Y-63860000D03*
X125690000Y-63860000D03*
D38*
X116570000Y-75510000D03*
X117970000Y-75510000D03*
X119370000Y-75510000D03*
X116570000Y-74110000D03*
X117970000Y-74110000D03*
X119370000Y-74110000D03*
X116570000Y-72710000D03*
X117970000Y-72710000D03*
X119370000Y-72710000D03*
%TD*%
D39*
%TO.C,J3*%
X130670000Y-57730000D03*
X125590000Y-58746000D03*
X125590000Y-56714000D03*
D40*
X129400000Y-58365000D03*
X129400000Y-57095000D03*
X128130000Y-58365000D03*
X128130000Y-57095000D03*
X126860000Y-58365000D03*
X126860000Y-57095000D03*
%TD*%
D41*
%TO.C,R10*%
X104990000Y-72630000D03*
X103970000Y-72630000D03*
%TD*%
D31*
%TO.C,FID8*%
X78850000Y-139070000D03*
%TD*%
D42*
%TO.C,D2*%
X110000000Y-58925000D03*
X110000000Y-60975000D03*
%TD*%
D43*
%TO.C,U9*%
X108528000Y-112805000D03*
X108528000Y-113307000D03*
X108528000Y-113809000D03*
X108528000Y-114311000D03*
X108528000Y-114813000D03*
X108528000Y-115315000D03*
X108528000Y-115817000D03*
X108528000Y-116319000D03*
X108528000Y-116821000D03*
X108528000Y-117323000D03*
X108528000Y-117825000D03*
X108528000Y-118327000D03*
X108528000Y-118829000D03*
X108528000Y-119331000D03*
X102696000Y-119318000D03*
X102696000Y-118818000D03*
X102696000Y-118318000D03*
X102696000Y-117818000D03*
X102696000Y-117318000D03*
X102696000Y-116821000D03*
X102696000Y-116318000D03*
X102696000Y-115817000D03*
X102696000Y-115315000D03*
X102696000Y-114813000D03*
X102696000Y-114311000D03*
X102696000Y-113818000D03*
X102696000Y-113307000D03*
X102696000Y-112818000D03*
D44*
X105612000Y-113600000D03*
D45*
X105612000Y-117176000D03*
%TD*%
D46*
%TO.C,C49*%
X103490000Y-138720000D03*
X103490000Y-144120000D03*
%TD*%
D47*
%TO.C,SW1*%
X132246000Y-104448000D03*
X128136000Y-104448000D03*
%TD*%
D31*
%TO.C,FID5*%
X125270000Y-50310000D03*
%TD*%
D47*
%TO.C,SW2*%
X132142000Y-113155000D03*
X128032000Y-113155000D03*
%TD*%
D31*
%TO.C,FID6*%
X78750000Y-55900000D03*
%TD*%
%LPD*%
M02*
