%TF.GenerationSoftware,KiCad,Pcbnew,8.0.5*%
%TF.CreationDate,2024-12-18T19:41:23+01:00*%
%TF.ProjectId,makeraxe-lite,6d616b65-7261-4786-952d-6c6974652e6b,rev?*%
%TF.SameCoordinates,Original*%
%TF.FileFunction,Soldermask,Bot*%
%TF.FilePolarity,Negative*%
%FSLAX46Y46*%
G04 Gerber Fmt 4.6, Leading zero omitted, Abs format (unit mm)*
G04 Created by KiCad (PCBNEW 8.0.5) date 2024-12-18 19:41:23*
%MOMM*%
%LPD*%
G01*
G04 APERTURE LIST*
G04 Aperture macros list*
%AMRoundRect*
0 Rectangle with rounded corners*
0 $1 Rounding radius*
0 $2 $3 $4 $5 $6 $7 $8 $9 X,Y pos of 4 corners*
0 Add a 4 corners polygon primitive as box body*
4,1,4,$2,$3,$4,$5,$6,$7,$8,$9,$2,$3,0*
0 Add four circle primitives for the rounded corners*
1,1,$1+$1,$2,$3*
1,1,$1+$1,$4,$5*
1,1,$1+$1,$6,$7*
1,1,$1+$1,$8,$9*
0 Add four rect primitives between the rounded corners*
20,1,$1+$1,$2,$3,$4,$5,0*
20,1,$1+$1,$4,$5,$6,$7,0*
20,1,$1+$1,$6,$7,$8,$9,0*
20,1,$1+$1,$8,$9,$2,$3,0*%
G04 Aperture macros list end*
%ADD10C,0.120000*%
%ADD11C,3.000000*%
%ADD12C,0.800000*%
%ADD13C,6.000000*%
%ADD14C,0.400000*%
%ADD15C,1.295400*%
%ADD16C,1.574800*%
%ADD17R,1.900000X1.000000*%
%ADD18RoundRect,0.135000X-0.185000X0.135000X-0.185000X-0.135000X0.185000X-0.135000X0.185000X0.135000X0*%
%ADD19C,0.650000*%
%ADD20RoundRect,0.150000X0.425000X-0.150000X0.425000X0.150000X-0.425000X0.150000X-0.425000X-0.150000X0*%
%ADD21RoundRect,0.075000X0.500000X-0.075000X0.500000X0.075000X-0.500000X0.075000X-0.500000X-0.075000X0*%
%ADD22O,1.800000X1.000000*%
%ADD23O,2.100000X1.000000*%
%ADD24C,2.000000*%
%ADD25R,1.700000X1.700000*%
%ADD26O,1.700000X1.700000*%
%ADD27R,1.150000X0.600000*%
%ADD28R,1.150000X0.300000*%
%ADD29R,0.900000X1.500000*%
%ADD30R,1.500000X0.900000*%
%ADD31R,0.900000X0.900000*%
%ADD32C,0.990600*%
%ADD33C,0.787400*%
%ADD34RoundRect,0.135000X0.135000X0.185000X-0.135000X0.185000X-0.135000X-0.185000X0.135000X-0.185000X0*%
%ADD35RoundRect,0.250000X-0.450000X0.325000X-0.450000X-0.325000X0.450000X-0.325000X0.450000X0.325000X0*%
%ADD36R,0.792000X0.221000*%
%ADD37R,4.277000X1.810000*%
%ADD38R,4.277000X4.530000*%
%ADD39RoundRect,0.250000X-0.550000X1.500000X-0.550000X-1.500000X0.550000X-1.500000X0.550000X1.500000X0*%
%ADD40R,0.900000X1.800000*%
G04 APERTURE END LIST*
D10*
%TO.C,U7*%
X133180000Y-81610000D02*
X133180000Y-63610000D01*
%TD*%
D11*
%TO.C,H6*%
X84764000Y-94984000D03*
%TD*%
%TO.C,H5*%
X126130000Y-136350000D03*
%TD*%
D12*
%TO.C,H1*%
X127985010Y-51120990D03*
X128644020Y-49530000D03*
X128644020Y-52711980D03*
X130235010Y-48870990D03*
D13*
X130235010Y-51120990D03*
D12*
X130235010Y-53370990D03*
X131826000Y-49530000D03*
X131826000Y-52711980D03*
X132485010Y-51120990D03*
%TD*%
%TO.C,H3*%
X128052000Y-143728000D03*
X128711010Y-142137010D03*
X128711010Y-145318990D03*
X130302000Y-141478000D03*
D13*
X130302000Y-143728000D03*
D12*
X130302000Y-145978000D03*
X131892990Y-142137010D03*
X131892990Y-145318990D03*
X132552000Y-143728000D03*
%TD*%
%TO.C,H4*%
X78455010Y-143830990D03*
X79114020Y-142240000D03*
X79114020Y-145421980D03*
X80705010Y-141580990D03*
D13*
X80705010Y-143830990D03*
D12*
X80705010Y-146080990D03*
X82296000Y-142240000D03*
X82296000Y-145421980D03*
X82955010Y-143830990D03*
%TD*%
D14*
%TO.C,U4*%
X98201691Y-68847200D03*
X99151691Y-69422200D03*
X97251691Y-69422200D03*
X98201691Y-69997200D03*
%TD*%
D12*
%TO.C,H2*%
X78558000Y-51054000D03*
X79217010Y-49463010D03*
X79217010Y-52644990D03*
X80808000Y-48804000D03*
D13*
X80808000Y-51054000D03*
D12*
X80808000Y-53304000D03*
X82398990Y-49463010D03*
X82398990Y-52644990D03*
X83058000Y-51054000D03*
%TD*%
D15*
%TO.C,J6*%
X94701000Y-145782001D03*
D16*
X89621000Y-143622000D03*
X92161000Y-143622000D03*
X94701000Y-143622000D03*
X97241000Y-143622000D03*
%TD*%
D17*
%TO.C,J4*%
X85555000Y-50280000D03*
X88855000Y-52820000D03*
X85555000Y-55360000D03*
X88855000Y-57900000D03*
%TD*%
D18*
%TO.C,R19*%
X111600000Y-60380000D03*
X111600000Y-61400000D03*
%TD*%
D19*
%TO.C,J2*%
X83545000Y-68040000D03*
X83545000Y-62260000D03*
D20*
X84620000Y-68350000D03*
X84620000Y-67550000D03*
D21*
X84620000Y-66400000D03*
X84620000Y-65400000D03*
X84620000Y-64900000D03*
X84620000Y-63900000D03*
D20*
X84620000Y-62750000D03*
X84620000Y-61950000D03*
X84620000Y-61950000D03*
X84620000Y-62750000D03*
D21*
X84620000Y-63400000D03*
X84620000Y-64400000D03*
X84620000Y-65900000D03*
X84620000Y-66900000D03*
D20*
X84620000Y-67550000D03*
X84620000Y-68350000D03*
D22*
X79865000Y-69470000D03*
D23*
X84045000Y-69470000D03*
D22*
X79865000Y-60830000D03*
D23*
X84045000Y-60830000D03*
%TD*%
D24*
%TO.C,FID7*%
X132260000Y-139060000D03*
%TD*%
D25*
%TO.C,J1*%
X83000000Y-76540000D03*
D26*
X85540000Y-76540000D03*
%TD*%
D19*
%TO.C,J5*%
X127443000Y-89566000D03*
X127443000Y-95346000D03*
D27*
X126368000Y-89256000D03*
X126368000Y-90056000D03*
D28*
X126368000Y-91206000D03*
X126368000Y-92206000D03*
X126368000Y-92706000D03*
X126368000Y-93706000D03*
D27*
X126368000Y-94856000D03*
X126368000Y-95656000D03*
X126368000Y-95656000D03*
X126368000Y-94856000D03*
D28*
X126368000Y-94206000D03*
X126368000Y-93206000D03*
X126368000Y-91706000D03*
X126368000Y-90706000D03*
D27*
X126368000Y-90056000D03*
X126368000Y-89256000D03*
D22*
X131123000Y-88136000D03*
D23*
X126943000Y-88136000D03*
D22*
X131123000Y-96776000D03*
D23*
X126943000Y-96776000D03*
%TD*%
D29*
%TO.C,U7*%
X125690000Y-81360000D03*
X124420000Y-81360000D03*
X123150000Y-81360000D03*
X121880000Y-81360000D03*
X120610000Y-81360000D03*
X119340000Y-81360000D03*
X118070000Y-81360000D03*
X116800000Y-81360000D03*
X115530000Y-81360000D03*
X114260000Y-81360000D03*
X112990000Y-81360000D03*
X111720000Y-81360000D03*
X110450000Y-81360000D03*
X109180000Y-81360000D03*
D30*
X107930000Y-79595000D03*
X107930000Y-78325000D03*
X107930000Y-77055000D03*
X107930000Y-75785000D03*
X107930000Y-74515000D03*
X107930000Y-73245000D03*
X107930000Y-71975000D03*
X107930000Y-70705000D03*
X107930000Y-69435000D03*
X107930000Y-68165000D03*
X107930000Y-66895000D03*
X107930000Y-65625000D03*
D29*
X109180000Y-63860000D03*
X110450000Y-63860000D03*
X111720000Y-63860000D03*
X112990000Y-63860000D03*
X114260000Y-63860000D03*
X115530000Y-63860000D03*
X116800000Y-63860000D03*
X118070000Y-63860000D03*
X119340000Y-63860000D03*
X120610000Y-63860000D03*
X121880000Y-63860000D03*
X123150000Y-63860000D03*
X124420000Y-63860000D03*
X125690000Y-63860000D03*
D31*
X116570000Y-75510000D03*
X117970000Y-75510000D03*
X119370000Y-75510000D03*
X116570000Y-74110000D03*
X117970000Y-74110000D03*
X119370000Y-74110000D03*
X116570000Y-72710000D03*
X117970000Y-72710000D03*
X119370000Y-72710000D03*
%TD*%
D32*
%TO.C,J3*%
X130670000Y-57730000D03*
X125590000Y-58746000D03*
X125590000Y-56714000D03*
D33*
X129400000Y-58365000D03*
X129400000Y-57095000D03*
X128130000Y-58365000D03*
X128130000Y-57095000D03*
X126860000Y-58365000D03*
X126860000Y-57095000D03*
%TD*%
D34*
%TO.C,R10*%
X104990000Y-72630000D03*
X103970000Y-72630000D03*
%TD*%
D24*
%TO.C,FID8*%
X78850000Y-139070000D03*
%TD*%
D35*
%TO.C,D2*%
X110000000Y-58925000D03*
X110000000Y-60975000D03*
%TD*%
D36*
%TO.C,U9*%
X108528000Y-112805000D03*
X108528000Y-113307000D03*
X108528000Y-113809000D03*
X108528000Y-114311000D03*
X108528000Y-114813000D03*
X108528000Y-115315000D03*
X108528000Y-115817000D03*
X108528000Y-116319000D03*
X108528000Y-116821000D03*
X108528000Y-117323000D03*
X108528000Y-117825000D03*
X108528000Y-118327000D03*
X108528000Y-118829000D03*
X108528000Y-119331000D03*
X102696000Y-119318000D03*
X102696000Y-118818000D03*
X102696000Y-118318000D03*
X102696000Y-117818000D03*
X102696000Y-117318000D03*
X102696000Y-116821000D03*
X102696000Y-116318000D03*
X102696000Y-115817000D03*
X102696000Y-115315000D03*
X102696000Y-114813000D03*
X102696000Y-114311000D03*
X102696000Y-113818000D03*
X102696000Y-113307000D03*
X102696000Y-112818000D03*
D37*
X105612000Y-113600000D03*
D38*
X105612000Y-117176000D03*
%TD*%
D39*
%TO.C,C49*%
X103490000Y-138720000D03*
X103490000Y-144120000D03*
%TD*%
D40*
%TO.C,SW1*%
X132246000Y-104448000D03*
X128136000Y-104448000D03*
%TD*%
D24*
%TO.C,FID5*%
X125270000Y-50310000D03*
%TD*%
D40*
%TO.C,SW2*%
X132142000Y-113155000D03*
X128032000Y-113155000D03*
%TD*%
D24*
%TO.C,FID6*%
X78750000Y-55900000D03*
%TD*%
M02*
